<svg xmlns="http://www.w3.org/2000/svg" width="291.72" height="254.992" viewBox="0 0 291.72 254.992"><defs><style>.a{fill:#ebebeb;}.b,.i{fill:#263238;}.c{fill:#e0e0e0;}.d{fill:#fff;}.e{fill:#f24a46;}.f{fill:#f5f5f5;}.g{fill:#455a64;}.h{opacity:0.3;}.i{font-size:4px;font-family:Montserrat-Regular, Montserrat;}.j{font-family:Montserrat-Bold, Montserrat;font-weight:700;}.k{fill:#ffbe9d;}.l{fill:#eb996e;}.m{opacity:0.6;}</style></defs><g transform="translate(-173.459 -109.256)"><g transform="translate(173.459 109.256)"><g transform="translate(20.717 4.365)"><g transform="translate(7.078 115.689)"><rect class="a" width="10.767" height="66.01" transform="translate(89.939 68.64)"></rect><rect class="a" width="10.767" height="66.016" transform="translate(226.292 68.796)"></rect><rect class="a" width="10.767" height="25.915" transform="translate(249.294 108.891)"></rect><rect class="a" width="10.767" height="61.839" transform="translate(0 72.811)"></rect><rect class="a" width="10.767" height="109.15" transform="translate(22.485 25.5)"></rect><rect class="a" width="10.767" height="38.602" transform="translate(44.97 96.054)"></rect><rect class="a" width="10.767" height="114.181" transform="translate(67.454 20.475)"></rect><rect class="a" width="10.767" height="104.305" transform="translate(112.418 30.345)"></rect><rect class="a" width="10.767" height="77.204" transform="translate(134.903 57.452)"></rect><rect class="a" width="10.767" height="114.958" transform="translate(157.387 19.692)"></rect><rect class="a" width="10.767" height="134.65" transform="translate(179.872)"></rect><rect class="a" width="10.767" height="95.392" transform="translate(202.351 39.264)"></rect></g><g transform="translate(0 250.314)"><path class="b" d="M476.589,561.394c0,.085-59.63.157-133.175.157s-133.187-.072-133.187-.157,59.618-.157,133.187-.157S476.589,561.3,476.589,561.394Z" transform="translate(-210.227 -561.237)"></path></g><g transform="translate(23.52)"><rect class="c" width="228.361" height="159.124" rx="14.77" transform="translate(0.202 0.167)"></rect><path class="b" d="M480.53,125.491s0-.166-.036-.49a7.74,7.74,0,0,0-.223-1.441,8.42,8.42,0,0,0-4.842-5.685,8.546,8.546,0,0,0-2.161-.569,19.215,19.215,0,0,0-2.443-.079H455.384l-81.507.065H261.465a14.276,14.276,0,0,0-2.082.086,8.088,8.088,0,0,0-2,.534A8.218,8.218,0,0,0,254.1,120.4a8.017,8.017,0,0,0-1.65,3.8,12.781,12.781,0,0,0-.108,2.111V267.957a9.123,9.123,0,0,0,.346,2.371,8.165,8.165,0,0,0,6.982,5.764c.793.057,1.614.036,2.428.036H395.471l64.633.043h11.233a17.117,17.117,0,0,0,1.831-.05,8.724,8.724,0,0,0,1.751-.4,8.194,8.194,0,0,0,4.95-4.8,8.962,8.962,0,0,0,.54-3.459V236.916c0-34.413.05-62.262.065-81.507V133.251c0,5.044,0,12.538.036,22.157,0,19.245.036,47.094.057,81.507v30.544a9.273,9.273,0,0,1-.562,3.559,8.437,8.437,0,0,1-5.13,4.979,8.2,8.2,0,0,1-1.816.418,17.816,17.816,0,0,1-1.859.065H262.128c-.822,0-1.622,0-2.465-.036a9.355,9.355,0,0,1-2.414-.612,8.978,8.978,0,0,1-2.161-1.282,8.479,8.479,0,0,1-2.745-4.114,9.3,9.3,0,0,1-.367-2.479V126.392a12.962,12.962,0,0,1,.108-2.162,8.335,8.335,0,0,1,1.729-3.956,8.52,8.52,0,0,1,3.444-2.623,8.3,8.3,0,0,1,2.083-.554,14.025,14.025,0,0,1,2.125-.087H373.876l81.507.058h15.463a19.433,19.433,0,0,1,2.457.086,8.431,8.431,0,0,1,2.162.584,8.841,8.841,0,0,1,1.743,1.016,8.33,8.33,0,0,1,2.212,2.493,8.046,8.046,0,0,1,.858,2.3,7.63,7.63,0,0,1,.209,1.441C480.524,125.325,480.53,125.491,480.53,125.491Z" transform="translate(-251.968 -117.002)"></path><rect class="d" width="190.705" height="149.087" transform="translate(16.493 5.78)"></rect><circle class="b" cx="6.103" cy="6.103" r="6.103" transform="translate(210.981 72.985)"></circle><rect class="b" width="2.522" height="47.923" rx="1.261" transform="translate(6.773 55.771)"></rect><rect class="e" width="17.862" height="149.606" transform="translate(16.493 5.262)"></rect><path class="d" d="M282.929,241.862h16.933v14.872H282.929a1.707,1.707,0,0,1-1.729-1.686c0-.01,0-.019,0-.029v-11.45a1.708,1.708,0,0,1,1.708-1.708Z" transform="translate(-264.729 -171.506)"></path><path class="d" d="M294.572,159.473h0a3.257,3.257,0,0,1-3.257-3.257v-.007h0a3.265,3.265,0,0,1,3.257-3.272h0a3.265,3.265,0,0,1,3.293,3.235v.036h0a3.264,3.264,0,0,1-3.264,3.264Z" transform="translate(-269.144 -132.688)"></path><path class="d" d="M297.348,185.192a23.192,23.192,0,0,1-5.879,0,23.119,23.119,0,0,1,5.879,0Z" transform="translate(-269.211 -146.677)"></path><path class="d" d="M298.275,214.575a23.068,23.068,0,0,1-5.872,0,23.137,23.137,0,0,1,5.872,0Z" transform="translate(-269.619 -159.503)"></path><path class="d" d="M298.275,289.345a23.137,23.137,0,0,1-5.872,0,23.066,23.066,0,0,1,5.872,0Z" transform="translate(-269.619 -192.143)"></path><path class="d" d="M298.275,327.848a23.137,23.137,0,0,1-5.872,0,23.07,23.07,0,0,1,5.872,0Z" transform="translate(-269.619 -208.951)"></path><path class="b" d="M298.275,255.291a23.139,23.139,0,0,1-5.872,0,23.066,23.066,0,0,1,5.872,0Z" transform="translate(-269.619 -177.276)"></path><path class="b" d="M471.8,275.762c0-1.29-.057-59.358-.151-149.606l.151.158H281.108l.188-.187V275.733l-.166-.166,190.669.195-190.727.187h-.166V125.969H471.957v.151C471.864,216.425,471.8,274.493,471.8,275.762Z" transform="translate(-264.6 -120.916)"></path><rect class="e" width="2.572" height="8.603" transform="translate(146.587 128.409)"></rect><rect class="e" width="2.572" height="9.85" transform="translate(125.129 127.162)"></rect><rect class="e" width="2.572" height="11.903" transform="translate(130.49 125.109)"></rect><rect class="e" width="2.572" height="11.255" transform="translate(135.858 125.765)"></rect><rect class="e" width="2.572" height="15.059" transform="translate(141.219 121.953)"></rect><rect class="e" width="2.572" height="14.987" transform="translate(151.948 122.025)"></rect><rect class="e" width="2.572" height="10.066" transform="translate(157.316 126.946)"></rect><rect class="e" width="2.572" height="14.324" transform="translate(162.676 122.688)"></rect><rect class="e" width="2.572" height="17.552" transform="translate(168.044 119.46)"></rect><rect class="e" width="2.572" height="14.396" transform="translate(173.405 122.616)"></rect><path class="c" d="M520.807,341.747H457.616a5.224,5.224,0,0,1-5.217-5.217V298.753a5.224,5.224,0,0,1,5.217-5.217h63.191a5.224,5.224,0,0,1,5.217,5.217v37.778A5.224,5.224,0,0,1,520.807,341.747Zm-63.191-47.7a4.705,4.705,0,0,0-4.7,4.7v37.778a4.705,4.705,0,0,0,4.7,4.705h63.191a4.712,4.712,0,0,0,4.7-4.705V298.753a4.712,4.712,0,0,0-4.7-4.7Z" transform="translate(-339.462 -194.064)"></path><path class="c" d="M500.208,315.724c0,.072-7.314.137-16.328.137s-16.327-.065-16.327-.137,7.306-.13,16.327-.13S500.208,315.652,500.208,315.724Z" transform="translate(-346.077 -203.693)"></path><path class="f" d="M338.616,294.29v46.662h49.652V294.29Z" transform="translate(-289.792 -194.393)"></path><path class="b" d="M370.418,303.676A15.319,15.319,0,1,0,385.737,319h0A15.319,15.319,0,0,0,370.418,303.676Zm.23,24.5a9.4,9.4,0,1,1,.014,0Z" transform="translate(-296.988 -198.49)"></path><path class="e" d="M382.708,303.689v5.7a9.417,9.417,0,0,1,8.963,12.249l5.555,1.506a15.326,15.326,0,0,0-14.518-19.454Z" transform="translate(-309.04 -198.496)"></path><path class="g" d="M361.233,319.671a9.412,9.412,0,0,1,5.577-8.6l-2.356-5.289a15.318,15.318,0,0,0-9.367,14.116v.641h6.168A8.664,8.664,0,0,1,361.233,319.671Z" transform="translate(-296.982 -199.411)"></path><path class="e" d="M380.35,342.085a9.047,9.047,0,0,1-1.989-.216c-.238,1.369-.72,4.014-1.037,6.1a15.563,15.563,0,0,0,2.8.26,15.326,15.326,0,0,0,14.756-11.19l-5.555-1.492A9.41,9.41,0,0,1,380.35,342.085Z" transform="translate(-306.689 -212.401)"></path><g class="h" transform="translate(70.635 123.142)"><path d="M380.35,342.085a9.047,9.047,0,0,1-1.989-.216c-.238,1.369-.72,4.014-1.037,6.1a15.563,15.563,0,0,0,2.8.26,15.326,15.326,0,0,0,14.756-11.19l-5.555-1.492A9.41,9.41,0,0,1,380.35,342.085Z" transform="translate(-377.324 -335.543)"></path></g><path class="b" d="M376.588,329.677h-.569v.721h-.786v-.721H373.36v-.548l1.643-2.2h.844l-1.521,2.089h.937v-.648h.721v.648h.569Z" transform="translate(-304.959 -208.639)"></path><path class="b" d="M379.511,328.616c0-1.146.634-1.794,1.491-1.794s1.492.649,1.492,1.794-.627,1.8-1.492,1.8S379.511,329.769,379.511,328.616Zm2.161,0c0-.785-.281-1.117-.721-1.117s-.677.331-.677,1.117.281,1.124.677,1.124.735-.332.735-1.124Z" transform="translate(-307.644 -208.594)"></path><path class="b" d="M385.389,327.809a.872.872,0,0,1,.773-.961.971.971,0,1,1-.769,1.05C385.391,327.868,385.389,327.839,385.389,327.809Zm1.232,0c0-.375-.144-.555-.361-.555s-.367.188-.367.555.152.548.367.548S386.621,328.177,386.621,327.809Zm1.707-.922h.6l-2.378,3.48h-.6Zm-.569,2.558a.866.866,0,1,1-.006.1A.831.831,0,0,1,387.76,329.445Zm1.225,0c0-.368-.144-.548-.367-.548s-.361.18-.361.548.152.554.361.554S388.985,329.812,388.985,329.445Z" transform="translate(-310.208 -208.601)"></path><path class="b" d="M385.148,364.837c0,.079-5.678.144-12.681.144s-12.675-.065-12.675-.144,5.671-.152,12.675-.152S385.148,364.728,385.148,364.837Z" transform="translate(-299.036 -225.122)"></path><path class="b" d="M383.87,368.929c0,.079-3.149.144-7.032.144s-7.033-.065-7.033-.144,3.149-.152,7.033-.152S383.87,368.849,383.87,368.929Z" transform="translate(-303.407 -226.909)"></path><path class="c" d="M485.255,172.7h-11.3l-31.372.13-106.438.065.259-.188V225.35l-.259-.188,105.7.065,31.091.058,8.351.036h-8.351l-31.091.057-105.7.065h-.259V172.426h.259l106.438.065,31.329.057h10.585Z" transform="translate(-288.598 -141.196)"></path><path class="c" d="M485.456,188.489c0,.1-33.382.188-74.554.188s-74.561-.087-74.561-.188,33.376-.194,74.561-.194S485.456,188.4,485.456,188.489Z" transform="translate(-288.799 -148.123)"></path><path class="c" d="M485.456,201.353c0,.1-33.382.188-74.554.188s-74.561-.087-74.561-.188,33.376-.194,74.561-.194S485.456,201.224,485.456,201.353Z" transform="translate(-288.799 -153.739)"></path><path class="c" d="M485.456,214.234c0,.1-33.382.188-74.554.188s-74.561-.086-74.561-.188,33.376-.172,74.561-.172S485.456,214.127,485.456,214.234Z" transform="translate(-288.799 -159.371)"></path><path class="c" d="M485.456,227.065c0,.1-33.382.187-74.554.187s-74.561-.086-74.561-.187,33.376-.216,74.561-.216S485.456,226.957,485.456,227.065Z" transform="translate(-288.799 -164.953)"></path><path class="c" d="M485.456,239.946c0,.1-33.382.187-74.554.187s-74.561-.086-74.561-.187,33.376-.194,74.561-.194S485.456,239.838,485.456,239.946Z" transform="translate(-288.799 -170.586)"></path><path class="c" d="M336.34,252.8c0-.1,33.383-.187,74.554-.187s74.561.086,74.561.187-33.375.195-74.561.195S336.34,252.911,336.34,252.8Z" transform="translate(-288.799 -176.201)"></path><path class="c" d="M373.7,226.384c-.108,0-.188-11.954-.188-26.7s.079-26.718.188-26.718.194,11.961.194,26.718S373.809,226.384,373.7,226.384Z" transform="translate(-305.026 -141.43)"></path><path class="c" d="M411.814,226.384c-.108,0-.194-11.954-.194-26.7s.087-26.718.194-26.718.188,11.961.188,26.718S411.915,226.384,411.814,226.384Z" transform="translate(-321.661 -141.43)"></path><path class="c" d="M449.927,226.384c-.1,0-.187-11.954-.187-26.7s.086-26.718.187-26.718.194,11.961.194,26.718S450.035,226.384,449.927,226.384Z" transform="translate(-338.301 -141.43)"></path><path class="c" d="M488.041,226.384c-.108,0-.195-11.954-.195-26.7s.087-26.718.195-26.718.187,11.961.187,26.718S488.134,226.384,488.041,226.384Z" transform="translate(-354.935 -141.43)"></path><path class="c" d="M526.153,226.384c-.1,0-.187-11.954-.187-26.7s.086-26.718.187-26.718.195,11.961.195,26.718S526.261,226.384,526.153,226.384Z" transform="translate(-371.576 -141.43)"></path><path class="c" d="M563.052,226.384c-.108,0-.194-11.954-.194-26.7s.086-26.718.194-26.718.188,11.961.188,26.718S563.153,226.384,563.052,226.384Z" transform="translate(-387.68 -141.43)"></path><path class="c" d="M601.165,226.384c-.1,0-.188-11.954-.188-26.7s.087-26.718.188-26.718.194,11.961.194,26.718S601.273,226.384,601.165,226.384Z" transform="translate(-404.32 -141.43)"></path><path class="e" d="M374.141,251.938a1.311,1.311,0,1,1-1.319-1.3h.007A1.311,1.311,0,0,1,374.141,251.938Z" transform="translate(-304.155 -175.336)"></path><path class="e" d="M412.248,226.217a1.311,1.311,0,1,1-1.311-1.312h.007a1.3,1.3,0,0,1,1.3,1.3Z" transform="translate(-320.79 -164.104)"></path><path class="e" d="M450.367,238.856a1.311,1.311,0,1,1-1.319-1.3h.007A1.318,1.318,0,0,1,450.367,238.856Z" transform="translate(-337.43 -169.625)"></path><path class="e" d="M488.483,212.476a1.355,1.355,0,0,1-1.917,1.916h0a1.355,1.355,0,1,1,1.917-1.916Z" transform="translate(-354.204 -158.505)"></path><path class="e" d="M527.038,212.476a1.355,1.355,0,0,1-1.916,1.916h0a1.355,1.355,0,1,1,1.916-1.916Z" transform="translate(-371.034 -158.505)"></path><path class="e" d="M563.1,237.718a1.355,1.355,0,1,1-1.916,1.917h0a1.355,1.355,0,0,1,1.916-1.917Z" transform="translate(-386.775 -169.524)"></path><path class="g" d="M412.248,200.488a1.311,1.311,0,1,1-1.311-1.311h.007a1.3,1.3,0,0,1,1.3,1.3Z" transform="translate(-320.79 -152.874)"></path><path class="g" d="M374.141,239.081a1.311,1.311,0,1,1-1.311-1.311,1.311,1.311,0,0,1,1.311,1.311Z" transform="translate(-304.155 -169.72)"></path><path class="g" d="M563.151,250.99a1.355,1.355,0,1,1-1.812,0A1.355,1.355,0,0,1,563.151,250.99Z" transform="translate(-386.82 -175.339)"></path><path class="g" d="M526.594,226.217a1.3,1.3,0,1,1,0-.015Z" transform="translate(-370.705 -164.104)"></path><path class="g" d="M488.883,225.839a1.311,1.311,0,1,1-1.319-1.3h.007A1.318,1.318,0,0,1,488.883,225.839Z" transform="translate(-354.243 -163.943)"></path><path class="c" d="M354.721,276.8a11.515,11.515,0,0,1-4.136,0A11.1,11.1,0,0,1,354.721,276.8Z" transform="translate(-295.017 -186.673)"></path><path class="c" d="M393.685,276.8a11.515,11.515,0,0,1-4.136,0A11.1,11.1,0,0,1,393.685,276.8Z" transform="translate(-312.026 -186.673)"></path><path class="c" d="M432.641,276.8a11.452,11.452,0,0,1-4.129,0A11.06,11.06,0,0,1,432.641,276.8Z" transform="translate(-329.034 -186.673)"></path><path class="c" d="M471.6,276.8a11.515,11.515,0,0,1-4.136,0A11.1,11.1,0,0,1,471.6,276.8Z" transform="translate(-346.038 -186.673)"></path><path class="c" d="M510.55,276.8a11.515,11.515,0,0,1-4.136,0A11.1,11.1,0,0,1,510.55,276.8Z" transform="translate(-363.041 -186.673)"></path><path class="c" d="M545.4,276.8a11.515,11.515,0,0,1-4.136,0A11.1,11.1,0,0,1,545.4,276.8Z" transform="translate(-378.252 -186.673)"></path><path class="c" d="M580.229,276.8a11.515,11.515,0,0,1-4.136,0A11.1,11.1,0,0,1,580.229,276.8Z" transform="translate(-393.458 -186.673)"></path><path class="c" d="M328.244,265.618a3.89,3.89,0,0,1-1.665.187,3.942,3.942,0,0,1-1.672-.187,3.755,3.755,0,0,1,1.672-.194A3.707,3.707,0,0,1,328.244,265.618Z" transform="translate(-283.808 -181.782)"></path><path class="c" d="M328.244,250.657a3.9,3.9,0,0,1-1.665.187,3.943,3.943,0,0,1-1.672-.187,3.756,3.756,0,0,1,1.672-.195A3.716,3.716,0,0,1,328.244,250.657Z" transform="translate(-283.808 -175.251)"></path><path class="c" d="M328.244,235.7a3.9,3.9,0,0,1-1.665.188,3.943,3.943,0,0,1-1.672-.188,3.756,3.756,0,0,1,1.672-.194A3.707,3.707,0,0,1,328.244,235.7Z" transform="translate(-283.808 -168.72)"></path><path class="c" d="M328.244,220.734a3.9,3.9,0,0,1-1.665.187,3.943,3.943,0,0,1-1.672-.187,3.756,3.756,0,0,1,1.672-.194A3.708,3.708,0,0,1,328.244,220.734Z" transform="translate(-283.808 -162.189)"></path><path class="c" d="M328.244,205.773a3.9,3.9,0,0,1-1.665.187,3.943,3.943,0,0,1-1.672-.187,7.234,7.234,0,0,1,3.336,0Z" transform="translate(-283.808 -155.658)"></path><path class="c" d="M328.244,190.875a3.9,3.9,0,0,1-1.665.188,3.943,3.943,0,0,1-1.672-.188,3.755,3.755,0,0,1,1.672-.194A3.707,3.707,0,0,1,328.244,190.875Z" transform="translate(-283.808 -149.155)"></path><path class="c" d="M328.244,175.859a3.9,3.9,0,0,1-1.665.187,3.943,3.943,0,0,1-1.672-.187,3.751,3.751,0,0,1,1.672-.18A3.712,3.712,0,0,1,328.244,175.859Z" transform="translate(-283.808 -142.604)"></path><path class="e" d="M335.9,243.689l-.238-.677,21.35-7.5L378.6,220.935l21.479,7.126,21.638-14.274,21.674-.058.094.065,20.586,14.54,19.952-13.179.4.605-20.362,13.452-.2-.144L443.16,214.45l-21.227.058-21.746,14.346-21.479-7.119L357.3,236.174Z" transform="translate(-288.503 -159.226)"></path><path class="g" d="M464.481,224.476l-21.018-14.288H421.8l-21.681-14.31-21.018-.187-21.472,21.739H336.34v-.721h20.982L378.8,194.963l21.537.195,21.674,14.31h21.667l20.564,13.971,20.528-36.077.627.353Z" transform="translate(-288.799 -147.716)"></path><path class="b" d="M572.559,154.058c0,.108-8.1.188-18.086.188s-18.085-.079-18.085-.188,8.1-.187,18.085-.187S572.559,153.957,572.559,154.058Z" transform="translate(-376.125 -133.096)"></path><text class="i" transform="translate(47.282 20.401)"><tspan x="0" y="0">RISK</tspan><tspan class="j" y="0" xml:space="preserve"> MONITOR</tspan></text></g><g transform="translate(191.999 130.747)"><path class="b" d="M584.261,483.067c-9.027-3.821-19.421-11.339-24.074-20.553a51.22,51.22,0,0,1,24.074,20.553" transform="translate(-554.993 -398.574)"></path><path class="b" d="M580.865,457.678c-9.028-3.815-19.422-11.333-24.074-20.553a51.293,51.293,0,0,1,24.074,20.553" transform="translate(-553.511 -387.491)"></path><path class="b" d="M576.24,432.994c-9.028-3.822-19.422-11.339-24.074-20.553a51.318,51.318,0,0,1,24.074,20.553" transform="translate(-551.492 -376.716)"></path><path class="b" d="M572.456,404.708c-8.492-5.037-17.959-13.932-21.486-23.7a52.925,52.925,0,0,1,21.486,23.7" transform="translate(-550.97 -362.994)"></path><path class="b" d="M573.7,379.613c-6.187-8.095-11.953-20.138-11.88-30.574a56.849,56.849,0,0,1,11.88,30.574" transform="translate(-555.707 -349.039)"></path><path class="b" d="M585.971,387.2c1.252-10.942,5.507-24.676,12.735-32.909A66.842,66.842,0,0,1,585.971,387.2" transform="translate(-566.249 -351.333)"></path><path class="b" d="M591.141,408.261c2.2-11.285,7.77-25.235,15.973-33.149a69.456,69.456,0,0,1-15.973,33.149" transform="translate(-568.506 -360.421)"></path><path class="b" d="M597.069,434.162c2.2-11.278,7.77-25.235,15.978-33.149a69.378,69.378,0,0,1-15.978,33.149" transform="translate(-571.093 -371.727)"></path><path class="b" d="M601.832,465.97c2.2-11.285,7.77-25.235,15.973-33.149a69.422,69.422,0,0,1-15.973,33.149" transform="translate(-573.173 -385.612)"></path><path class="b" d="M582.151,399.453a1.419,1.419,0,0,1,.072.168c.042.114.1.3.169.5l.6,1.956c.542,1.7,1.27,4.165,2.131,7.222s1.806,6.735,2.787,10.833,1.938,8.618,2.841,13.391,1.625,9.347,2.215,13.512,1.023,7.938,1.336,11.1.53,5.729.644,7.511q.078,1.3.126,2.04v.535a.515.515,0,0,1,0,.181,1.024,1.024,0,0,1-.03-.181c0-.138-.036-.313-.06-.53-.048-.493-.108-1.173-.193-2.04-.157-1.77-.409-4.334-.752-7.493s-.819-6.915-1.408-11.08-1.348-8.727-2.239-13.493-1.872-9.287-2.811-13.385-1.884-7.764-2.714-10.833-1.522-5.549-2.022-7.259c-.234-.831-.421-1.492-.56-1.968-.054-.211-.1-.379-.139-.518A.673.673,0,0,1,582.151,399.453Z" transform="translate(-564.577 -371.046)"></path><path class="g" d="M606.567,487.868c-3.816-7.992-6.59-19.259-4.719-28a49.568,49.568,0,0,1,4.719,28" transform="translate(-572.918 -397.418)"></path><path class="g" d="M617.836,469.5c-3.816-7.992-6.59-19.229-4.719-28a49.563,49.563,0,0,1,4.719,28" transform="translate(-577.837 -389.398)"></path><path class="g" d="M627.94,450.816c-3.815-7.992-6.59-19.229-4.719-28a49.563,49.563,0,0,1,4.719,28" transform="translate(-582.248 -381.243)"></path><path class="g" d="M639.754,430.341c-2.841-8.456-4.267-19.993-1.366-28.431a50,50,0,0,1,1.366,28.431" transform="translate(-588.435 -372.119)"></path><path class="g" d="M648.455,415.02c.283-9.027,2.931-20.276,8.516-26.92a48.75,48.75,0,0,1-8.516,26.92" transform="translate(-593.525 -366.09)"></path><path class="g" d="M645.507,433.543c6.62-6.253,16.689-12.452,25.734-13.241a49.881,49.881,0,0,1-25.734,13.241" transform="translate(-592.238 -380.148)"></path><path class="g" d="M637.581,451.743c7.421-5.88,18.441-11.4,27.974-11.435a51.924,51.924,0,0,1-27.974,11.435" transform="translate(-588.778 -388.88)"></path><path class="g" d="M627.68,472c7.421-5.88,18.44-11.4,27.974-11.435A51.88,51.88,0,0,1,627.68,472" transform="translate(-584.456 -397.725)"></path><path class="g" d="M613.88,495.332c7.421-5.88,18.446-11.4,27.974-11.435a51.858,51.858,0,0,1-27.974,11.435" transform="translate(-578.432 -407.908)"></path><path class="b" d="M628.224,432.98a.417.417,0,0,1-.042.144l-.15.428c-.157.4-.361.933-.6,1.619-.542,1.4-1.366,3.418-2.407,5.892-2.119,4.947-5.254,11.7-9.154,18.934-1.95,3.611-3.906,7.006-5.741,10.057s-3.563,5.754-5.055,7.993-2.727,4.038-3.611,5.254c-.427.6-.764,1.066-1.017,1.408l-.27.361c-.06.078-.1.121-.1.114l.078-.139.241-.379.963-1.439c.849-1.246,2.052-3.057,3.515-5.314s3.153-4.971,4.989-8.016,3.726-6.458,5.675-10.069c3.894-7.222,7.06-13.95,9.232-18.874,1.089-2.456,1.95-4.46,2.522-5.85.289-.668.518-1.2.68-1.589.078-.168.139-.3.187-.415S628.218,432.974,628.224,432.98Z" transform="translate(-572.404 -385.681)"></path><path class="e" d="M613.575,511.272H575.653v7.312h3.894l3.286,20.842h23.442l3.37-20.842h3.93Z" transform="translate(-561.745 -419.858)"></path><path class="b" d="M613.785,523.837c0-.1-8.426-.175-18.826-.175s-18.826.078-18.826.175,8.426.174,18.826.174S613.785,523.932,613.785,523.837Z" transform="translate(-561.955 -425.267)"></path></g><g transform="translate(9.534 14.557)"><path class="k" d="M317.786,279.229l-2.112,2.642v-4.55h-6.668s-.74,10.424-.6,12.639,2.648,8.57,2.648,8.57a24.549,24.549,0,0,0,6.717-5.874c2.961-3.8,7.884-13.084,7.884-13.084l-5.134-3.1Z" transform="translate(-262.61 -201.172)"></path><path class="l" d="M320.668,280.5a7.061,7.061,0,0,1-.867,1.161c-.566.7-1.342,1.655-2.233,2.7a31.571,31.571,0,0,1-2.407,2.57,4.731,4.731,0,0,1-1.138.921,11.1,11.1,0,0,1,.975-1.071c.6-.656,1.414-1.589,2.305-2.624A34.475,34.475,0,0,1,320.668,280.5Z" transform="translate(-265.071 -202.928)"></path><path class="e" d="M315.164,237.843s-1.9-15.557-9.407-17.146l-3.888,14.95,3.232,10.785,10.719-1.444Z" transform="translate(-259.765 -176.824)"></path><path class="e" d="M237.442,245.991l.355,1.113,7.354,23.116s18.206,6.885,24.741,4.177a24.556,24.556,0,0,0,9.558-6.62l-1.457-49.207L267.624,217l-17.881-1.312-11.977,3.846Z" transform="translate(-231.641 -174.638)"></path><g class="h" transform="translate(5.801 68.765)"><path d="M260.011,276.471a77.2,77.2,0,0,1-18.91-11.6l-3.659,1.95c2.75,5.555,5.044,10.623,8.835,15.528a12.909,12.909,0,0,0,5.049,4.05,8.425,8.425,0,0,0,8.486-1.721c2.178-2.029,3.816-7.987,3.1-12.843C261.69,271.909,261.142,276.941,260.011,276.471Z" transform="translate(-237.442 -264.874)"></path></g><path class="b" d="M308.326,253.043a23.431,23.431,0,0,0-1.2-4.905,22.951,22.951,0,0,0-2.54-4.37,5.134,5.134,0,0,1,1.029,1.1,13.868,13.868,0,0,1,1.805,3.154,13.406,13.406,0,0,1,.9,3.521A5.163,5.163,0,0,1,308.326,253.043Z" transform="translate(-260.949 -186.896)"></path><path class="b" d="M295.511,176.662a2.667,2.667,0,0,1-2.51-1.113,3.217,3.217,0,0,0,1.926-.108,1.089,1.089,0,0,0,.458-1.625c-.355-.367-.945-.3-1.45-.337a3.148,3.148,0,0,1-2.672-2.052c-.433-1.24-.042-2.588.114-3.888a10.713,10.713,0,0,0-4.484-9.906l-8.155-4.694c-2.955,3.779-3.876,8.883-3.262,13.643a35.921,35.921,0,0,0,5.061,13.385A15.738,15.738,0,0,0,283,183.355a6.282,6.282,0,0,0,3.659,1.878,3.777,3.777,0,0,0-.6-3.413,8.234,8.234,0,0,0,6.066-2.172l-1.751-1.337A6.373,6.373,0,0,0,295.511,176.662Z" transform="translate(-248.165 -147.246)"></path><path class="k" d="M255.427,163.555a7.637,7.637,0,0,1,5.543-7.222l10.232-2.919c4.436-.6,7.565,4.779,7.98,9.239.469,4.953.818,10.183.343,13.9-.951,7.481-6.62,8.606-6.62,8.606s.1,3.539.163,5.718l-1.667,9.744-13.5-11.507-2.5-25.47C255.4,163.519,255.4,163.724,255.427,163.555Z" transform="translate(-239.479 -147.433)"></path><path class="b" d="M293.826,179.334a.957.957,0,0,1-.891.993.909.909,0,0,1-1.008-.8l0-.033a.951.951,0,0,1,.885-.993.921.921,0,0,1,1.016.815Z" transform="translate(-255.424 -158.403)"></path><path class="b" d="M292.818,174.42c-.121.126-.855-.385-1.884-.349s-1.764.6-1.878.445.054-.283.373-.53a2.65,2.65,0,0,1,1.505-.512,2.467,2.467,0,0,1,1.5.433C292.758,174.126,292.872,174.342,292.818,174.42Z" transform="translate(-254.156 -156.21)"></path><path class="b" d="M277.859,179.356a.958.958,0,0,1-.891.993.909.909,0,0,1-1.008-.8l0-.033a.952.952,0,0,1,.891-.993.921.921,0,0,1,1.01.822Z" transform="translate(-248.453 -158.413)"></path><path class="b" d="M275.493,174.88c-.114.132-.854-.385-1.884-.349s-1.763.6-1.877.451.054-.283.379-.536a2.634,2.634,0,0,1,1.5-.512,2.532,2.532,0,0,1,1.5.433C275.434,174.621,275.554,174.826,275.493,174.88Z" transform="translate(-246.594 -156.411)"></path><path class="b" d="M283.968,183.155a6.922,6.922,0,0,1,1.661-.355c.259,0,.505-.09.548-.271a1.39,1.39,0,0,0-.2-.776c-.27-.6-.548-1.282-.836-1.974a34.15,34.15,0,0,1-1.908-5.17,34.493,34.493,0,0,1,2.317,5.008l.806,1.986a1.521,1.521,0,0,1,.168,1.023.654.654,0,0,1-.421.4,1.662,1.662,0,0,1-.446.078A6.438,6.438,0,0,1,283.968,183.155Z" transform="translate(-251.626 -156.705)"></path><path class="l" d="M268.769,205.627s2.57,5.049,10,4.122L278.718,208A18.734,18.734,0,0,1,268.769,205.627Z" transform="translate(-245.316 -170.246)"></path><path class="b" d="M274.055,168.495c-.09.283-1.125.18-2.323.361s-2.167.542-2.335.3c-.072-.114.09-.385.469-.668a4.01,4.01,0,0,1,1.721-.656,3.932,3.932,0,0,1,1.805.157C273.863,168.146,274.1,168.362,274.055,168.495Z" transform="translate(-245.583 -153.727)"></path><path class="b" d="M292.285,168.76c-.174.241-.89,0-1.739.036s-1.571.2-1.739-.036c-.078-.114,0-.349.337-.6a2.517,2.517,0,0,1,2.8,0C292.237,168.411,292.363,168.646,292.285,168.76Z" transform="translate(-254.051 -153.703)"></path><path class="l" d="M277.695,192.5a1.337,1.337,0,0,1,1.354-1.054,1.4,1.4,0,0,1,1.12.747,1.722,1.722,0,0,1,.1,1.336v.1a1.517,1.517,0,0,1-1.71.415A1.42,1.42,0,0,1,277.695,192.5Z" transform="translate(-249.204 -164.053)"></path><path class="b" d="M281.255,193.1c0-.15-1.041-.072-1.848-.9s-.776-1.944-.921-1.944-.187.265-.162.734a2.627,2.627,0,0,0,.716,1.625,2.267,2.267,0,0,0,1.541.692C281.05,193.314,281.267,193.182,281.255,193.1Z" transform="translate(-249.484 -163.536)"></path><path class="b" d="M261.549,147.1a10.382,10.382,0,0,1,5.988-4.1,5.687,5.687,0,0,1,5.483,1.45,6.071,6.071,0,0,0,2.407,1.421c1.161.229,2.137.036,3.521.747,1.9.969,2.727,3.5,3.611,5.416,1.089,2.408,2.642,4.628,3.352,7.174s.337,5.675-1.805,7.222c.409-2.173.746-4.592-.445-6.452-.909-1.421-2.534-2.209-3.7-3.424-1.409-1.468-1.589-3.437-3.07-4.815-3.37-3.2-9.3,2.407-15.323-4.628" transform="translate(-242.164 -142.836)"></path><path class="b" d="M284.461,160.649a21.731,21.731,0,0,0-3.316-6.018,11.7,11.7,0,0,0-15.533-1.992l-.6.048a9.855,9.855,0,0,0,7.674,3.7c1.751,0,3.647-.458,5.151.445s1.986,2.684,3.178,3.876c.806.806,1.89,1.306,2.678,2.142a8.785,8.785,0,0,1,1.655,3.214C285.863,164.266,285.177,162.371,284.461,160.649Z" transform="translate(-243.675 -146.206)"></path><path class="b" d="M258.436,153.567l-4.773-4.212c-3.719-.193-6.109,3.322-7.384,6.018-.951,2.016-1.246,4.273-1.962,6.385s-1.908,4.177-2.576,6.362-.758,4.737.56,6.62l.831-1.529a9.231,9.231,0,0,0,2.485,5.723c.108-.53.217-1.059.319-1.595a9.028,9.028,0,0,0,3.611,3.87l2.239,5.976C255.084,177.129,246.586,176.37,258.436,153.567Z" transform="translate(-233.31 -145.678)"></path><path class="b" d="M259.573,154.594a21.751,21.751,0,0,1-1.12,4A7.664,7.664,0,0,1,256,161.876c-1.631,1.2-3.738,1.426-5.7,1.9s-4.05,1.372-4.857,3.22a46.026,46.026,0,0,1,1.673-8c.873-2.883,2.13-5.784,4.538-7.632a8.306,8.306,0,0,1,7.824-1.161" transform="translate(-235.133 -145.832)"></path><path class="k" d="M257.912,181.4c-.1-.247-4.73-1.769-4.653,3.105.073,4.737,4.815,3.665,4.815,3.527S257.912,181.4,257.912,181.4Z" transform="translate(-238.545 -159.487)"></path><path class="l" d="M257.525,187.445a1.359,1.359,0,0,1-.217.126.816.816,0,0,1-.6,0,2.037,2.037,0,0,1-.981-1.805,2.778,2.778,0,0,1,.211-1.2.944.944,0,0,1,.6-.644.415.415,0,0,1,.494.216c.066.126.036.223.06.235s.1-.085.06-.277a.535.535,0,0,0-.192-.295.64.64,0,0,0-.458-.114,1.2,1.2,0,0,0-.849.752,2.787,2.787,0,0,0-.259,1.324,2.135,2.135,0,0,0,1.24,2.022.867.867,0,0,0,.752-.139C257.518,187.56,257.543,187.451,257.525,187.445Z" transform="translate(-239.476 -160.665)"></path><path class="d" d="M257.458,191.873a.921.921,0,1,0,.223.06" transform="translate(-239.921 -164.238)"></path><path class="b" d="M257.573,191.884a1.3,1.3,0,0,1,.439.6.784.784,0,0,1-.163.747.831.831,0,0,1-1.468-.421.808.808,0,0,1,.259-.722,1.257,1.257,0,0,1,.711-.289.451.451,0,0,0-.223-.048,1,1,0,0,0-.6.223.953.953,0,0,0-.355.867,1.024,1.024,0,0,0,1.806.524.994.994,0,0,0-.177-1.393l-.046-.033C257.657,191.884,257.573,191.873,257.573,191.884Z" transform="translate(-239.813 -164.189)"></path><path class="g" d="M251.4,182.031s-.06,0-.15-.108a3.364,3.364,0,0,1-.361-.361,5.688,5.688,0,0,1-.987-1.613,5.554,5.554,0,0,1-.373-2.786,4.761,4.761,0,0,1,1.673-3.009,11.662,11.662,0,0,1,2.961-1.739c.963-.415,1.805-.776,2.516-1.156a10.352,10.352,0,0,0,2.052-1.444,2.2,2.2,0,0,1-.433.541,7.474,7.474,0,0,1-1.511,1.138,27.3,27.3,0,0,1-2.5,1.2,11.682,11.682,0,0,0-2.871,1.709,4.549,4.549,0,0,0-1.607,2.8,5.541,5.541,0,0,0,.3,2.666A8.2,8.2,0,0,0,251.4,182.031Z" transform="translate(-236.901 -154.613)"></path><path class="g" d="M251.893,179.621a1.341,1.341,0,0,1-.211-.464,3.817,3.817,0,0,1-.168-1.378,4.354,4.354,0,0,1,.6-1.98,4.3,4.3,0,0,1,1.854-1.721,24.368,24.368,0,0,1,2.311-.939,6.389,6.389,0,0,0,1.733-.957,3.849,3.849,0,0,0,1.083-1.45,1.008,1.008,0,0,1-.114.494,3.081,3.081,0,0,1-.824,1.125,6.157,6.157,0,0,1-1.769,1.053c-.7.3-1.511.554-2.275.951a4.214,4.214,0,0,0-1.752,1.589,4.476,4.476,0,0,0-.6,1.854A6.65,6.65,0,0,0,251.893,179.621Z" transform="translate(-237.78 -155.013)"></path><path class="g" d="M267.489,154.828a10.41,10.41,0,0,0-4.616-5.308,2.619,2.619,0,0,1,1,.4,7.671,7.671,0,0,1,2.01,1.649,7.553,7.553,0,0,1,1.354,2.215A2.676,2.676,0,0,1,267.489,154.828Z" transform="translate(-242.742 -145.754)"></path><path class="g" d="M303.622,181.349a2.107,2.107,0,0,1-.6-.078,13.073,13.073,0,0,1-1.613-.433,7.323,7.323,0,0,1-1.065-.476,2.884,2.884,0,0,1-1.041-.891,1.832,1.832,0,0,1-.283-.71l-.054-.367a2.769,2.769,0,0,1-.042-.4,5.052,5.052,0,0,1,.289-1.577,6.037,6.037,0,0,0,.331-1.481,2.313,2.313,0,0,0-.373-1.3,10.123,10.123,0,0,0-1.637-1.805,13.339,13.339,0,0,0-1.252-1.071,4.986,4.986,0,0,1-.487-.361,5.415,5.415,0,0,1,1.914,1.294,9.172,9.172,0,0,1,1.733,1.806,2.579,2.579,0,0,1,.433,1.456,6.031,6.031,0,0,1-.337,1.565,4.825,4.825,0,0,0-.283,1.48,3.45,3.45,0,0,0,.036.349l.048.367a1.606,1.606,0,0,0,.229.6,2.741,2.741,0,0,0,.927.824,8.184,8.184,0,0,0,1.017.488C302.779,181.12,303.64,181.294,303.622,181.349Z" transform="translate(-257.112 -154.869)"></path><path class="k" d="M279.749,541.463l.259-6.638,11.579-.439-.181,8.131-4.207,2.54Z" transform="translate(-250.109 -313.758)"></path><path class="e" d="M291.086,545.836v.758s12.855,5.308,12.969,7.758l-25.621-.379.476-8.522A14.639,14.639,0,0,0,291.086,545.836Z" transform="translate(-249.536 -318.589)"></path><g class="h" transform="translate(28.899 226.862)"><path d="M291.086,545.836v.758s12.855,5.308,12.969,7.758l-25.621-.379.476-8.522A14.639,14.639,0,0,0,291.086,545.836Z" transform="translate(-278.435 -545.451)"></path></g><g class="m" transform="translate(31.162 229.631)"><path class="d" d="M283.209,550.364a1.048,1.048,0,0,0-.74,1.2,1.006,1.006,0,0,0,1.168.747,1.107,1.107,0,0,0,.776-1.258,1.042,1.042,0,0,0-1.3-.638" transform="translate(-282.45 -550.364)"></path></g><g class="m" transform="translate(28.894 233.338)"><path class="d" d="M278.425,558.99l.114-2.046,24.513,1.107s1.131.512.993,1.318Z" transform="translate(-278.425 -556.944)"></path></g><path class="b" d="M299.213,547.536c0,.127-.6.175-1.251.566s-.957.915-1.072.867.085-.776.843-1.2S299.243,547.423,299.213,547.536Z" transform="translate(-257.578 -319.459)"></path><path class="b" d="M304.443,549.611c0,.126-.517.331-.951.854s-.566,1.077-.686,1.071-.2-.716.355-1.354S304.443,549.5,304.443,549.611Z" transform="translate(-260.136 -320.383)"></path><path class="b" d="M308.293,553.73c-.114,0-.283-.6.048-1.288s.921-.945.975-.837-.319.464-.6,1.029S308.414,553.73,308.293,553.73Z" transform="translate(-262.506 -321.265)"></path><path class="k" d="M261.271,541.73l.265-6.638,11.573-.439-.175,8.131-4.207,2.54Z" transform="translate(-242.043 -313.875)"></path><path class="e" d="M272.618,546.1v.758s12.856,5.309,12.97,7.758l-25.621-.379.476-8.522A14.638,14.638,0,0,0,272.618,546.1Z" transform="translate(-241.474 -318.705)"></path><g class="m" transform="translate(20.755 229.761)"><path class="d" d="M264.741,550.615a1.042,1.042,0,0,0-.74,1.2,1.006,1.006,0,0,0,1.162.722,1.107,1.107,0,0,0,.776-1.258,1.041,1.041,0,0,0-1.3-.638" transform="translate(-263.981 -550.595)"></path></g><g class="m" transform="translate(18.488 233.489)"><path class="d" d="M259.957,559.257l.114-2.046,24.513,1.107s1.131.517.993,1.318Z" transform="translate(-259.957 -557.211)"></path></g><path class="b" d="M280.746,547.837c0,.127-.6.175-1.252.566s-.957.915-1.071.867.078-.77.842-1.2S280.775,547.7,280.746,547.837Z" transform="translate(-249.517 -319.585)"></path><path class="b" d="M285.97,549.878c0,.126-.517.331-.951.854s-.566,1.077-.693,1.071-.193-.716.361-1.354S285.97,549.764,285.97,549.878Z" transform="translate(-252.07 -320.5)"></path><path class="b" d="M289.818,554.008c-.114,0-.277-.6.054-1.288s.921-.945.975-.837-.319.464-.6,1.029S289.944,554,289.818,554.008Z" transform="translate(-254.442 -321.386)"></path><path class="k" d="M230.414,245.93s9.629,14.925,14.685,20.944,13.367.722,14.33-7.463.71-23.358.71-23.358l-6.728-4-4.352,20.709-5.416-10.081Z" transform="translate(-228.573 -181.781)"></path><path class="k" d="M277.954,223.37l2.889-7.222a11.244,11.244,0,0,0,1.7-.987c.427-.4.343-3.009.223-3.467s.469-1.805.054-2.046-1.577,0-1.619-.482c0-.1.6-1.33-.247-1.938a3.7,3.7,0,0,0-1.33-.241l-.469-2.408s-1.926-2.522-3.009-1.2c0,0-4.1,4.935-4.46,5.657s-.463,9.088-.463,10.652" transform="translate(-246.389 -169.097)"></path><path class="l" d="M271.237,219.59a1.861,1.861,0,0,1,0-.433V217.9c0-1.089,0-2.66.06-4.61,0-.975.06-2.04.144-3.19a4.87,4.87,0,0,1,.1-.885,1.885,1.885,0,0,1,.421-.849c.361-.506.747-1,1.15-1.511.8-1.017,1.655-2.071,2.546-3.166a3.872,3.872,0,0,1,.776-.806,1.284,1.284,0,0,1,1.174,0,5.209,5.209,0,0,1,1.728,1.486h0v.042c.048.229.1.482.144.734.108.56.223,1.12.331,1.661l-.15-.126a6.257,6.257,0,0,1,.939.1,1.342,1.342,0,0,1,.487.18,1.208,1.208,0,0,1,.337.385,1.532,1.532,0,0,1,.139.969,2.249,2.249,0,0,1-.1.451l-.066.211v.048h0a.05.05,0,0,0,0,.042.465.465,0,0,0,.283.114,3.025,3.025,0,0,0,.415.042,1.572,1.572,0,0,1,.44.042.869.869,0,0,1,.482.2.7.7,0,0,1,.126.506,1.692,1.692,0,0,1-.054.433c-.054.277-.121.541-.15.8a.959.959,0,0,0,0,.349,3.019,3.019,0,0,0,.054.415q0,.409.036.795a10.736,10.736,0,0,1-.078,1.534,1.9,1.9,0,0,1-.229.747,2.206,2.206,0,0,1-.6.445,8.945,8.945,0,0,1-1.2.6l.06-.06-2.161,5.254c-.252.6-.457,1.077-.6,1.432a3.491,3.491,0,0,1-.229.487,3.331,3.331,0,0,1,.168-.512c.132-.361.319-.849.548-1.457.5-1.282,1.2-3.087,2.058-5.3V215.9h.042c.385-.187.783-.4,1.2-.632a2.133,2.133,0,0,0,.523-.379,1.725,1.725,0,0,0,.175-.638,10,10,0,0,0,.06-1.486q0-.391-.036-.776a2.306,2.306,0,0,0-.054-.373,1.266,1.266,0,0,1,0-.451c.036-.283.1-.554.15-.819a3.043,3.043,0,0,0,.048-.391.464.464,0,0,0-.054-.3.706.706,0,0,0-.3-.1,1.667,1.667,0,0,1-.415-.036c-.144-.036-.289,0-.445-.042a.711.711,0,0,1-.482-.241.3.3,0,0,1-.066-.163.2.2,0,0,1,0-.12v-.06l.066-.2a3.384,3.384,0,0,0,.091-.41,1.2,1.2,0,0,0-.109-.776.862.862,0,0,0-.252-.283,1.021,1.021,0,0,0-.361-.127,6.114,6.114,0,0,0-.9-.036h-.127v-.126c-.108-.542-.223-1.1-.331-1.661-.048-.253-.1-.5-.144-.734v.066a4.95,4.95,0,0,0-1.607-1.39.951.951,0,0,0-.9,0,3.368,3.368,0,0,0-.686.734c-.9,1.084-1.757,2.137-2.564,3.148-.4.5-.794,1-1.149,1.486a1.6,1.6,0,0,0-.385.74c-.048.283-.078.6-.108.855-.1,1.137-.139,2.209-.181,3.177-.066,1.92-.12,3.485-.156,4.6a10.547,10.547,0,0,1-.042,1.252A2.438,2.438,0,0,1,271.237,219.59Z" transform="translate(-246.388 -168.989)"></path><path class="l" d="M280.479,210.069a12.849,12.849,0,0,1-1.264.385,8.959,8.959,0,0,0-1.288.6,6.21,6.21,0,0,1-1.751.415,3.391,3.391,0,0,0-2.558,1.523,3.627,3.627,0,0,0-.421,1.2,1.677,1.677,0,0,1,.229-1.324,3.319,3.319,0,0,1,1-1.107,3.688,3.688,0,0,1,1.7-.6,7.215,7.215,0,0,0,1.685-.367,7.627,7.627,0,0,1,1.336-.6A3.608,3.608,0,0,1,280.479,210.069Z" transform="translate(-247.228 -172.178)"></path><path class="l" d="M282.671,209.548c-.066.054-.331-.193-.4-.6s.109-.734.187-.7.066.319.126.656S282.767,209.494,282.671,209.548Z" transform="translate(-251.201 -171.387)"></path><path class="l" d="M284.374,214.03a11.2,11.2,0,0,1-3.8.56,3.607,3.607,0,0,0-1.414.138,1.5,1.5,0,0,0-.752.788,8.517,8.517,0,0,0-.277,1.059,1.9,1.9,0,0,1,.915-2.112,3.72,3.72,0,0,1,1.523-.193C282.665,214.253,284.356,213.94,284.374,214.03Z" transform="translate(-249.372 -173.907)"></path><path class="l" d="M287.089,217.747a2.153,2.153,0,0,1-.915.21c-.6.066-1.378.042-2.245.073a4.928,4.928,0,0,0-1.2.144,1.418,1.418,0,0,0-.764.487,1.369,1.369,0,0,0-.241.824.446.446,0,0,1-.109-.241,1.06,1.06,0,0,1,.163-.7,1.606,1.606,0,0,1,.86-.643,4.463,4.463,0,0,1,1.258-.181c.891-.03,1.674,0,2.245,0A4.134,4.134,0,0,1,287.089,217.747Z" transform="translate(-250.919 -175.517)"></path><path class="l" d="M288.495,221.547c.06,0-.259.56-1.029.734l.121-.169.042.409a4.493,4.493,0,0,1,0,1.655,4.441,4.441,0,0,1-.313-1.619l-.036-.409V222h.132C288.062,221.884,288.441,221.487,288.495,221.547Z" transform="translate(-253.396 -177.193)"></path><path class="b" d="M279.808,306.529s8.564,18.9,8.564,30.73-8.426,50.5-8.426,50.5-1.125,10.695-2.257,24.964a170.636,170.636,0,0,1-4.315,26.481h-8.426l-13.7.374s-5.82-23.839-5.447-32.849,1.878-19.337,1.878-19.337-7.318-29.845-8.636-35.292a57.373,57.373,0,0,1-.788-10.52,68.96,68.96,0,0,1,4.814-26.012l2.408-6.073Z" transform="translate(-231.993 -214.292)"></path><path class="g" d="M286.3,373.659c-.091,0-1.108,21.161-2.269,47.275s-2.058,47.3-1.944,47.3,1.107-21.161,2.269-47.281S286.377,373.659,286.3,373.659Z" transform="translate(-251.127 -243.597)"></path><path class="g" d="M291.372,337.932a6.223,6.223,0,0,0,.186-1.047c.1-.674.216-1.661.319-2.877A65.17,65.17,0,0,0,290.589,315c-.265-1.2-.512-2.155-.7-2.8a6.066,6.066,0,0,0-.331-1.011,6.676,6.676,0,0,0,.2,1.041c.15.662.361,1.631.6,2.822a73.543,73.543,0,0,1,1.3,18.94c-.072,1.2-.144,2.2-.2,2.883A6.362,6.362,0,0,0,291.372,337.932Z" transform="translate(-254.389 -216.325)"></path><path class="g" d="M241.725,332.118a1.654,1.654,0,0,0,.6.355,4.258,4.258,0,0,0,1.848.313,10.741,10.741,0,0,0,5.657-2.305,13.286,13.286,0,0,0,3.906-4.706,12.064,12.064,0,0,0,.692-1.733,2.538,2.538,0,0,0,.145-.668c-.066,0-.307.927-1.047,2.287a13.953,13.953,0,0,1-3.9,4.55,11.119,11.119,0,0,1-5.477,2.329A5.092,5.092,0,0,1,241.725,332.118Z" transform="translate(-233.511 -221.645)"></path><path class="g" d="M304.529,318.909a2.171,2.171,0,0,0,.138.6,12.145,12.145,0,0,0,.6,1.577,16.861,16.861,0,0,0,7.487,7.987,11.576,11.576,0,0,0,1.534.692,2.316,2.316,0,0,0,.6.18c0-.06-.794-.379-2.01-1.077a18.6,18.6,0,0,1-7.385-7.878C304.848,319.757,304.583,318.891,304.529,318.909Z" transform="translate(-260.926 -219.696)"></path><path class="g" d="M283.046,316.9s.036-.132.108-.343a1.469,1.469,0,0,1,.548-.728,1.324,1.324,0,1,1,0,2.142,1.466,1.466,0,0,1-.548-.728c-.072-.211-.078-.343-.108-.343s-.054.132,0,.373a1.448,1.448,0,0,0,.53.891,1.576,1.576,0,0,0,1.511.265,1.619,1.619,0,0,0,0-3.057,1.576,1.576,0,0,0-1.511.265,1.448,1.448,0,0,0-.53.891C282.992,316.766,283.028,316.9,283.046,316.9Z" transform="translate(-251.534 -218.113)"></path><path class="g" d="M262.339,449.077a41.149,41.149,0,0,0,4.514,2.732,42.489,42.489,0,0,0,4.706,2.407,40.644,40.644,0,0,0-4.544-2.714A43.376,43.376,0,0,0,262.339,449.077Z" transform="translate(-242.509 -276.519)"></path><path class="c" d="M313.625,236.381c-2.612,3.972-13.2,20.071-16.334,24.832A.74.74,0,0,0,298,262.35l18.813-2.371a.718.718,0,0,0,.5-.3l17.965-24.555a.734.734,0,0,0-.644-1.167l-19.355,1.432A2.162,2.162,0,0,0,313.625,236.381Z" transform="translate(-257.715 -182.614)"></path><path class="b" d="M313.512,236.3a1.762,1.762,0,0,1,.15-.229,2.152,2.152,0,0,1,.6-.512,2.656,2.656,0,0,1,1.258-.3l1.745-.144,11.158-.879,3.7-.283,1.962-.15c.175,0,.325-.03.524-.03a.861.861,0,0,1,.68,1.33l-5.2,7.168-12.037,16.407c-.27.373-.517.716-.813,1.1a.815.815,0,0,1-.337.229,1.919,1.919,0,0,1-.361.072l-.661.078-2.637.331-5.146.643-9.726,1.2c-.2,0-.367.054-.6.066a.853.853,0,0,1-.6-.259.9.9,0,0,1-.259-.6,1.08,1.08,0,0,1,.229-.6c.421-.6.831-1.258,1.24-1.878q1.2-1.848,2.372-3.611L305.02,249l6.187-9.322,1.7-2.528c.192-.277.337-.494.451-.65s.156-.223.156-.216a1.457,1.457,0,0,1-.132.234l-.421.668-1.649,2.558-6.109,9.377-4.213,6.47-2.359,3.611-1.2,1.884a.712.712,0,0,0-.175.445.6.6,0,0,0,.6.6c.156,0,.373-.048.56-.066l9.726-1.2,5.146-.65,2.63-.331.662-.084a1.541,1.541,0,0,0,.295-.054.655.655,0,0,0,.217-.145c.259-.361.523-.716.788-1.071l12.037-16.394,5.242-7.144a.6.6,0,0,0-.476-.933h-.494l-1.962.138-3.7.265-11.164.776-1.751.114a2.722,2.722,0,0,0-1.233.265A2.641,2.641,0,0,0,313.512,236.3Z" transform="translate(-257.602 -182.532)"></path><path class="b" d="M336.35,236.03a1.835,1.835,0,0,1-.391.06l-1.143.114-4.249.379-14.444,1.2.114-.066c-.9,1.342-1.836,2.738-2.775,4.183-3.816,5.862-7.144,11.249-9.666,15.088-1.251,1.92-2.287,3.455-3.009,4.514l-.849,1.2a2.4,2.4,0,0,1-.313.409,4.374,4.374,0,0,1,.265-.445c.193-.307.464-.722.794-1.24l2.931-4.568c2.467-3.864,5.772-9.275,9.587-15.143.939-1.444,1.878-2.84,2.787-4.213l.042-.06h.072l14.444-1.071,4.261-.289,1.143-.06A2.915,2.915,0,0,1,336.35,236.03Z" transform="translate(-258.786 -183.515)"></path><path class="d" d="M344.1,242.294" transform="translate(-278.201 -186.252)"></path><path class="d" d="M344.055,242.568a.379.379,0,0,0-.454-.285l-.01,0a1.04,1.04,0,0,0-.505.283.506.506,0,0,0-.09.644.576.576,0,0,0,.8-.048A.662.662,0,0,0,344.055,242.568Z" transform="translate(-277.684 -186.243)"></path><path class="k" d="M326.854,265.884s-.74-1.805,1.143-2a65.171,65.171,0,0,1,6.831,0s2.7.283,2.13,2.221c0,0,1.6,1.433.74,2.973s-1.2,1.083-1.2,1.083.229,1.884-1.2,2.167c0,0-1.547,1.805-2.973,1.715s-7.475-3.009-7.872-3.611-.975-.891-.632-1.529c0,0-.74-1.673.86-1.926C324.687,266.991,324.8,265.607,326.854,265.884Z" transform="translate(-269.27 -195.638)"></path><path class="l" d="M337.972,268.036a5.425,5.425,0,0,1-1.27.091h-3.069a18.073,18.073,0,0,1-3.082-.186c-.813-.187-1.131-.662-1.1-.674a3.192,3.192,0,0,0,1.138.458c.746.126,1.848.048,3.045.09s2.281.048,3.064.09A5.288,5.288,0,0,1,337.972,268.036Z" transform="translate(-271.806 -197.153)"></path><path class="l" d="M334.8,271.442a1.364,1.364,0,0,1-.409.139,4.357,4.357,0,0,1-1.2.078,8.609,8.609,0,0,1-1.715-.313c-.6-.174-1.3-.421-2.01-.638a9.227,9.227,0,0,0-2.028-.415,3.157,3.157,0,0,1-1.728-.349.981.981,0,0,1-.409-.6.8.8,0,0,1,.072-.536c.144-.271.349-.283.343-.271a.683.683,0,0,0-.235.325.734.734,0,0,0,.356.885,3.088,3.088,0,0,0,1.619.247,8.6,8.6,0,0,1,2.1.4l2,.662a9.515,9.515,0,0,0,1.655.367A10.314,10.314,0,0,0,334.8,271.442Z" transform="translate(-269.986 -197.706)"></path><path class="l" d="M332.1,275.852a4.808,4.808,0,0,1-1.269-.247c-.776-.192-1.836-.5-3.01-.872s-2.191-.765-2.931-1.066a5.117,5.117,0,0,1-1.174-.554c.036-.084,1.9.566,4.213,1.319A43.948,43.948,0,0,1,332.1,275.852Z" transform="translate(-269.3 -199.702)"></path><path class="l" d="M334.308,279.907a2.664,2.664,0,0,1-1.059-.12,12.481,12.481,0,0,1-2.408-.849c-.909-.415-1.7-.837-2.275-1.138a3.719,3.719,0,0,1-.9-.548,19.976,19.976,0,0,1,3.3,1.4A35.387,35.387,0,0,0,334.308,279.907Z" transform="translate(-271.025 -201.513)"></path><path class="e" d="M233.273,222.5s-7.74,3.22-5.82,13.463,2.919,13.661,2.919,13.661l15.257-8.028Z" transform="translate(-227.147 -177.613)"></path><path class="b" d="M247.823,256.692a3.276,3.276,0,0,1-.56.361c-.367.217-.909.518-1.577.885-1.336.74-3.2,1.733-5.26,2.823s-3.936,2.052-5.3,2.738c-.68.343-1.234.6-1.619.794a3.118,3.118,0,0,1-.6.259,2.693,2.693,0,0,1,.56-.367c.367-.217.909-.518,1.577-.885,1.336-.734,3.2-1.733,5.26-2.817s3.936-2.052,5.3-2.738l1.624-.8A2.839,2.839,0,0,1,247.823,256.692Z" transform="translate(-229.66 -192.537)"></path><path class="b" d="M255.147,249.116a9.819,9.819,0,0,1-.837-1.408l-1.938-3.455c-.734-1.3-1.4-2.474-1.95-3.448a8.32,8.32,0,0,1-.74-1.468,8.042,8.042,0,0,1,.927,1.354c.541.86,1.27,2.064,2.034,3.412s1.427,2.588,1.866,3.5A8,8,0,0,1,255.147,249.116Z" transform="translate(-236.984 -184.961)"></path></g></g><path class="e" d="M189.883,109.256h-.3l-.868.061a10.325,10.325,0,0,0-1.4.176q-.448.06-.887.164l-.989.261a16.607,16.607,0,0,0-4.705,2.218,16.407,16.407,0,0,0-6.256,8.443,16.236,16.236,0,0,0-.709,4.121,15.938,15.938,0,0,0,.038,2.2,8.541,8.541,0,0,0,.16,1.119,6.851,6.851,0,0,0,.223,1.125,16.242,16.242,0,0,0,9.576,11.141,15.791,15.791,0,0,0,5.484,1.173,15.483,15.483,0,0,0,5.746-.784l.562-.2h.077l.064.037,8.05,3.89-.237.194c-.862-2.541-1.692-5-2.5-7.367v-.091l.07-.067a16.278,16.278,0,0,0,4.226-6.686,16.037,16.037,0,0,0-1.475-13.166,16.592,16.592,0,0,0-3.639-4.255,16.045,16.045,0,0,0-7.3-3.4l-1.277-.2-.926-.066-.562-.037h-.192a.907.907,0,0,1,.192,0h.569l.925.037,1.277.176a17.5,17.5,0,0,1,3.39.966,17.883,17.883,0,0,1,4.021,2.389,16.669,16.669,0,0,1,3.716,4.255,16.375,16.375,0,0,1,1.583,13.366,16.5,16.5,0,0,1-4.29,6.826l.038-.158c.8,2.365,1.641,4.826,2.509,7.361l.121.371-.363-.176-8.05-3.884h.14l-.575.2a15.945,15.945,0,0,1-5.854.8,16.178,16.178,0,0,1-5.6-1.216,16.547,16.547,0,0,1-8-6.814,15.744,15.744,0,0,1-1.807-4.5,8.886,8.886,0,0,1-.224-1.148c-.051-.383-.134-.76-.153-1.137a17.142,17.142,0,0,1,.709-6.419,15.947,15.947,0,0,1,1.666-3.574,16.224,16.224,0,0,1,4.73-4.941,16.492,16.492,0,0,1,4.782-2.2l1-.243q.443-.1.894-.152a9.955,9.955,0,0,1,1.411-.145l.875-.03A2.232,2.232,0,0,1,189.883,109.256Z" transform="translate(-173.459 -109.256)"></path><path class="e" d="M201.376,128.962h-1.181l-2.554-3.588v-2.356s-1.826-.115-1.609,2.968,0,2.3,0,2.3-3.875,0-4.194.351-.338,4.092-.383,6.18a2.26,2.26,0,0,0,1.6,2.272,1.591,1.591,0,0,0,.415.057c.97,0,5.905-.785,5.905-.785h2.036Z" transform="translate(-181.314 -115.263)"></path><path class="e" d="M212.931,132.445l-.728,8.069h-2.017v-7.9Z" transform="translate(-189.491 -119.379)"></path></g><g transform="translate(299.388 309.476)"><path class="e" d="M433.846,506.343a24.775,24.775,0,1,1,.015,0Z" transform="translate(-396.946 -477.424)"></path><path class="e" d="M434.045,511.5a14.559,14.559,0,1,1-18.778-8.446l.034-.013A14.544,14.544,0,0,1,434.045,511.5Z" transform="translate(-400.842 -480.962)"></path><path class="b" d="M432.924,511.424a1.253,1.253,0,0,1-.1-.209c-.075-.154-.169-.363-.294-.627-.06-.14-.13-.294-.209-.463s-.194-.343-.3-.537a10.051,10.051,0,0,0-.816-1.289,13.75,13.75,0,0,0-2.871-3.03,14.43,14.43,0,0,0-18.38.363,14.755,14.755,0,0,0-1.468,1.433c-.229.259-.433.542-.652.816a7.431,7.431,0,0,0-.607.866,17.414,17.414,0,0,0-1.04,1.871,16.985,16.985,0,0,0-.736,2.059,13.887,13.887,0,0,0-.537,4.433,14.285,14.285,0,0,0,3.2,8.5,14,14,0,0,0,3.324,2.985,16.7,16.7,0,0,0,1.91,1.06,16.046,16.046,0,0,0,2.021.721,13.278,13.278,0,0,0,4.1.548,14.48,14.48,0,0,0,14.067-11.842,13.824,13.824,0,0,0,.164-4.17,10.291,10.291,0,0,0-.239-1.493c-.045-.214-.079-.418-.124-.6l-.149-.5c-.08-.278-.144-.5-.194-.661a1.345,1.345,0,0,1-.06-.234,1.68,1.68,0,0,1,.09.219l.224.657.164.5c.05.179.09.383.139.6a10.034,10.034,0,0,1,.269,1.517,13.765,13.765,0,0,1-.114,4.214,14.676,14.676,0,0,1-6.8,9.952,14.926,14.926,0,0,1-9.524,2.03,15.514,15.514,0,0,1-2.1-.438,16.951,16.951,0,0,1-2.06-.736,16.313,16.313,0,0,1-1.95-1.08,14.076,14.076,0,0,1-3.4-3.045,15.5,15.5,0,0,1-2.349-4.07,15.668,15.668,0,0,1-.921-4.608,14.315,14.315,0,0,1,.552-4.528,13.587,13.587,0,0,1,1.821-4.011,8.57,8.57,0,0,1,.617-.881c.224-.278.438-.567.667-.831a15.39,15.39,0,0,1,1.493-1.458,14.63,14.63,0,0,1,18.673-.283,13.817,13.817,0,0,1,2.861,3.095,9.8,9.8,0,0,1,.8,1.319c.109.194.214.373.294.542s.139.329.2.473l.259.642A1.131,1.131,0,0,1,432.924,511.424Z" transform="translate(-400.284 -480.887)"></path><g class="h" transform="translate(4.434 21.162)"><path d="M432.972,511.7a9.639,9.639,0,0,1-1-1.493,15.5,15.5,0,0,0-3.13-3.593,14.712,14.712,0,0,0-2.717-1.806,14.5,14.5,0,0,0-3.483-1.249,13.553,13.553,0,0,0-1.99-.288,13.339,13.339,0,0,0-2.09,0,13.815,13.815,0,0,0-2.135.334,14.569,14.569,0,0,0-2.119.681,15.518,15.518,0,0,0-1.991,1,14.6,14.6,0,0,0-1.751,1.268,13.436,13.436,0,0,0-1.493,1.493,12.914,12.914,0,0,0-1.209,1.6,14.536,14.536,0,0,0-1.6,3.358,14.882,14.882,0,0,0-.657,3.2,15.517,15.517,0,0,0,.313,4.752,8.855,8.855,0,0,1,.369,1.756c-.079.035-.4-.527-.786-1.642a13.606,13.606,0,0,1-.677-4.921,14.435,14.435,0,0,1,.562-3.418,14.676,14.676,0,0,1,1.617-3.637,13.5,13.5,0,0,1,1.269-1.747,13.713,13.713,0,0,1,1.578-1.607,14.61,14.61,0,0,1,1.88-1.383,15.462,15.462,0,0,1,2.14-1.095,16.218,16.218,0,0,1,2.284-.731,14.379,14.379,0,0,1,2.309-.343,14.128,14.128,0,0,1,2.249,0,13.9,13.9,0,0,1,2.13.348,14.7,14.7,0,0,1,3.712,1.433,15.094,15.094,0,0,1,2.807,2.03,13.612,13.612,0,0,1,2.985,3.98A4.269,4.269,0,0,1,432.972,511.7Z" transform="translate(-404.814 -502.145)"></path></g><g class="h" transform="translate(12.055 25.784)"><path d="M429.9,527.779l.925,2.364-2.124.826-.9-2.3a10.78,10.78,0,0,1-5.911.378l.149-3.03a9.132,9.132,0,0,0,4.672-.095l-1.383-3.518c-2.563.348-5.474.6-6.668-2.418-.876-2.234,0-4.792,3.175-6.469l-.921-2.338,2.11-.831.9,2.3a10.269,10.269,0,0,1,4.787-.393l-.035,2.985a9.248,9.248,0,0,0-3.657.17l1.408,3.583c2.553-.369,5.434-.6,6.6,2.373C433.905,523.554,433.05,526.077,429.9,527.779Zm-5.767-8.489-1.179-2.985c-1,.692-1.219,1.493-.945,2.174S423.088,519.36,424.133,519.29Zm5.618,3.647c-.289-.742-1.055-.9-2.09-.861l1.144,2.911C429.77,524.351,430.019,523.619,429.751,522.938Z" transform="translate(-418.34 -510.349)"></path></g><rect class="e" width="42.388" height="7.697" transform="translate(27.979 0.174)"></rect><path class="b" d="M453.83,472.739a41.965,41.965,0,0,1,0-7.637,20.982,20.982,0,0,1,.179,3.821A20.44,20.44,0,0,1,453.83,472.739Z" transform="translate(-421.702 -464.813)"></path><path class="b" d="M449.715,472.739a41.957,41.957,0,0,1,0-7.637,20.984,20.984,0,0,1,.179,3.821A20.445,20.445,0,0,1,449.715,472.739Z" transform="translate(-419.905 -464.813)"></path><path class="b" d="M462.868,472.739a40.776,40.776,0,0,1,0-7.637,20.738,20.738,0,0,1,.174,3.821A18.791,18.791,0,0,1,462.868,472.739Z" transform="translate(-425.645 -464.813)"></path><path class="b" d="M458.757,472.739a41.972,41.972,0,0,1,0-7.637,41.957,41.957,0,0,1,0,7.637Z" transform="translate(-423.852 -464.813)"></path><path class="b" d="M471.915,472.739a41.965,41.965,0,0,1,0-7.637,40.776,40.776,0,0,1,0,7.637Z" transform="translate(-429.596 -464.813)"></path><path class="b" d="M467.8,472.739a40.79,40.79,0,0,1,0-7.637,20.8,20.8,0,0,1,.174,3.821A21.269,21.269,0,0,1,467.8,472.739Z" transform="translate(-427.796 -464.813)"></path><path class="b" d="M480.948,472.739a41.965,41.965,0,0,1,0-7.637,40.776,40.776,0,0,1,0,7.637Z" transform="translate(-433.539 -464.813)"></path><path class="b" d="M476.833,472.739a41.965,41.965,0,0,1,0-7.637,20.982,20.982,0,0,1,.179,3.821A20.381,20.381,0,0,1,476.833,472.739Z" transform="translate(-431.743 -464.813)"></path><path class="b" d="M489.987,472.739a40.776,40.776,0,0,1,0-7.637,20.8,20.8,0,0,1,.174,3.821A21.281,21.281,0,0,1,489.987,472.739Z" transform="translate(-437.483 -464.813)"></path><path class="b" d="M485.872,472.739a40.776,40.776,0,0,1,0-7.637,20.8,20.8,0,0,1,.174,3.821A21.276,21.276,0,0,1,485.872,472.739Z" transform="translate(-435.687 -464.813)"></path><path class="b" d="M499.024,472.739a41.965,41.965,0,0,1,0-7.637,20.982,20.982,0,0,1,.179,3.821A20.378,20.378,0,0,1,499.024,472.739Z" transform="translate(-441.43 -464.813)"></path><path class="b" d="M494.874,472.739a41.965,41.965,0,0,1,0-7.637,20.984,20.984,0,0,1,.179,3.821A18.557,18.557,0,0,1,494.874,472.739Z" transform="translate(-439.618 -464.813)"></path><path class="b" d="M508.063,472.739a40.783,40.783,0,0,1,0-7.637,20.8,20.8,0,0,1,.174,3.821A21.276,21.276,0,0,1,508.063,472.739Z" transform="translate(-445.374 -464.813)"></path><path class="b" d="M503.948,472.739a40.776,40.776,0,0,1,0-7.637,20.794,20.794,0,0,1,.174,3.821A21.274,21.274,0,0,1,503.948,472.739Z" transform="translate(-443.577 -464.813)"></path><path class="b" d="M517.1,472.739a41.972,41.972,0,0,1,0-7.637,20.982,20.982,0,0,1,.179,3.821A20.381,20.381,0,0,1,517.1,472.739Z" transform="translate(-449.321 -464.813)"></path><path class="b" d="M512.985,472.739a41.972,41.972,0,0,1,0-7.637,20.982,20.982,0,0,1,.179,3.821A20.375,20.375,0,0,1,512.985,472.739Z" transform="translate(-447.524 -464.813)"></path><path class="b" d="M488.829,464.763c0,.1-9.533.179-21.291.179s-21.291-.079-21.291-.179,9.533-.174,21.291-.174S488.829,464.649,488.829,464.763Z" transform="translate(-418.467 -464.589)"></path><rect class="e" width="42.388" height="7.697" transform="translate(25.202 7.996)"></rect><path class="b" d="M448.951,486.616a40.729,40.729,0,0,1,0-7.633,20.668,20.668,0,0,1,.174,3.816A24.367,24.367,0,0,1,448.951,486.616Z" transform="translate(-419.569 -470.872)"></path><path class="b" d="M444.792,486.616a40.729,40.729,0,0,1,0-7.633,20.663,20.663,0,0,1,.174,3.816A21.211,21.211,0,0,1,444.792,486.616Z" transform="translate(-417.754 -470.872)"></path><path class="b" d="M457.945,486.616a41.916,41.916,0,0,1,0-7.633,20.911,20.911,0,0,1,.179,3.816A20.438,20.438,0,0,1,457.945,486.616Z" transform="translate(-423.498 -470.872)"></path><path class="b" d="M453.83,486.616a41.916,41.916,0,0,1,0-7.633,20.911,20.911,0,0,1,.179,3.816A20.441,20.441,0,0,1,453.83,486.616Z" transform="translate(-421.702 -470.872)"></path><path class="b" d="M466.983,486.616a40.729,40.729,0,0,1,0-7.633,20.664,20.664,0,0,1,.174,3.816A21.213,21.213,0,0,1,466.983,486.616Z" transform="translate(-427.441 -470.872)"></path><path class="b" d="M462.868,486.616a40.729,40.729,0,0,1,0-7.633,20.668,20.668,0,0,1,.174,3.816A18.792,18.792,0,0,1,462.868,486.616Z" transform="translate(-425.645 -470.872)"></path><path class="b" d="M476.021,486.616a41.916,41.916,0,0,1,0-7.633,20.911,20.911,0,0,1,.179,3.816A20.438,20.438,0,0,1,476.021,486.616Z" transform="translate(-431.388 -470.872)"></path><path class="b" d="M471.915,486.616a41.916,41.916,0,0,1,0-7.633,40.729,40.729,0,0,1,0,7.633Z" transform="translate(-429.596 -470.872)"></path><path class="b" d="M485.063,486.616a41.916,41.916,0,0,1,0-7.633,41.916,41.916,0,0,1,0,7.633Z" transform="translate(-435.336 -470.872)"></path><path class="b" d="M480.948,486.616a41.916,41.916,0,0,1,0-7.633,40.729,40.729,0,0,1,0,7.633Z" transform="translate(-433.539 -470.872)"></path><path class="b" d="M494.1,486.616a40.729,40.729,0,0,1,0-7.633,20.725,20.725,0,0,1,.174,3.816A21.277,21.277,0,0,1,494.1,486.616Z" transform="translate(-439.279 -470.872)"></path><path class="b" d="M489.987,486.616a40.729,40.729,0,0,1,0-7.633,20.727,20.727,0,0,1,.174,3.816A21.282,21.282,0,0,1,489.987,486.616Z" transform="translate(-437.483 -470.872)"></path><path class="b" d="M503.139,486.616a41.909,41.909,0,0,1,0-7.633,20.911,20.911,0,0,1,.179,3.816A20.382,20.382,0,0,1,503.139,486.616Z" transform="translate(-443.226 -470.872)"></path><path class="b" d="M499.024,486.616a41.916,41.916,0,0,1,0-7.633,20.911,20.911,0,0,1,.179,3.816A20.379,20.379,0,0,1,499.024,486.616Z" transform="translate(-441.43 -470.872)"></path><path class="b" d="M512.178,486.616a40.729,40.729,0,0,1,0-7.633,20.734,20.734,0,0,1,.174,3.816A21.215,21.215,0,0,1,512.178,486.616Z" transform="translate(-447.17 -470.872)"></path><path class="b" d="M508.063,486.616a40.736,40.736,0,0,1,0-7.633,20.729,20.729,0,0,1,.174,3.816A21.277,21.277,0,0,1,508.063,486.616Z" transform="translate(-445.374 -470.872)"></path><path class="b" d="M483.907,478.685c0,.095-9.533.174-21.291.174s-21.3-.079-21.3-.174,9.533-.179,21.3-.179S483.907,478.561,483.907,478.685Z" transform="translate(-416.316 -470.664)"></path><rect class="e" width="42.388" height="7.697" transform="translate(28.665 15.743)"></rect><path class="b" d="M455.053,500.37a40.782,40.782,0,0,1,0-7.638,20.745,20.745,0,0,1,.174,3.821A21.21,21.21,0,0,1,455.053,500.37Z" transform="translate(-422.233 -476.874)"></path><path class="b" d="M450.938,500.37a40.782,40.782,0,0,1,0-7.638,41.978,41.978,0,0,1,0,7.638Z" transform="translate(-420.437 -476.874)"></path><path class="b" d="M464.091,500.37a41.971,41.971,0,0,1,0-7.638,20.991,20.991,0,0,1,.179,3.821A20.44,20.44,0,0,1,464.091,500.37Z" transform="translate(-426.181 -476.874)"></path><path class="b" d="M459.981,500.37a40.8,40.8,0,0,1,0-7.638,20.8,20.8,0,0,1,.174,3.821A21.268,21.268,0,0,1,459.981,500.37Z" transform="translate(-424.384 -476.874)"></path><path class="b" d="M473.133,500.37a41.971,41.971,0,0,1,0-7.638,41.964,41.964,0,0,1,0,7.638Z" transform="translate(-430.128 -476.874)"></path><path class="b" d="M469.018,500.37a41.964,41.964,0,0,1,0-7.638,40.789,40.789,0,0,1,0,7.638Z" transform="translate(-428.331 -476.874)"></path><path class="b" d="M482.172,500.37a40.782,40.782,0,0,1,0-7.638,20.8,20.8,0,0,1,.174,3.821A21.276,21.276,0,0,1,482.172,500.37Z" transform="translate(-434.071 -476.874)"></path><path class="b" d="M478.092,500.37a40.782,40.782,0,0,1,0-7.638,20.743,20.743,0,0,1,.174,3.821A23.715,23.715,0,0,1,478.092,500.37Z" transform="translate(-432.29 -476.874)"></path><path class="b" d="M491.209,500.37a41.971,41.971,0,0,1,0-7.638,20.991,20.991,0,0,1,.179,3.821A20.378,20.378,0,0,1,491.209,500.37Z" transform="translate(-438.018 -476.874)"></path><path class="b" d="M487.094,500.37a41.971,41.971,0,0,1,0-7.638,20.991,20.991,0,0,1,.179,3.821A20.381,20.381,0,0,1,487.094,500.37Z" transform="translate(-436.222 -476.874)"></path><path class="b" d="M500.248,500.37a40.782,40.782,0,0,1,0-7.638,20.8,20.8,0,0,1,.174,3.821A21.271,21.271,0,0,1,500.248,500.37Z" transform="translate(-441.962 -476.874)"></path><path class="b" d="M496.133,500.37a40.782,40.782,0,0,1,0-7.638,20.8,20.8,0,0,1,.174,3.821A21.276,21.276,0,0,1,496.133,500.37Z" transform="translate(-440.166 -476.874)"></path><path class="b" d="M509.285,500.37a41.956,41.956,0,0,1,0-7.638,21,21,0,0,1,.179,3.821A20.388,20.388,0,0,1,509.285,500.37Z" transform="translate(-445.909 -476.874)"></path><path class="b" d="M505.17,500.37a41.971,41.971,0,0,1,0-7.638,20.993,20.993,0,0,1,.179,3.821A20.383,20.383,0,0,1,505.17,500.37Z" transform="translate(-444.113 -476.874)"></path><path class="b" d="M518.324,500.37a40.8,40.8,0,0,1,0-7.638,20.8,20.8,0,0,1,.174,3.821A21.21,21.21,0,0,1,518.324,500.37Z" transform="translate(-449.853 -476.874)"></path><path class="b" d="M514.209,500.37a40.8,40.8,0,0,1,0-7.638,20.8,20.8,0,0,1,.174,3.821A21.21,21.21,0,0,1,514.209,500.37Z" transform="translate(-448.056 -476.874)"></path><path class="b" d="M489.976,492.394c0,.1-9.559.179-21.341.179s-21.346-.079-21.346-.179,9.553-.174,21.346-.174S489.976,492.3,489.976,492.394Z" transform="translate(-418.922 -476.651)"></path><rect class="e" width="42.388" height="7.697" transform="translate(25.342 23.381)"></rect><path class="b" d="M449.158,513.925a41.972,41.972,0,0,1,0-7.638,20.911,20.911,0,0,1,.179,3.816A20.457,20.457,0,0,1,449.158,513.925Z" transform="translate(-419.662 -482.791)"></path><path class="b" d="M445.043,513.925a41.965,41.965,0,0,1,0-7.638,20.911,20.911,0,0,1,.179,3.816A20.46,20.46,0,0,1,445.043,513.925Z" transform="translate(-417.866 -482.791)"></path><path class="b" d="M458.2,513.925a40.79,40.79,0,0,1,0-7.638,20.726,20.726,0,0,1,.174,3.816A21.294,21.294,0,0,1,458.2,513.925Z" transform="translate(-423.606 -482.791)"></path><path class="b" d="M454.082,513.925a40.783,40.783,0,0,1,0-7.638,20.732,20.732,0,0,1,.174,3.816A21.294,21.294,0,0,1,454.082,513.925Z" transform="translate(-421.809 -482.791)"></path><path class="b" d="M467.234,513.925a41.972,41.972,0,0,1,0-7.638,20.911,20.911,0,0,1,.179,3.816A20.457,20.457,0,0,1,467.234,513.925Z" transform="translate(-427.553 -482.791)"></path><path class="b" d="M463.084,513.925a41.979,41.979,0,0,1,0-7.638,20.911,20.911,0,0,1,.179,3.816A18.621,18.621,0,0,1,463.084,513.925Z" transform="translate(-425.741 -482.791)"></path><path class="b" d="M476.273,513.925a40.783,40.783,0,0,1,0-7.638,20.676,20.676,0,0,1,.174,3.816A21.3,21.3,0,0,1,476.273,513.925Z" transform="translate(-431.496 -482.791)"></path><path class="b" d="M472.158,513.925a40.783,40.783,0,0,1,0-7.638,20.726,20.726,0,0,1,.174,3.816A21.294,21.294,0,0,1,472.158,513.925Z" transform="translate(-429.7 -482.791)"></path><path class="b" d="M485.311,513.925a41.833,41.833,0,0,1,0-7.638,21.008,21.008,0,0,1,.179,3.816A20.549,20.549,0,0,1,485.311,513.925Z" transform="translate(-435.443 -482.791)"></path><path class="b" d="M481.2,513.925a41.833,41.833,0,0,1,0-7.638,21.008,21.008,0,0,1,.179,3.816A20.555,20.555,0,0,1,481.2,513.925Z" transform="translate(-433.647 -482.791)"></path><path class="b" d="M494.349,513.925a40.783,40.783,0,0,1,0-7.638,41.972,41.972,0,0,1,0,7.638Z" transform="translate(-439.387 -482.791)"></path><path class="b" d="M490.238,513.925a41.972,41.972,0,0,1,0-7.638,20.661,20.661,0,0,1,.174,3.816A18.425,18.425,0,0,1,490.238,513.925Z" transform="translate(-437.595 -482.791)"></path><path class="b" d="M503.387,513.925a41.826,41.826,0,0,1,0-7.638,21.009,21.009,0,0,1,.179,3.816A20.554,20.554,0,0,1,503.387,513.925Z" transform="translate(-443.334 -482.791)"></path><path class="b" d="M499.285,513.925a40.783,40.783,0,0,1,0-7.638,20.668,20.668,0,0,1,.174,3.816A21.875,21.875,0,0,1,499.285,513.925Z" transform="translate(-441.542 -482.791)"></path><path class="b" d="M512.429,513.925a41.965,41.965,0,0,1,0-7.638,40.783,40.783,0,0,1,0,7.638Z" transform="translate(-447.282 -482.791)"></path><path class="b" d="M508.314,513.925a41.972,41.972,0,0,1,0-7.638,20.913,20.913,0,0,1,.179,3.816A20.465,20.465,0,0,1,508.314,513.925Z" transform="translate(-445.485 -482.791)"></path><path class="b" d="M484.158,505.949c0,.1-9.533.174-21.291.174s-21.291-.075-21.291-.174,9.528-.174,21.291-.174S484.158,505.849,484.158,505.949Z" transform="translate(-416.428 -482.568)"></path><rect class="e" width="42.388" height="7.697" transform="translate(29.591 31.188)"></rect><path class="b" d="M456.7,527.78a40.783,40.783,0,0,1,0-7.638,20.768,20.768,0,0,1,.174,3.816A19.351,19.351,0,0,1,456.7,527.78Z" transform="translate(-422.95 -488.839)"></path><path class="b" d="M452.581,527.78a40.789,40.789,0,0,1,0-7.638,20.77,20.77,0,0,1,.174,3.816A21.4,21.4,0,0,1,452.581,527.78Z" transform="translate(-421.154 -488.839)"></path><path class="b" d="M465.733,527.78a41.957,41.957,0,0,1,0-7.638,20.961,20.961,0,0,1,.179,3.816A20.511,20.511,0,0,1,465.733,527.78Z" transform="translate(-426.897 -488.839)"></path><path class="b" d="M461.618,527.78a41.971,41.971,0,0,1,0-7.638,20.957,20.957,0,0,1,.179,3.816A20.5,20.5,0,0,1,461.618,527.78Z" transform="translate(-425.101 -488.839)"></path><path class="b" d="M474.776,527.78a41.971,41.971,0,0,1,0-7.638,41.971,41.971,0,0,1,0,7.638Z" transform="translate(-430.845 -488.839)"></path><path class="b" d="M470.661,527.78a41.971,41.971,0,0,1,0-7.638,41.964,41.964,0,0,1,0,7.638Z" transform="translate(-429.049 -488.839)"></path><path class="b" d="M483.814,527.78a40.789,40.789,0,0,1,0-7.638,20.709,20.709,0,0,1,.174,3.816A21.341,21.341,0,0,1,483.814,527.78Z" transform="translate(-434.788 -488.839)"></path><path class="b" d="M479.7,527.78a40.783,40.783,0,0,1,0-7.638,20.711,20.711,0,0,1,.174,3.816A21.918,21.918,0,0,1,479.7,527.78Z" transform="translate(-432.992 -488.839)"></path><path class="b" d="M492.852,527.78a41.971,41.971,0,0,1,0-7.638,20.957,20.957,0,0,1,.179,3.816A20.564,20.564,0,0,1,492.852,527.78Z" transform="translate(-438.736 -488.839)"></path><path class="b" d="M488.737,527.78a41.971,41.971,0,0,1,0-7.638,20.957,20.957,0,0,1,.179,3.816A20.561,20.561,0,0,1,488.737,527.78Z" transform="translate(-436.939 -488.839)"></path><path class="b" d="M501.934,527.78a40.783,40.783,0,0,1,0-7.638,20.716,20.716,0,0,1,.174,3.816A24.52,24.52,0,0,1,501.934,527.78Z" transform="translate(-442.698 -488.839)"></path><path class="b" d="M497.775,527.78a40.783,40.783,0,0,1,0-7.638,20.716,20.716,0,0,1,.174,3.816A21.344,21.344,0,0,1,497.775,527.78Z" transform="translate(-440.883 -488.839)"></path><path class="b" d="M510.928,527.78a41.971,41.971,0,0,1,0-7.638,20.957,20.957,0,0,1,.179,3.816A20.554,20.554,0,0,1,510.928,527.78Z" transform="translate(-446.626 -488.839)"></path><path class="b" d="M506.813,527.78a41.971,41.971,0,0,1,0-7.638,20.959,20.959,0,0,1,.179,3.816A20.566,20.566,0,0,1,506.813,527.78Z" transform="translate(-444.83 -488.839)"></path><path class="b" d="M519.966,527.78a40.8,40.8,0,0,1,0-7.638,20.711,20.711,0,0,1,.174,3.816A21.339,21.339,0,0,1,519.966,527.78Z" transform="translate(-450.57 -488.839)"></path><path class="b" d="M515.851,527.78a40.8,40.8,0,0,1,0-7.638,20.711,20.711,0,0,1,.174,3.816A18.894,18.894,0,0,1,515.851,527.78Z" transform="translate(-448.773 -488.839)"></path><path class="b" d="M491.7,519.8c0,.1-9.533.179-21.291.179s-21.291-.079-21.291-.179,9.528-.174,21.291-.174S491.7,519.709,491.7,519.8Z" transform="translate(-419.72 -488.616)"></path><rect class="e" width="42.388" height="7.697" transform="translate(26.934 38.975)"></rect><path class="b" d="M451.98,541.595a40.729,40.729,0,0,1,0-7.633,20.664,20.664,0,0,1,.174,3.816A21.213,21.213,0,0,1,451.98,541.595Z" transform="translate(-420.892 -494.872)"></path><path class="b" d="M447.865,541.595a40.729,40.729,0,0,1,0-7.633,20.667,20.667,0,0,1,.174,3.816A19.24,19.24,0,0,1,447.865,541.595Z" transform="translate(-419.095 -494.872)"></path><path class="b" d="M461.018,541.595a41.916,41.916,0,0,1,0-7.633,20.91,20.91,0,0,1,.179,3.816A20.438,20.438,0,0,1,461.018,541.595Z" transform="translate(-424.839 -494.872)"></path><path class="b" d="M456.9,541.595a41.916,41.916,0,0,1,0-7.633,20.912,20.912,0,0,1,.179,3.816A20.443,20.443,0,0,1,456.9,541.595Z" transform="translate(-423.043 -494.872)"></path><path class="b" d="M470.056,541.595a40.742,40.742,0,0,1,0-7.633,20.664,20.664,0,0,1,.174,3.816A21.213,21.213,0,0,1,470.056,541.595Z" transform="translate(-428.782 -494.872)"></path><path class="b" d="M465.941,541.595a40.736,40.736,0,0,1,0-7.633,20.662,20.662,0,0,1,.174,3.816A21.211,21.211,0,0,1,465.941,541.595Z" transform="translate(-426.986 -494.872)"></path><path class="b" d="M479.094,541.595a41.908,41.908,0,0,1,0-7.633,20.914,20.914,0,0,1,.179,3.816A20.441,20.441,0,0,1,479.094,541.595Z" transform="translate(-432.73 -494.872)"></path><path class="b" d="M474.979,541.595a41.916,41.916,0,0,1,0-7.633,20.91,20.91,0,0,1,.179,3.816A20.438,20.438,0,0,1,474.979,541.595Z" transform="translate(-430.934 -494.872)"></path><path class="b" d="M488.132,541.595a40.729,40.729,0,0,1,0-7.633,41.916,41.916,0,0,1,0,7.633Z" transform="translate(-436.673 -494.872)"></path><path class="b" d="M484.021,541.595a41.908,41.908,0,0,1,0-7.633,41.908,41.908,0,0,1,0,7.633Z" transform="translate(-434.881 -494.872)"></path><path class="b" d="M497.175,541.595a40.729,40.729,0,0,1,0-7.633,20.725,20.725,0,0,1,.174,3.816A21.277,21.277,0,0,1,497.175,541.595Z" transform="translate(-440.621 -494.872)"></path><path class="b" d="M493.1,541.595a40.729,40.729,0,0,1,0-7.633,20.728,20.728,0,0,1,.174,3.816A24.442,24.442,0,0,1,493.1,541.595Z" transform="translate(-438.844 -494.872)"></path><path class="b" d="M506.212,541.595a41.916,41.916,0,0,1,0-7.633,20.378,20.378,0,0,1,.179,3.816A22.61,22.61,0,0,1,506.212,541.595Z" transform="translate(-444.568 -494.872)"></path><path class="b" d="M502.1,541.595a41.916,41.916,0,0,1,0-7.633,20.91,20.91,0,0,1,.179,3.816A20.382,20.382,0,0,1,502.1,541.595Z" transform="translate(-442.771 -494.872)"></path><path class="b" d="M515.251,541.595a40.729,40.729,0,0,1,0-7.633,20.737,20.737,0,0,1,.174,3.816A21.286,21.286,0,0,1,515.251,541.595Z" transform="translate(-448.511 -494.872)"></path><path class="b" d="M511.136,541.595a40.729,40.729,0,0,1,0-7.633,20.725,20.725,0,0,1,.174,3.816A21.277,21.277,0,0,1,511.136,541.595Z" transform="translate(-446.715 -494.872)"></path><path class="b" d="M486.9,533.62c0,.094-9.559.174-21.346.174s-21.341-.08-21.341-.174,9.553-.179,21.341-.179S486.9,533.515,486.9,533.62Z" transform="translate(-417.581 -494.645)"></path><rect class="e" width="42.388" height="7.697" transform="translate(23.61 46.608)"></rect><path class="b" d="M446.082,555.146a40.914,40.914,0,0,1,0-7.638,20.719,20.719,0,0,1,.175,3.821A18.34,18.34,0,0,1,446.082,555.146Z" transform="translate(-418.317 -500.785)"></path><path class="b" d="M441.97,555.146a41.971,41.971,0,0,1,0-7.638,41.832,41.832,0,0,1,0,7.638Z" transform="translate(-416.524 -500.785)"></path><path class="b" d="M455.137,555.146a41.971,41.971,0,0,1,0-7.638,21.049,21.049,0,0,1,.179,3.821A21.472,21.472,0,0,1,455.137,555.146Z" transform="translate(-422.272 -500.785)"></path><path class="b" d="M451.009,555.146a40.783,40.783,0,0,1,0-7.638,20.8,20.8,0,0,1,.174,3.821A21.212,21.212,0,0,1,451.009,555.146Z" transform="translate(-420.468 -500.785)"></path><path class="b" d="M464.161,555.146a41.971,41.971,0,0,1,0-7.638,40.783,40.783,0,0,1,0,7.638Z" transform="translate(-426.211 -500.785)"></path><path class="b" d="M460.046,555.146a41.971,41.971,0,0,1,0-7.638,20.987,20.987,0,0,1,.179,3.821A20.378,20.378,0,0,1,460.046,555.146Z" transform="translate(-424.415 -500.785)"></path><path class="b" d="M473.2,555.146a40.789,40.789,0,0,1,0-7.638,20.8,20.8,0,0,1,.174,3.821A21.21,21.21,0,0,1,473.2,555.146Z" transform="translate(-430.155 -500.785)"></path><path class="b" d="M469.085,555.146a40.783,40.783,0,0,1,0-7.638,41.971,41.971,0,0,1,0,7.638Z" transform="translate(-428.359 -500.785)"></path><path class="b" d="M482.238,555.146a41.832,41.832,0,0,1,0-7.638,21.083,21.083,0,0,1,.179,3.821A20.473,20.473,0,0,1,482.238,555.146Z" transform="translate(-434.102 -500.785)"></path><path class="b" d="M478.1,555.146a41.971,41.971,0,0,1,0-7.638,20.987,20.987,0,0,1,.179,3.821A18.992,18.992,0,0,1,478.1,555.146Z" transform="translate(-432.294 -500.785)"></path><path class="b" d="M491.276,555.146a40.783,40.783,0,0,1,0-7.638,20.745,20.745,0,0,1,.174,3.821A21.212,21.212,0,0,1,491.276,555.146Z" transform="translate(-438.046 -500.785)"></path><path class="b" d="M487.161,555.146a40.783,40.783,0,0,1,0-7.638,20.742,20.742,0,0,1,.174,3.821A21.212,21.212,0,0,1,487.161,555.146Z" transform="translate(-436.249 -500.785)"></path><path class="b" d="M500.314,555.146a41.832,41.832,0,0,1,0-7.638,21.083,21.083,0,0,1,.179,3.821A20.469,20.469,0,0,1,500.314,555.146Z" transform="translate(-441.993 -500.785)"></path><path class="b" d="M496.2,555.146a41.832,41.832,0,0,1,0-7.638,21.083,21.083,0,0,1,.179,3.821A20.469,20.469,0,0,1,496.2,555.146Z" transform="translate(-440.196 -500.785)"></path><path class="b" d="M509.352,555.146a40.783,40.783,0,0,1,0-7.638,20.737,20.737,0,0,1,.174,3.821A21.21,21.21,0,0,1,509.352,555.146Z" transform="translate(-445.936 -500.785)"></path><path class="b" d="M505.237,555.146a40.783,40.783,0,0,1,0-7.638,41.971,41.971,0,0,1,0,7.638Z" transform="translate(-444.14 -500.785)"></path><path class="b" d="M481.085,547.17c0,.1-9.533.179-21.291.179s-21.291-.079-21.291-.179,9.528-.174,21.291-.174S481.085,547.075,481.085,547.17Z" transform="translate(-415.087 -500.562)"></path><g class="h" transform="translate(28.666 15.743)"><path d="M447.819,492.529a64.828,64.828,0,0,0,19.58,1.428c6.5-.428,13.076-1.393,19.594-1.313Z" transform="translate(-447.819 -492.529)"></path></g><g class="h" transform="translate(29.049 8.081)"><path d="M448.5,478.93a64.664,64.664,0,0,0,19.58,1.428c6.5-.433,13.071-1.388,19.589-1.313Z" transform="translate(-448.499 -478.93)"></path></g><g class="h" transform="translate(31.099 23.446)"><path d="M452.137,506.2a64.876,64.876,0,0,0,19.585,1.423c6.508-.433,13.071-1.388,19.589-1.308Z" transform="translate(-452.137 -506.199)"></path></g><g class="h" transform="translate(29.436 31.143)"><path d="M449.187,519.859a64.7,64.7,0,0,0,19.58,1.423c6.5-.433,13.076-1.388,19.595-1.308Z" transform="translate(-449.187 -519.859)"></path></g><g class="h" transform="translate(29.944 38.796)"><path d="M450.088,533.441a64.667,64.667,0,0,0,19.58,1.423c6.5-.433,13.071-1.388,19.59-1.308Z" transform="translate(-450.088 -533.441)"></path></g><g class="h" transform="translate(27.889 46.598)"><path d="M446.441,547.287a64.817,64.817,0,0,0,19.58,1.423c6.509-.433,13.071-1.388,19.59-1.308Z" transform="translate(-446.441 -547.287)"></path></g><path class="d" d="M447.839,470.976a12.478,12.478,0,0,1,0-4.214,6.445,6.445,0,0,1,.174,2.11A6.572,6.572,0,0,1,447.839,470.976Z" transform="translate(-419.084 -465.538)"></path><path class="d" d="M443.1,485.334a14.36,14.36,0,0,1,0-4.523,7.3,7.3,0,0,1,.174,2.264A7.422,7.422,0,0,1,443.1,485.334Z" transform="translate(-417.014 -471.67)"></path><path class="d" d="M449.838,499.8a11.462,11.462,0,0,1,0-3.98,5.851,5.851,0,0,1,.179,1.99A5.565,5.565,0,0,1,449.838,499.8Z" transform="translate(-419.959 -478.223)"></path><path class="d" d="M442.915,513.055a9.38,9.38,0,0,1,0-3.6,9.377,9.377,0,0,1,0,3.6Z" transform="translate(-416.937 -484.175)"></path><path class="d" d="M459.769,479.763a139.97,139.97,0,0,1-13.981,0,68.386,68.386,0,0,1,6.991-.179A65.054,65.054,0,0,1,459.769,479.763Z" transform="translate(-418.267 -471.135)"></path><path class="d" d="M467.715,466.627a138.5,138.5,0,0,1-14.086,0,70.129,70.129,0,0,1,7.046-.174C464.566,466.453,467.715,466.532,467.715,466.627Z" transform="translate(-421.69 -465.403)"></path><path class="d" d="M487.088,466.812a15.459,15.459,0,0,1-4.627,0,15.459,15.459,0,0,1,4.627,0Z" transform="translate(-434.276 -465.483)"></path><path class="d" d="M450.43,528.545a33.553,33.553,0,0,1,0-5.886A33.559,33.559,0,0,1,450.43,528.545Z" transform="translate(-420.237 -489.938)"></path><path class="d" d="M481.019,518.223c0,.074-7.708.13-17.211.13s-17.216-.055-17.216-.13,7.708-.13,17.216-.13S481.019,518.153,481.019,518.223Z" transform="translate(-418.617 -487.945)"></path><path class="d" d="M474.39,545.836c0,.074-6.09.129-13.6.129s-13.6-.055-13.6-.129,6.09-.13,13.6-.13S474.39,545.756,474.39,545.836Z" transform="translate(-418.876 -499.999)"></path><path class="d" d="M439.789,555.72a10.777,10.777,0,0,1,0-3.329A10.775,10.775,0,0,1,439.789,555.72Z" transform="translate(-415.592 -502.917)"></path><path class="d" d="M471.253,559.417c0,.075-6.319.13-14.106.13s-14.107-.055-14.107-.13,6.314-.129,14.107-.129S471.253,559.348,471.253,559.417Z" transform="translate(-417.068 -505.928)"></path><path class="b" d="M438.813,536.992a.483.483,0,0,1,0-.14v-1.96c0-1.373-.03-3.309-.044-5.667v-.1h3.124l-.114.114v-7.817h2.931l-.129.13v-7.807l.114.119h-4.2v-.1c0-2.338.035-4.259.045-5.618,0-.647,0-1.164.025-1.542v-.4a.07.07,0,1,1,.03,0v.4c0,.378,0,.9.03,1.542,0,1.359.025,3.279.045,5.618l-.1-.1h4.215v8.056h-2.931l.13-.13v7.8h-.114l-3.025-.045.1-.1c0,2.358-.034,4.294-.045,5.667,0,.656,0,1.174-.03,1.557v.4A.505.505,0,0,1,438.813,536.992Z" transform="translate(-415.202 -482.696)"></path></g></g></svg>