<svg xmlns="http://www.w3.org/2000/svg" width="526" height="332.454" viewBox="0 0 526 332.454"><defs><style>.a,.q{fill:#e0e0e0;}.b{fill:#ebebeb;}.c{fill:#fafafa;}.d,.s,.t{fill:#fff;}.e,.x{fill:#f5f5f5;}.f{fill:#f24a46;}.g,.u{opacity:0.4;}.h{opacity:0.2;}.i,.l{opacity:0.3;}.j,.o{fill:#263238;}.k,.u{isolation:isolate;}.m{fill:#455a64;}.n{opacity:0.5;}.o{font-size:9px;}.o,.r,.s,.t{font-family:Montserrat-Regular, Montserrat;}.p,.q,.x{font-family:Montserrat-Bold, Montserrat;font-weight:700;}.q{font-size:2px;}.r{font-weight:400;}.s{font-size:1px;}.t{font-size:5px;}.v{fill:#936760;}.w{fill:#6f4c47;}.x{font-size:11px;}</style></defs><g transform="translate(-102.998 -102.022)"><g transform="translate(115.462 119.973)"><rect class="a" width="77.573" height="128.405" transform="translate(423.731 20.309)"></rect><rect class="b" width="77.573" height="128.405" transform="translate(421.156 20.309)"></rect><rect class="c" width="70.964" height="123.194" transform="translate(424.457 22.914)"></rect><rect class="b" width="43.638" height="91.184" transform="translate(437.964 38.923)"></rect><path class="a" d="M711.578,246.655c-.1-8.519,7.564-16.831,15.994-18.022,4.026-.562,8.3.229,12.057-1.31,6.706-2.746,8.837-11.664,15.587-14.307l.311,65.908H711.578Z" transform="translate(-273.614 -148.817)"></path><rect class="a" width="53.2" height="55.45" transform="translate(71.415 0.044)"></rect><rect class="c" width="53.193" height="55.45" transform="translate(67.818 0.044)"></rect><path class="a" d="M264.668,181.786h-53.23v-55.51h53.23Zm-53.193,0h53.163v-55.45H211.475Z" transform="translate(-143.642 -126.276)"></path><rect class="d" width="38.894" height="40.544" transform="translate(74.968 7.497)"></rect><path class="a" d="M218.636,191.546a6.537,6.537,0,0,1-.962,1.118c-.622.659-1.48,1.539-2.472,2.509s-1.88,1.821-2.539,2.428a6.543,6.543,0,0,1-1.125.94,5.745,5.745,0,0,1,.955-1.11c.622-.659,1.48-1.547,2.479-2.516s1.88-1.828,2.546-2.435A6.126,6.126,0,0,1,218.636,191.546Z" transform="translate(-143.668 -143.238)"></path><path class="a" d="M273.678,191.416a6.65,6.65,0,0,1,1.118.955c.651.622,1.539,1.48,2.5,2.472s1.828,1.88,2.435,2.546a6.333,6.333,0,0,1,.94,1.125,6.256,6.256,0,0,1-1.118-.955c-.651-.622-1.539-1.48-2.509-2.479s-1.828-1.88-2.435-2.546A6.45,6.45,0,0,1,273.678,191.416Z" transform="translate(-159.817 -143.204)"></path><path class="a" d="M273.538,134.093a5.746,5.746,0,0,1,.955-1.11c.622-.659,1.48-1.547,2.472-2.509s1.88-1.821,2.546-2.435a5.735,5.735,0,0,1,1.125-.933,7.22,7.22,0,0,1-.955,1.11c-.622.659-1.48,1.547-2.479,2.509s-1.887,1.828-2.546,2.442A6.116,6.116,0,0,1,273.538,134.093Z" transform="translate(-159.78 -126.492)"></path><path class="a" d="M218.525,134.194a6.709,6.709,0,0,1-1.11-.962c-.659-.622-1.547-1.48-2.509-2.472s-1.821-1.88-2.435-2.539a6.291,6.291,0,0,1-.933-1.125,5.745,5.745,0,0,1,1.11.955c.659.622,1.547,1.48,2.509,2.479s1.828,1.88,2.442,2.546A5.825,5.825,0,0,1,218.525,134.194Z" transform="translate(-143.668 -126.489)"></path><path class="a" d="M259.9,176.849a1.293,1.293,0,0,1,0-.2V165.606c0-7.105-.044-17.223-.081-29.331l.155.148h-38.79l.17-.17V176.8l-.148-.148,28.088.074,7.882.037h.067l-7.86.044-28.177.074h-.148V136.016h39.108v.148c0,12.153-.059,22.3-.074,29.428,0,3.53-.037,6.313-.044,8.223v2.709A.735.735,0,0,1,259.9,176.849Z" transform="translate(-146.142 -128.807)"></path><rect class="b" width="12.982" height="12.982" transform="translate(87.927 21.279)"></rect><rect class="a" width="51.705" height="74.945" transform="translate(2.59 39.878)"></rect><rect class="e" width="51.705" height="74.945" transform="translate(0 39.878)"></rect><rect class="d" width="38.857" height="58.714" transform="translate(6.424 47.99)"></rect><path class="a" d="M167.361,249.739V233.309c0-10.362,0-25.016-.067-42.284l.133.133H128.5l.141-.141v58.714l-.118-.111,28.288.059h.1l-28.354.059h-.111V190.766h39.131v.126c0,17.3-.044,32-.059,42.365,0,5.181,0,9.259-.037,12.072v4.012A1,1,0,0,1,167.361,249.739Z" transform="translate(-122.073 -143.035)"></path><path class="a" d="M187.4,180.156a9.1,9.1,0,0,1-.888,1.354c-.6.8-1.48,1.895-2.428,3.072s-1.88,2.22-2.553,2.961a9.392,9.392,0,0,1-1.14,1.162,9.7,9.7,0,0,1,.984-1.273l2.494-3.02,2.487-3.02A9.194,9.194,0,0,1,187.4,180.156Z" transform="translate(-135.573 -140.278)"></path><path class="d" d="M181.3,270.2a47.629,47.629,0,0,0,6.772,8.474" transform="translate(-135.81 -163.677)"></path><path class="a" d="M188.081,278.67A7.194,7.194,0,0,1,186.9,277.6a37.447,37.447,0,0,1-2.561-2.887,31.39,31.39,0,0,1-2.22-3.123,7.21,7.21,0,0,1-.785-1.391,11.261,11.261,0,0,1,.947,1.28c.57.8,1.377,1.887,2.309,3.064s1.828,2.22,2.479,2.923A9.619,9.619,0,0,1,188.081,278.67Z" transform="translate(-135.82 -163.677)"></path><path class="d" d="M119.858,278.4l6.772-8.356" transform="translate(-119.843 -163.638)"></path><path class="a" d="M126.608,270.046a49.706,49.706,0,0,1-3.271,4.271,49.976,49.976,0,0,1-3.479,4.086,53.161,53.161,0,0,1,3.279-4.263A44.688,44.688,0,0,1,126.608,270.046Z" transform="translate(-119.843 -163.637)"></path><path class="a" d="M119.858,180.156a45.238,45.238,0,0,1,3.294,3.93,48.2,48.2,0,0,1,3.049,4.085,46.172,46.172,0,0,1-3.286-3.93A48.17,48.17,0,0,1,119.858,180.156Z" transform="translate(-119.843 -140.278)"></path><rect class="a" width="13.011" height="36.947" transform="translate(20.169 59.913)"></rect></g><g transform="translate(536.379 166.44)"><circle class="f" cx="44.045" cy="44.045" r="44.045" transform="translate(3.996 4.518)"></circle><g class="g" transform="translate(3.996 4.518)"><circle cx="44.045" cy="44.045" r="44.045"></circle></g><circle class="f" cx="44.045" cy="44.045" r="44.045" transform="translate(0.423 0.519)"></circle><g class="h" transform="translate(2.425 3.012)"><ellipse class="d" cx="33.557" cy="32.729" rx="33.557" ry="32.729" transform="translate(0 19.824) rotate(-17.18)"></ellipse></g><path class="c" d="M746.59,276.417A33.543,33.543,0,0,1,704.935,255.2c.089.311.163.614.259.925A33.55,33.55,0,0,0,769.3,236.3c-.1-.3-.207-.607-.311-.91A33.536,33.536,0,0,1,746.59,276.417Z" transform="translate(-692.805 -201.099)"></path><g class="i" transform="translate(10.321 9.717)"><path d="M726.7,205.521a33.528,33.528,0,0,1,41.647,21.227c-.081-.3-.163-.614-.259-.918A33.545,33.545,0,1,0,704,245.651c.1.3.2.607.3.9A33.535,33.535,0,0,1,726.7,205.521Z" transform="translate(-702.49 -202.187)"></path></g><path class="c" d="M768.2,207.039c-.089.067-1.243-1.48-3.7-3.96a44.075,44.075,0,0,0-32.995-12.93,43.238,43.238,0,0,0-12.582,2.361,43.791,43.791,0,0,0-21.6,16.335A42.518,42.518,0,0,0,694,214.477a41.9,41.9,0,0,0-2.354,5.817,44.118,44.118,0,0,0,3.486,35.267c1.71,3.042,2.9,4.574,2.805,4.641a5.739,5.739,0,0,1-.91-1.073c-.3-.363-.636-.814-1.014-1.377s-.829-1.2-1.266-1.961a42.775,42.775,0,0,1-5.366-13.863,45.251,45.251,0,0,1-.807-10.288,44.605,44.605,0,0,1,2.058-11.672A42.114,42.114,0,0,1,693.008,214a43.4,43.4,0,0,1,3.382-5.8,44.75,44.75,0,0,1,4.389-5.388,44.084,44.084,0,0,1,11.383-8.615,43.377,43.377,0,0,1,6.38-2.761,44.331,44.331,0,0,1,34.349,2.405,42.647,42.647,0,0,1,11.886,8.919c.614.629,1.11,1.236,1.539,1.754s.792.97,1.058,1.347A5.787,5.787,0,0,1,768.2,207.039Z" transform="translate(-688.545 -189.058)"></path><path class="j" d="M752.086,312.754a18.419,18.419,0,0,1-3.5-3.982A18.463,18.463,0,0,1,752.086,312.754Z" transform="translate(-704.148 -220.168)"></path><path class="j" d="M741.915,311.751a17.245,17.245,0,0,1-3.36-3.819,8.888,8.888,0,0,1,1.828,1.784A8.7,8.7,0,0,1,741.915,311.751Z" transform="translate(-701.541 -219.95)"></path><path class="j" d="M732.255,309.351a8.477,8.477,0,0,1-1.821-1.784,8.773,8.773,0,0,1-1.539-2.035,8.459,8.459,0,0,1,1.828,1.784A8.7,8.7,0,0,1,732.255,309.351Z" transform="translate(-699.031 -219.326)"></path><path class="j" d="M762.476,311.934a9.349,9.349,0,0,1-1.895-1.865,9.123,9.123,0,0,1-1.606-2.117,9.142,9.142,0,0,1,1.895,1.865A9.327,9.327,0,0,1,762.476,311.934Z" transform="translate(-706.848 -219.955)"></path><path class="j" d="M771.8,309.481a9.071,9.071,0,0,1-1.9-1.865,9.348,9.348,0,0,1-1.606-2.124,19.033,19.033,0,0,1,3.508,3.989Z" transform="translate(-709.27 -219.316)"></path><path class="j" d="M780.6,305.564A9.142,9.142,0,0,1,778.7,303.7a9.327,9.327,0,0,1-1.606-2.117,9.348,9.348,0,0,1,1.895,1.865A9.141,9.141,0,0,1,780.6,305.564Z" transform="translate(-711.557 -218.299)"></path><path class="j" d="M788.406,300.751a9.85,9.85,0,0,1-1.895-1.865,9.085,9.085,0,0,1-1.606-2.124,9.369,9.369,0,0,1,1.895,1.865A9.106,9.106,0,0,1,788.406,300.751Z" transform="translate(-713.586 -217.047)"></path><path class="j" d="M795.513,294.331a9.292,9.292,0,0,1-1.9-1.865,9.088,9.088,0,0,1-1.606-2.124,9.423,9.423,0,0,1,1.895,1.865A9.54,9.54,0,0,1,795.513,294.331Z" transform="translate(-715.432 -215.378)"></path><path class="j" d="M801.333,287.091a18.551,18.551,0,0,1-3.508-3.989,9.292,9.292,0,0,1,1.9,1.865A9.107,9.107,0,0,1,801.333,287.091Z" transform="translate(-716.944 -213.497)"></path><path class="j" d="M805.623,279.874a8.947,8.947,0,0,1-1.895-1.865,9.786,9.786,0,0,1-1.614-2.117,9.07,9.07,0,0,1,1.9,1.865A9.325,9.325,0,0,1,805.623,279.874Z" transform="translate(-718.059 -211.623)"></path><path class="j" d="M809.216,271.754a18.451,18.451,0,0,1-3.5-3.982,18.449,18.449,0,0,1,3.5,3.982Z" transform="translate(-718.994 -209.513)"></path><path class="j" d="M811.666,262.934a18.447,18.447,0,0,1-3.5-3.982,9.143,9.143,0,0,1,1.895,1.865A9.328,9.328,0,0,1,811.666,262.934Z" transform="translate(-719.631 -207.221)"></path><path class="j" d="M812.453,253.421a9.422,9.422,0,0,1-1.895-1.865,9.519,9.519,0,0,1-1.614-2.124,9.564,9.564,0,0,1,1.9,1.865A9.35,9.35,0,0,1,812.453,253.421Z" transform="translate(-719.834 -204.747)"></path><path class="j" d="M811.438,243.35a13.384,13.384,0,0,1-2.272-2.294,14.058,14.058,0,0,1-1.991-2.553,13.985,13.985,0,0,1,2.28,2.294A13.671,13.671,0,0,1,811.438,243.35Z" transform="translate(-719.374 -201.907)"></path><path class="j" d="M807.368,230.21a13.714,13.714,0,0,1-2.272-2.294,14.056,14.056,0,0,1-1.991-2.553,13.986,13.986,0,0,1,2.28,2.294A13.424,13.424,0,0,1,807.368,230.21Z" transform="translate(-718.316 -198.492)"></path><g transform="translate(27.741 24.042)"><g class="k"><g class="i" transform="translate(6.787)"><path d="M735.2,221.541l1.644.387,2.493,4.235-1.644-.387Z" transform="translate(-735.198 -221.541)"></path></g><g class="i" transform="translate(6.9 11.733)"><path d="M738.96,243.432l-1.644-.387a2.292,2.292,0,0,1-1.537-1.085c-.756-1.281-.6-2.9,1.176-4.566l1.643.386c-1.774,1.67-1.932,3.285-1.175,4.567A2.3,2.3,0,0,0,738.96,243.432Z" transform="translate(-735.35 -237.394)"></path></g><g class="i" transform="translate(12.305 9.368)"><path d="M742.653,234.2l1.644.387,3.9,6.593-1.644-.387Z" transform="translate(-742.653 -234.198)"></path></g><g transform="translate(6.104 22.951)"><path class="f" d="M735.919,254.048l-1.644-.386a9.48,9.48,0,0,0,2.309.232,24.886,24.886,0,0,0,6.7-1.344l1.644.387a24.891,24.891,0,0,1-6.7,1.343A9.476,9.476,0,0,1,735.919,254.048Z" transform="translate(-734.275 -252.55)"></path></g><g class="i" transform="translate(12.305 7.868)"><path d="M749.787,232.172l1.644.386a18.59,18.59,0,0,0-7.134,1.5l-1.644-.386A18.593,18.593,0,0,1,749.787,232.172Z" transform="translate(-742.653 -232.172)"></path></g><g class="i" transform="translate(18.553 1.939)"><path d="M751.1,224.161l1.644.387.886,5.929-1.644-.387Z" transform="translate(-751.095 -224.161)"></path></g><g transform="translate(19.58 21.402)"><path class="l" d="M755.285,250.558l1.644.386a4.347,4.347,0,0,0-1.047-.1,9.946,9.946,0,0,0-1.756.213l-1.644-.386a9.881,9.881,0,0,1,1.756-.213A4.31,4.31,0,0,1,755.285,250.558Z" transform="translate(-752.482 -250.457)"></path></g><g class="i" transform="translate(19.58 21.616)"><path d="M752.482,250.746l1.644.387,3.235,5.39-1.644-.387Z" transform="translate(-752.482 -250.746)"></path></g><g transform="translate(10.441 34.519)"><path class="l" d="M751.619,268.18l1.644.386a23.374,23.374,0,0,1-9.824,2.7,11.7,11.7,0,0,1-1.66-.088l-1.644-.386a11.713,11.713,0,0,0,1.661.088A23.385,23.385,0,0,0,751.619,268.18Z" transform="translate(-740.134 -268.18)"></path></g><g class="i" transform="translate(25.135 14.834)"><path d="M759.987,241.583l1.643.387a7.4,7.4,0,0,1,4.786,3.7l-1.644-.386A7.394,7.394,0,0,0,759.987,241.583Z" transform="translate(-759.987 -241.583)"></path></g><g transform="translate(25.779 32.1)"><path class="l" d="M760.858,264.911l1.644.387,2.561,4.314-1.644-.387Z" transform="translate(-760.858 -264.911)"></path></g><g transform="translate(24.458 36.414)"><path class="l" d="M762.955,270.74l1.644.387-3.882,2.3-1.644-.387Z" transform="translate(-759.073 -270.74)"></path></g><g transform="translate(0 0)"><path class="f" d="M755.948,240.073c2.4,3.989,1.55,9.224-4.141,13.567l2.561,4.314-3.882,2.3-2.533-4.194a23.385,23.385,0,0,1-9.824,2.7,11.713,11.713,0,0,1-1.661-.088l-.674-6c.547.041,1.095.058,1.64.051a18.221,18.221,0,0,0,7.541-1.753l-3.835-6.481a24.887,24.887,0,0,1-6.7,1.344,7.579,7.579,0,0,1-7.153-3.98c-2.425-4.116-1.519-9.411,4.2-13.7l-2.554-4.32,3.882-2.3,2.494,4.234a20.5,20.5,0,0,1,9.145-2.294h.127l.886,5.929a18.593,18.593,0,0,0-7.134,1.5l3.9,6.593a24.136,24.136,0,0,1,6.651-1.356A7.489,7.489,0,0,1,755.948,240.073Zm-20-1.045a8.8,8.8,0,0,0,1.838-.251l-3.256-5.5c-1.775,1.67-1.932,3.285-1.176,4.566a2.709,2.709,0,0,0,2.593,1.188m12.893,9.519c1.622-1.6,1.874-3.117,1.138-4.373a2.715,2.715,0,0,0-2.618-1.231,9.881,9.881,0,0,0-1.756.213l3.235,5.39" transform="translate(-726.027 -221.541)"></path></g><g class="i" transform="translate(25.779 18.532)"><path d="M765,246.58l1.644.386c2.4,3.99,1.55,9.224-4.142,13.568l-1.643-.387C766.549,255.8,767.4,250.569,765,246.58Z" transform="translate(-760.858 -246.58)"></path></g></g></g><path class="c" d="M729.974,224.622q.776,1,1.5,2.029a6.152,6.152,0,0,1,.7,1.042,3.8,3.8,0,0,1,.352,1.25l-.064.038a3.789,3.789,0,0,1-.925-.911,6.082,6.082,0,0,1-.575-1.118q-.554-1.13-1.054-2.292Z" transform="translate(-699.295 -198.3)"></path><path class="c" d="M755.507,268.06q.8.98,1.55,1.993a6.011,6.011,0,0,1,.728,1.026,3.749,3.749,0,0,1,.378,1.244l-.064.04a3.769,3.769,0,0,1-.95-.887,6.044,6.044,0,0,1-.6-1.106q-.58-1.119-1.105-2.27Z" transform="translate(-705.93 -209.588)"></path><path class="c" d="M727,237.4a9.559,9.559,0,0,0-.786,4.088,9,9,0,0,0,.289,2.046,8.425,8.425,0,0,0,.79,1.894,10.029,10.029,0,0,0,2.69,3.026,8.413,8.413,0,0,0,3.744,1.608l0,.074a6.3,6.3,0,0,1-4.174-1.077,8.311,8.311,0,0,1-2.787-3.355,8.982,8.982,0,0,1-.733-2.056,9.41,9.41,0,0,1-.192-2.161,9.768,9.768,0,0,1,1.091-4.121Z" transform="translate(-698.236 -201.613)"></path><path class="c" d="M739.247,263.6q.327,1.482.594,2.971a8.82,8.82,0,0,1,.242,1.491,5.312,5.312,0,0,1-.162,1.536l-.074.009a5.347,5.347,0,0,1-.5-1.463,8.9,8.9,0,0,1-.095-1.508q-.07-1.511-.079-3.029Z" transform="translate(-701.702 -208.429)"></path><path class="c" d="M737.539,237.368q.952,1.294,1.851,2.62a9.906,9.906,0,0,1,.877,1.337,5.933,5.933,0,0,1,.528,1.545l-.064.038a5.9,5.9,0,0,1-1.1-1.206,9.886,9.886,0,0,1-.751-1.414q-.729-1.427-1.4-2.884Z" transform="translate(-701.261 -201.612)"></path><path class="c" d="M754.854,250.4a4.193,4.193,0,0,1,1.68.215,2.388,2.388,0,0,1,1.34,1.189,2.615,2.615,0,0,1-.684,3.282l-.06-.042a11.6,11.6,0,0,0,.261-1.568,3.807,3.807,0,0,0-.064-1.448,1.9,1.9,0,0,0-.947-1.078,3.982,3.982,0,0,0-1.525-.477Z" transform="translate(-705.777 -204.997)"></path></g><g transform="translate(102.998 433.817)"><path class="j" d="M625.322,550.508c0,.1-116.94.192-261.147.192S103,550.612,103,550.508s116.94-.192,261.177-.192S625.322,550.4,625.322,550.508Z" transform="translate(-102.998 -550.316)"></path></g><g transform="translate(211.693 203.201)"><path class="j" d="M275.017,238.726H608.645a4.988,4.988,0,0,1,4.989,4.988V455.665a10.783,10.783,0,0,1-10.784,10.784H280.072a10.783,10.783,0,0,1-10.784-10.784h0v-211.2a5.736,5.736,0,0,1,5.736-5.736Z" transform="translate(-254.907 -238.726)"></path><path class="j" d="M249.858,523.646H622.883v9.77a10.154,10.154,0,0,1-10.155,10.155H259.99a10.155,10.155,0,0,1-10.132-10.155v-9.77Z" transform="translate(-249.858 -312.768)"></path><rect class="e" width="324.902" height="192.3" transform="translate(23.618 9.052)"></rect><path class="m" d="M456.048,523.646l4.626,7.364H525.82l4.3-7.364Z" transform="translate(-303.441 -312.768)"></path><rect class="m" width="344.352" height="1.095" transform="translate(14.433 210.811)"></rect></g><g transform="translate(112.968 391.306)"><path class="j" d="M166.945,537.551H118.577a2.109,2.109,0,0,1-2.109-2.109h0V502.366a1.909,1.909,0,0,1,1.91-1.91h48.567a4.581,4.581,0,0,1,4.581,4.581h0V532.97a4.581,4.581,0,0,1-4.581,4.581Z" transform="translate(-116.468 -494.847)"></path><g class="g" transform="translate(0 5.609)"><path d="M166.945,537.551H118.577a2.109,2.109,0,0,1-2.109-2.109h0V502.366a1.909,1.909,0,0,1,1.91-1.91h48.567a4.581,4.581,0,0,1,4.581,4.581h0V532.97a4.581,4.581,0,0,1-4.581,4.581Z" transform="translate(-116.468 -500.456)"></path></g><path class="j" d="M180.45,537.549H127.568v-37.1h51.89a3.131,3.131,0,0,1,3.131,3.131h0V535.4a2.139,2.139,0,0,1-2.132,2.146Z" transform="translate(-119.353 -494.845)"></path><path class="j" d="M127.418,537.918c-.1,0-.17-8.23-.17-18.377s.074-18.385.17-18.385.178,8.23.178,18.385S127.522,537.918,127.418,537.918Z" transform="translate(-119.269 -495.029)"></path><path class="j" d="M145.458,498.02a1.8,1.8,0,0,1,.148-.215,5.951,5.951,0,0,1,.5-.563,13.308,13.308,0,0,1,2.109-1.784,14.4,14.4,0,0,1,17.112.488,13.535,13.535,0,0,1,2.006,1.895c.215.244.355.459.459.592a.682.682,0,0,1,.141.222,23.4,23.4,0,0,0-2.753-2.509,14.61,14.61,0,0,0-16.831-.481A22.628,22.628,0,0,0,145.458,498.02Z" transform="translate(-124.002 -492.878)"></path><path class="m" d="M127.027,507.616a.717.717,0,0,1,.044.2,4.293,4.293,0,0,0,.1.585c.044.244.081.577.155.947s.185.807.289,1.28a26.079,26.079,0,0,0,3.308,7.623,26.892,26.892,0,0,0,8.785,8.549,27.289,27.289,0,0,0,14.47,3.7,28.984,28.984,0,0,0,14.388-4.108,31.432,31.432,0,0,0,9.022-8.356,33.662,33.662,0,0,0,4-7.312c.348-.925.607-1.651.74-2.146l.192-.562a1.047,1.047,0,0,1,.074-.192.617.617,0,0,1-.044.2l-.148.577a19.98,19.98,0,0,1-.74,2.169,32.214,32.214,0,0,1-3.93,7.4,31.209,31.209,0,0,1-9.059,8.482,29.092,29.092,0,0,1-14.544,4.219,27.386,27.386,0,0,1-14.64-3.789,26.951,26.951,0,0,1-8.83-8.7,25.408,25.408,0,0,1-3.234-7.727l-.2-1.288c-.067-.377-.1-.7-.133-.962s-.044-.437-.067-.585A1.141,1.141,0,0,1,127.027,507.616Z" transform="translate(-119.212 -496.708)"></path></g><g transform="translate(540.362 289.292)"><path class="m" d="M779.6,359.586c-7.4,3.826-13.063,10.414-17.134,17.674s-6.661,15.217-9.3,23.122l-2.3,40.774c8.593-14.625,15.5-31.826,17.363-48.686l-5.721-.511c3.834-.585,7.053-3.368,9.1-6.661s3.1-7.1,4.13-10.843l-6.979,1.036A25.9,25.9,0,0,0,779.6,359.586Z" transform="translate(-708.722 -356.226)"></path><g class="i" transform="translate(42.136 3.36)"><path d="M779.6,359.586c-7.4,3.826-13.063,10.414-17.134,17.674s-6.661,15.217-9.3,23.122l-2.3,40.774c8.593-14.625,15.5-31.826,17.363-48.686l-5.721-.511c3.834-.585,7.053-3.368,9.1-6.661s3.1-7.1,4.13-10.843l-6.979,1.036A25.9,25.9,0,0,0,779.6,359.586Z" transform="translate(-750.858 -359.586)"></path></g><path class="m" d="M742.686,449.531s-18.666-22.337-18.451-43.668h7.542s-8.193-5.381-7.542-8.4.859-14.433.859-14.433l6.9,1.725s-5.181-2.583-5.817-6.661,1.48-23.048,1.48-23.048,8.43,8.837,11.013,17.859,9.37,19.606,7.4,47.176S742.686,449.531,742.686,449.531Z" transform="translate(-701.794 -355.046)"></path><path class="m" d="M761.955,460.169s20.22-13.47,24.713-30.664l-6.062-1.651s7.764-2.539,7.919-5.114,2.457-11.8,2.457-11.8l-5.921-.118s4.722-.947,6.136-4.1,3.826-18.858,3.826-18.858-8.719,5.27-12.745,11.983S770.437,413.563,766,436.167,761.955,460.169,761.955,460.169Z" transform="translate(-711.604 -363.575)"></path><path class="j" d="M735.788,381.336a1.429,1.429,0,0,1,.074.237c.037.17.1.4.163.681l.592,2.65c.266,1.155.563,2.568.9,4.211s.74,3.508,1.1,5.581c.8,4.145,1.651,9.1,2.516,14.6s1.68,11.59,2.428,17.985,1.3,12.5,1.739,18.067.74,10.576.881,14.8c.1,2.109.156,4.019.207,5.692s.081,3.116.089,4.3,0,2.065,0,2.716v.7a.844.844,0,0,1,0,.244,2.2,2.2,0,0,1,0-.244,5.242,5.242,0,0,0-.037-.7c0-.644-.052-1.554-.1-2.716s-.081-2.62-.155-4.293-.141-3.575-.259-5.684c-.2-4.211-.54-9.222-.97-14.8s-1.036-11.664-1.761-18.052-1.577-12.464-2.4-17.97-1.665-10.465-2.435-14.61c-.363-2.08-.74-3.945-1.044-5.6s-.585-3.057-.822-4.211-.4-2.035-.525-2.664c-.052-.289-.1-.518-.126-.7A1.223,1.223,0,0,0,735.788,381.336Z" transform="translate(-704.806 -361.878)"></path><path class="m" d="M732.23,482.888s-17.082-19.377-22.381-31.085l4-1.71a10.32,10.32,0,0,1-8.141-2.664,30.791,30.791,0,0,1-5.529-6.839l5.277-.888a19.616,19.616,0,0,1-11.524-8.926c6.225,1.021,11.842,4.441,16.5,8.711a82.441,82.441,0,0,1,9.992,11.583,39.19,39.19,0,0,1,3.878,6.38C727.182,463.379,732.237,475.776,732.23,482.888Z" transform="translate(-693.928 -374.726)"></path><path class="j" d="M785.345,403.126a.683.683,0,0,1-.074.2l-.259.563c-.252.518-.6,1.236-1.036,2.154-.918,1.858-2.22,4.567-3.782,7.927-3.138,6.713-7.275,16.09-11.361,26.645s-7.32,20.28-9.518,27.385c-1.1,3.538-1.961,6.41-2.539,8.4-.289.977-.511,1.739-.681,2.294-.074.237-.133.437-.185.592a.97.97,0,0,1-.074.2.949.949,0,0,1,0-.215l.148-.6.614-2.309c.533-2.006,1.354-4.892,2.42-8.445,2.132-7.105,5.336-16.853,9.422-27.422s8.267-19.924,11.472-26.645c1.6-3.345,2.961-6.039,3.886-7.875.474-.9.844-1.613,1.1-2.124.126-.222.222-.4.3-.548A2,2,0,0,1,785.345,403.126Z" transform="translate(-710.014 -367.541)"></path><path class="j" d="M743.245,500.774a1.114,1.114,0,0,1-.089-.355c-.044-.274-.1-.614-.17-1.029-.133-.888-.355-2.183-.674-3.767s-.74-3.456-1.3-5.514-1.288-4.293-2.154-6.6-1.821-4.441-2.746-6.372-1.85-3.612-2.664-5.011-1.48-2.509-1.991-3.264l-.548-.888c-.126-.207-.185-.318-.17-.326a1.445,1.445,0,0,1,.229.281l.614.844c.533.74,1.251,1.836,2.095,3.22s1.791,3.072,2.753,4.988a69.157,69.157,0,0,1,2.79,6.395,69.893,69.893,0,0,1,2.132,6.661c.563,2.087.955,3.967,1.236,5.566s.459,2.894.548,3.8l.1,1.036A1.636,1.636,0,0,1,743.245,500.774Z" transform="translate(-703.493 -384.307)"></path><rect class="f" width="37.384" height="7.623" transform="translate(24.905 111.915)"></rect><path class="f" d="M732.388,516.556l4.048,25.645h22.581l3.775-25.645Z" transform="translate(-703.923 -397.018)"></path><path class="j" d="M763.9,516.488c0,.1-7.076.192-15.794.192s-15.794-.089-15.794-.192,7.068-.192,15.794-.192S763.9,516.377,763.9,516.488Z" transform="translate(-703.902 -396.95)"></path></g><g transform="translate(252.672 102.022)"><path class="a" d="M674.464,167.182h15.35v166.84c0,11.028-7.246,19.983-16.187,19.983h-17.3V167.182Z" transform="translate(-396.467 -118.955)"></path><path class="j" d="M674.4,167.159h-4.648l-13.485.037.074-.074c0,31.5.067,102.752.118,186.809l-.192-.192h15.78c.74,0,1.428,0,2.124-.037l1.051-.067,1.029-.2a14.563,14.563,0,0,0,7.224-3.967,19.453,19.453,0,0,0,4.441-6.905,23.7,23.7,0,0,0,1.584-8.008V244.991c0-34.919.067-62.282.089-77.869l.067.067h.074v.074c0,15.587.044,42.927.081,77.869V334.7a23.923,23.923,0,0,1-1.613,8.141,19.791,19.791,0,0,1-4.567,7.039,14.946,14.946,0,0,1-7.4,4.071l-1.066.2-1.073.074c-.74.067-1.428,0-2.146.037H656.071v-.281c.052-84.056.1-155.309.111-186.809v-.081H673.22Z" transform="translate(-396.4 -118.932)"></path><path class="d" d="M583.283,337.14h-263.3a14.53,14.53,0,0,1-14.521-14.521V102.282H583.283Z" transform="translate(-305.286 -102.09)"></path><path class="j" d="M583.222,337.072c0-1.362-.067-93.4-.163-234.843l.163.163H305.444l.192-.192V321.922a15.406,15.406,0,0,0,.822,5.359,14.382,14.382,0,0,0,11.983,9.5c1.754.148,3.56.067,5.336.089h36.377l74.894.037,148.233.126-148.137.126H323.725c-1.791,0-3.56.059-5.381-.089a14.685,14.685,0,0,1-12.264-9.622,15.662,15.662,0,0,1-.851-5.477V102.022H583.407v.163C583.289,243.66,583.222,335.7,583.222,337.072Z" transform="translate(-305.225 -102.022)"></path><path class="j" d="M583.283,130.924c0,.1-62.171.192-138.9.192s-138.922-.089-138.922-.192,62.171-.192,138.922-.192S583.283,130.813,583.283,130.924Z" transform="translate(-305.286 -109.483)"></path><path class="f" d="M527.927,116.754c0,.1-22.063.192-49.263.192s-49.263-.089-49.263-.192,22.056-.192,49.263-.192S527.927,116.643,527.927,116.754Z" transform="translate(-337.495 -105.801)"></path><circle class="a" cx="2.65" cy="2.65" r="2.65" transform="translate(6.858 8.001)"></circle><circle class="a" cx="2.65" cy="2.65" r="2.65" transform="translate(15.843 8.001)"></circle><circle class="a" cx="2.65" cy="2.65" r="2.65" transform="translate(24.431 12.841) rotate(-80.783)"></circle><path class="j" d="M377.713,305.764c0,.1-5.085.192-11.361.192s-11.361-.089-11.361-.192,5.085-.192,11.361-.192S377.713,305.661,377.713,305.764Z" transform="translate(-318.158 -154.919)"></path><path class="j" d="M422.689,306.714c0,.1-5.877.192-13.115.192s-13.122-.089-13.122-.192,5.877-.192,13.122-.192S422.689,306.581,422.689,306.714Z" transform="translate(-328.932 -155.166)"></path><path class="j" d="M412.864,321.9c0,.111-12.745.192-28.458.192s-28.465-.081-28.465-.192,12.738-.192,28.465-.192S412.864,321.8,412.864,321.9Z" transform="translate(-318.405 -159.113)"></path><path class="j" d="M416.05,337.414c0,.1-13.744.192-30.686.192s-30.693-.089-30.693-.192,13.737-.192,30.693-.192S416.05,337.311,416.05,337.414Z" transform="translate(-318.075 -163.144)"></path><path class="j" d="M507.149,306.394c0,.111-11.953.192-26.7.192s-26.7-.081-26.7-.192,11.953-.192,26.7-.192S507.149,306.291,507.149,306.394Z" transform="translate(-343.82 -155.083)"></path><path class="j" d="M477.449,322.224c0,.1-5.877.192-13.122.192s-13.115-.089-13.115-.192,5.869-.192,13.115-.192S477.449,322.113,477.449,322.224Z" transform="translate(-343.163 -159.196)"></path><path class="j" d="M510.181,338.364c0,.1-12.849.192-28.695.192s-28.695-.089-28.695-.192,12.849-.192,28.695-.192S510.181,338.261,510.181,338.364Z" transform="translate(-343.573 -163.391)"></path><path class="j" d="M523.646,322.534c0,.111-6.291.192-14.062.192s-14.062-.081-14.062-.192,6.291-.192,14.062-.192S523.646,322.431,523.646,322.534Z" transform="translate(-354.677 -159.277)"></path><path class="f" d="M611.208,291.341c0,.059-.918-.459-2.664-1.014a17.224,17.224,0,0,0-7.646-.562,16.511,16.511,0,0,0-5.048,1.621,23.673,23.673,0,0,0-4.959,3.567c-1.628,1.436-3.242,3.064-5.107,4.567a17.526,17.526,0,0,1-6.513,3.53,10.029,10.029,0,0,1-3.8.229,12.547,12.547,0,0,1-3.523-1.088,60.873,60.873,0,0,1-5.921-3.516,18.555,18.555,0,0,0-5.551-2.487,16.661,16.661,0,0,0-5.285-.407,17.026,17.026,0,0,0-7.29,2.376c-1.562.955-2.3,1.673-2.346,1.628a3.686,3.686,0,0,1,.533-.525,12.345,12.345,0,0,1,1.695-1.288,16.6,16.6,0,0,1,12.8-2.22,18.831,18.831,0,0,1,5.721,2.5,60.721,60.721,0,0,0,5.862,3.449,10,10,0,0,0,6.957.814,17.057,17.057,0,0,0,6.3-3.4c1.836-1.48,3.456-3.094,5.107-4.53a23.892,23.892,0,0,1,5.114-3.6,16.9,16.9,0,0,1,12.974-.844,13.384,13.384,0,0,1,1.961.844A3.232,3.232,0,0,1,611.208,291.341Z" transform="translate(-367.679 -150.672)"></path><rect class="f" width="7.053" height="19.073" transform="translate(190.551 153.384)"></rect><rect class="f" width="7.053" height="19.073" transform="translate(220.474 153.384)"></rect><rect class="f" width="7.053" height="30.271" transform="translate(230.444 142.186)"></rect><rect class="f" width="7.053" height="6.417" transform="translate(181.425 166.447)"></rect><rect class="f" width="7.053" height="10.458" transform="translate(200.528 161.999)"></rect><rect class="f" width="7.053" height="12.856" transform="translate(210.497 159.594)"></rect><path class="a" d="M416.279,353.754c0,.1-13.685.192-30.552.192s-30.545-.089-30.545-.192,13.67-.192,30.545-.192S416.279,353.643,416.279,353.754Z" transform="translate(-318.207 -167.39)"></path><path class="a" d="M513.477,353.214c0,.111-13.159.192-29.39.192s-29.405-.081-29.405-.192,13.16-.192,29.405-.192S513.477,353.111,513.477,353.214Z" transform="translate(-344.064 -167.25)"></path><path class="a" d="M611.907,351.7c0,.111-13.078.192-29.213.192s-29.213-.081-29.213-.192,13.078-.192,29.213-.192S611.907,351.579,611.907,351.7Z" transform="translate(-369.74 -166.857)"></path><path class="a" d="M416.279,367.134c0,.111-13.685.192-30.552.192s-30.545-.081-30.545-.192,13.67-.192,30.545-.192S416.279,367.031,416.279,367.134Z" transform="translate(-318.207 -170.867)"></path><path class="a" d="M513.477,366.6c0,.1-13.159.192-29.39.192s-29.405-.089-29.405-.192,13.16-.192,29.405-.192S513.477,366.493,513.477,366.6Z" transform="translate(-344.064 -170.729)"></path><path class="a" d="M611.917,365.094c0,.1-13.078.192-29.213.192s-29.183-.089-29.183-.192,13.078-.192,29.213-.192S611.917,364.991,611.917,365.094Z" transform="translate(-369.75 -170.337)"></path><g transform="translate(36.597 57.569)"><rect class="f" width="88.403" height="61.932" rx="16.254" transform="translate(4.603 9.599)"></rect><g class="n" transform="translate(4.603 9.599)"><rect class="d" width="88.403" height="61.932" rx="16.254"></rect></g><rect class="f" width="95.914" height="67.194" rx="8.833"></rect><path d="M364.453,230.306c-.1,0-.182-7.5-.182-16.739s.084-16.732.182-16.732.182,7.49.182,16.732S364.558,230.306,364.453,230.306Z" transform="translate(-357.166 -184.23)"></path><path d="M378.549,230.306c-.105,0-.182-7.5-.182-16.739s.077-16.732.182-16.732.182,7.49.182,16.732S378.647,230.306,378.549,230.306Z" transform="translate(-360.829 -184.23)"></path><path d="M392.645,230.306c-.105,0-.182-7.5-.182-16.739s.077-16.732.182-16.732.182,7.49.182,16.732S392.743,230.306,392.645,230.306Z" transform="translate(-364.492 -184.23)"></path><path d="M406.731,230.306c-.1,0-.182-7.5-.182-16.739s.084-16.732.182-16.732.183,7.49.183,16.732S406.836,230.306,406.731,230.306Z" transform="translate(-368.153 -184.23)"></path><path d="M420.827,230.306c-.1,0-.182-7.5-.182-16.739s.084-16.732.182-16.732.183,7.49.183,16.732S420.932,230.306,420.827,230.306Z" transform="translate(-371.816 -184.23)"></path><path d="M434.924,230.306c-.1,0-.183-7.5-.183-16.739s.084-16.732.183-16.732.182,7.49.182,16.732S435.022,230.306,434.924,230.306Z" transform="translate(-375.479 -184.23)"></path><path d="M449.02,230.306c-.105,0-.183-7.5-.183-16.739s.078-16.732.183-16.732.182,7.49.182,16.732S449.118,230.306,449.02,230.306Z" transform="translate(-379.142 -184.23)"></path><path d="M463.116,230.306c-.105,0-.182-7.5-.182-16.739s.077-16.732.182-16.732.182,7.49.182,16.732S463.214,230.306,463.116,230.306Z" transform="translate(-382.806 -184.23)"></path><path d="M477.25,230.306c-.1,0-.183-7.5-.183-16.739s.084-16.732.183-16.732.182,7.49.182,16.732S477.319,230.306,477.25,230.306Z" transform="translate(-386.478 -184.23)"></path><path class="d" d="M365.067,251.709v.77h-.7v-.75a3.3,3.3,0,0,1-1.724-.553l.378-.848a2.8,2.8,0,0,0,1.346.491v-1.156c-.77-.182-1.625-.442-1.625-1.4,0-.736.532-1.359,1.625-1.485v-.77h.7v.756a3.09,3.09,0,0,1,1.4.42l-.343.848a2.96,2.96,0,0,0-1.058-.357v1.178c.764.182,1.611.434,1.611,1.4C366.678,250.953,366.152,251.576,365.067,251.709Zm-.7-3.062v-.981c-.364.084-.511.287-.511.511s.21.371.519.455Zm1.191,1.668c0-.238-.2-.372-.5-.477v.953c.351-.056.477-.252.477-.477Z" transform="translate(-356.743 -197.009)"></path><path class="d" d="M374.881,251v.918h-3.672v-.7l1.871-1.766c.428-.406.5-.651.5-.89,0-.379-.266-.6-.778-.6a1.193,1.193,0,0,0-1,.484l-.813-.525a2.242,2.242,0,0,1,1.92-.9c1.079,0,1.8.554,1.8,1.4a1.928,1.928,0,0,1-.813,1.528L372.786,251Z" transform="translate(-358.913 -197.271)"></path><path class="d" d="M376.861,249.483c0-1.6.883-2.5,2.1-2.5s2.1.9,2.1,2.5-.876,2.508-2.1,2.508S376.861,251.08,376.861,249.483Zm3.02,0c0-1.1-.386-1.556-.946-1.556s-.939.455-.939,1.556.386,1.555.939,1.555S379.881,250.582,379.881,249.483Z" transform="translate(-360.438 -197.262)"></path><path class="d" d="M384.376,252.623a1.6,1.6,0,0,1-.189.7l-.392,1h-.7l.309-1.1a.6.6,0,0,1-.379-.588.7.7,0,0,1,1.338,0Z" transform="translate(-362.039 -198.602)"></path><path class="d" d="M389.15,251v.918h-3.658v-.7l1.864-1.766c.434-.406.5-.651.5-.89,0-.379-.26-.6-.771-.6a1.184,1.184,0,0,0-1,.484l-.82-.525a2.248,2.248,0,0,1,1.927-.9c1.079,0,1.794.554,1.794,1.4a1.912,1.912,0,0,1-.806,1.528L387.069,251Z" transform="translate(-362.622 -197.271)"></path><path class="d" d="M394.622,250.458c0,.813-.631,1.562-2.011,1.562a3.347,3.347,0,0,1-1.843-.519l.434-.862a2.312,2.312,0,0,0,1.4.434c.561,0,.911-.224.911-.617s-.273-.6-.911-.6h-.511v-.742l1-1.129h-2.061v-.9h3.391v.7l-1.092,1.247A1.4,1.4,0,0,1,394.622,250.458Z" transform="translate(-364.052 -197.292)"></path><path class="d" d="M401.079,250.921h-.8v1.015h-1.093v-1.015h-2.606v-.757l2.3-3.069h1.17l-2.1,2.907h1.3v-.9h1.03v.9h.785Z" transform="translate(-365.562 -197.292)"></path><path class="d" d="M403.244,252.621a.7.7,0,1,1,0,.415A.7.7,0,0,1,403.244,252.621Z" transform="translate(-367.286 -198.599)"></path><path class="d" d="M405.622,249.483c0-1.6.89-2.5,2.1-2.5s2.1.9,2.1,2.5-.883,2.508-2.1,2.508S405.622,251.08,405.622,249.483Zm3.026,0c0-1.1-.385-1.556-.946-1.556s-.946.455-.946,1.556.392,1.555.946,1.555.946-.455.946-1.555Z" transform="translate(-367.912 -197.262)"></path><path class="d" d="M411.993,249.483c0-1.6.882-2.5,2.1-2.5s2.1.9,2.1,2.5-.876,2.508-2.1,2.508S411.993,251.08,411.993,249.483Zm3.02,0c0-1.1-.386-1.556-.946-1.556s-.939.455-.939,1.556.386,1.555.939,1.555.932-.455.932-1.555Z" transform="translate(-369.568 -197.262)"></path><path class="d" d="M364.187,260.5h-.631v.617h-.21V260.5h-.637v-.2h.637v-.617h.21v.617h.631Z" transform="translate(-356.76 -200.561)"></path><path class="d" d="M366.151,261.3v.393h-.175V261.3a1.248,1.248,0,0,1-.806-.309l.1-.2a1.126,1.126,0,0,0,.7.287v-.9c-.372-.091-.75-.2-.75-.652,0-.329.232-.609.75-.651v-.392h.175v.392a1.28,1.28,0,0,1,.7.21l-.084.2a1.322,1.322,0,0,0-.6-.2v.9c.385.091.785.2.785.651C366.936,260.987,366.69,261.26,366.151,261.3Zm-.175-1.352V259.1c-.351,0-.5.21-.5.427s.231.351.5.42Zm.7.7c0-.266-.252-.357-.539-.427v.847c.386-.014.554-.189.554-.406Z" transform="translate(-357.4 -200.254)"></path><path class="d" d="M368.579,259.023V261.4h-.245V259.24h-.561v-.217Z" transform="translate(-358.076 -200.391)"></path><path class="d" d="M370,261.96a.529.529,0,0,1-.049.2l-.141.469h-.161l.112-.491a.167.167,0,0,1-.119-.175.175.175,0,0,1,.168-.182h.007a.174.174,0,0,1,.182.168Z" transform="translate(-358.56 -201.107)"></path><path class="d" d="M372.228,261.192v.217H370.56v-.175l.988-.967c.273-.266.322-.428.322-.588,0-.273-.2-.442-.554-.442a.8.8,0,0,0-.651.266l-.175-.154a1.061,1.061,0,0,1,.841-.337c.484,0,.792.246.792.638a.98.98,0,0,1-.392.75l-.806.792Z" transform="translate(-358.782 -200.388)"></path><path class="d" d="M374.9,259.023v.168l-1.023,2.221h-.266l.981-2.158h-1.226v.47h-.189v-.7Z" transform="translate(-359.481 -200.391)"></path><path class="d" d="M376.6,259.023V261.4h-.245V259.24h-.56v-.217Z" transform="translate(-360.16 -200.391)"></path><path class="d" d="M377.657,261.96a.174.174,0,0,1,.168-.182h.007a.182.182,0,0,1,.189.175v.007a.189.189,0,0,1-.189.189h0a.181.181,0,0,1-.175-.189Z" transform="translate(-360.645 -201.107)"></path><path class="d" d="M380.2,260.711c0,.406-.287.7-.869.7a1.234,1.234,0,0,1-.855-.309l.119-.189a1.036,1.036,0,0,0,.7.273c.406,0,.617-.2.617-.483s-.189-.5-.792-.5h-.511l.147-1.184h1.3v.217h-1.093l-.077.757h.3C379.931,260.011,380.2,260.291,380.2,260.711Z" transform="translate(-360.858 -200.391)"></path><path class="d" d="M381.832,259.023V261.4h-.245V259.24h-.56v-.217Z" transform="translate(-361.52 -200.391)"></path><path class="d" d="M385.143,261.381a.575.575,0,0,1-.378.126.477.477,0,0,1-.52-.429.463.463,0,0,1,0-.1V259.9h-.322v-.2h.322v-.392h.238v.392h.546v.2h-.546v1.064a.288.288,0,0,0,.241.327.257.257,0,0,0,.067,0,.386.386,0,0,0,.287-.1Z" transform="translate(-362.273 -200.465)"></path><path class="d" d="M385.836,260.729a.911.911,0,1,1,.911.91.882.882,0,0,1-.911-.853C385.835,260.767,385.835,260.748,385.836,260.729Zm1.576,0a.7.7,0,1,0-.7.7.658.658,0,0,0,.7-.614A.569.569,0,0,0,387.412,260.729Z" transform="translate(-362.77 -200.598)"></path><path class="d" d="M390.519,258.843v2.522h-.232v-.35a.782.782,0,0,1-.7.371.911.911,0,1,1,0-1.821h0a.793.793,0,0,1,.7.35v-1.072Zm-.238,1.633a.7.7,0,1,0-.7.7h.035a.659.659,0,0,0,.667-.65C390.282,260.509,390.281,260.492,390.281,260.476Z" transform="translate(-363.508 -200.344)"></path><path class="d" d="M393.376,260.506v1.107h-.232v-.287a.7.7,0,0,1-.616.3c-.406,0-.651-.21-.651-.525s.175-.5.7-.5h.568v-.105c0-.308-.168-.476-.5-.476a.93.93,0,0,0-.6.21l-.105-.183a1.142,1.142,0,0,1,.7-.238.637.637,0,0,1,.731.527A.678.678,0,0,1,393.376,260.506Zm-.246.575v-.295h-.56c-.343,0-.455.133-.455.315s.168.336.448.336a.567.567,0,0,0,.568-.357Z" transform="translate(-364.34 -200.593)"></path><path class="d" d="M396.094,259.837l-.9,2c-.147.351-.336.463-.588.463a.613.613,0,0,1-.441-.168l.119-.175a.444.444,0,0,0,.322.133c.161,0,.266-.077.372-.3l.077-.168-.8-1.787h.252l.7,1.52.7-1.52Z" transform="translate(-364.935 -200.603)"></path><path class="d" d="M469.394,257.835h-2.95a2.053,2.053,0,0,1-2.053-2.053v-2.1a2.06,2.06,0,0,1,2.053-2.06h2.95a2.06,2.06,0,0,1,2.052,2.06v2.1a2.053,2.053,0,0,1-2.052,2.053Zm-2.95-5.521a1.36,1.36,0,0,0-1.352,1.36v2.1a1.352,1.352,0,0,0,1.352,1.352h2.95a1.345,1.345,0,0,0,1.352-1.338v-2.116a1.353,1.353,0,0,0-1.346-1.36h-2.957Z" transform="translate(-383.184 -198.467)"></path><path class="d" d="M466.985,257.414a.357.357,0,0,1-.35-.351v-1.619a.35.35,0,0,1,.7,0v1.619A.351.351,0,0,1,466.985,257.414Z" transform="translate(-383.767 -199.37)"></path><path class="d" d="M468.794,257.131a.351.351,0,0,1-.351-.351v-2.424a.35.35,0,1,1,.7,0v2.424A.357.357,0,0,1,468.794,257.131Z" transform="translate(-384.237 -199.087)"></path><path class="d" d="M470.971,256.848a.357.357,0,0,1-.35-.351v-3.23a.35.35,0,1,1,.7,0v3.23A.35.35,0,0,1,470.971,256.848Z" transform="translate(-384.803 -198.804)"></path><path class="d" d="M446.359,199.2l-.168-.168-.469-.5-1.836-2h.092c-.5.9-1.121,2.011-1.836,3.3l-.077.147-.07-.154-3.608-8.141h.218c-.6,1.7-1.248,3.58-1.948,5.6h0c-.273,2.137-.575,4.442-.883,6.867h0l-1.99,3.58-.035.063h-.07l-1.989.434h-.042l-5.3-.133.112-.041L421.6,212.2l-.2.169-.078-.246c-.329-1.065-.7-2.151-.967-3.314a.515.515,0,0,0-.042-.238v-.028c0,.014.042,0,0,0a2,2,0,0,0-.372.091c-.273.091-.539.21-.813.329-.54.238-1.079.5-1.619.785l-.112.056-.091-.091c-.631-.624-1.317-1.311-2-2h.246c-.7.624-1.5,1.31-2.291,2l-.133.175-.112-.154-2.579-3.433.323-.077c-.315,1.639-.659,3.385-1,5.15v.1l-.091.035h-.056l-2.025.841.063-.042-2.361,2.291v-.035l-1.864,2.852v.035h0l-2,1.149h0l-2.858.567h-.113l-.07-.091c-.428-.581-.862-1.156-1.283-1.73l.175.07-4.295.862h-.1l-.07-.077-5.711-6.874h.266l-5.809,9.774-.119.2-.133-.182-1.71-2.354h.218L376.8,221.9l-.105.113-.091-.119-2.425-3.153h.182l-4.6,4.687-.063.07-.07-.07-1.71-1.7h.127l-1.584,1.688-.056.063-.056-.063-2.95-3.5-.722-.911-.245-.322.281.294.777.89,3.006,3.468h-.112l1.562-1.71.064-.064.063.064,1.724,1.688h-.133l4.554-4.722.1-.1.084.112,2.445,3.14h-.2l3-3.153.113-.119.105.132,1.716,2.348h-.245l5.675-9.655.119-.2.147.182L393,218.13l-.169-.056,4.288-.876h.113l.063.091,1.289,1.724-.175-.07,2.858-.567h-.055l2-1.149-.063.056q.925-1.4,1.857-2.852h0l2.354-2.291h0l2.024-.833h.056l-.112.132c.343-1.765.7-3.5,1-5.15l.084-.4.245.329,2.572,3.433h-.266l2.291-2,.126-.113.119.119,2,2h-.21c.54-.281,1.087-.547,1.633-.792.281-.126.561-.245.848-.343a1.91,1.91,0,0,1,.49-.105.316.316,0,0,1,.238.1c.042.035.056.154.056.161v.238c.273,1.121.624,2.221.953,3.28l-.28-.084,4.988-4.323.049-.042h.064l5.3.147H431.6l2-.42-.105.077,2.011-3.573v.05c.323-2.417.631-4.723.911-6.86h0c.7-2,1.4-3.875,1.983-5.606l.1-.273.118.266,3.546,8.17h-.147c.7-1.282,1.366-2.382,1.878-3.279l.042-.07.049.063c.785.883,1.4,1.57,1.794,2.039l.455.532A1.322,1.322,0,0,1,446.359,199.2Z" transform="translate(-356.689 -182.789)"></path><path class="m" d="M375.936,234.844l-1.878-1.506-1.752,1.415H368l-3.791-3.1.448-.547,3.594,2.95h3.8l2-1.612,1.878,1.506,4.582-3.636,3.707,1.885,9.242-1.836,4.022,1.829,5.22-1.794,2.789-1.149,6.684-2.1,2.256,2.564,2.529.89,5.71-2.466,2.719-4,2.053,3.784,3.44-.133,3.174-2.116,1.983,1.675,4.253-5.171,3.216,5.507,2.677.631,1.5,1.128-.42.561-1.443-1.079-2.768-.624-2.859-4.9-4.064,4.947-2.123-1.794-2.9,1.934-4.071.154-1.71-3.153L423.14,228.7l-6.145,2.648-2.964-1.044-2.074-2.354-6.222,1.955-2.782,1.149-5.5,1.885-4.071-1.843-9.256,1.836-3.524-1.787Z" transform="translate(-357.151 -190.814)"></path></g><text class="o" transform="translate(87.572 43.532)"><tspan x="0" y="0">Expense</tspan><tspan class="p" y="0" xml:space="preserve"> Management</tspan></text><g transform="translate(147.562 60.511)"><path class="f" d="M504.6,183.78v31.184l.01,6.064-.01,3.05V246.39h81.833V183.78Z" transform="translate(-504.599 -183.78)"></path><text class="q" transform="translate(23.986 8.079)"><tspan x="0" y="0">EXPENSE</tspan><tspan class="r" y="0" xml:space="preserve"> MONITOR</tspan></text><text class="s" transform="translate(9.552 18.45)"><tspan x="0" y="0">Funds</tspan></text><text class="s" transform="translate(9.552 37.91)"><tspan x="0" y="0">Debts</tspan></text><text class="t" transform="translate(61.711 52.14)"><tspan x="0" y="0">75%</tspan></text><text class="t" transform="translate(60.995 32.793)"><tspan x="0" y="0">80%</tspan></text><rect class="a" width="62.96" height="3.155" transform="translate(9.286 22.621)"></rect><rect class="f" width="52.238" height="3.155" transform="translate(8.757 22.621)"></rect><rect class="u" width="52.238" height="3.155" transform="translate(8.757 22.621)"></rect><rect class="a" width="62.96" height="3.155" transform="translate(9.551 41.628)"></rect><rect class="f" width="43.374" height="3.155" transform="translate(9.022 41.628)"></rect><rect class="u" width="43.374" height="3.155" transform="translate(9.022 41.628)"></rect></g></g><g transform="translate(123.006 199.694)"><path class="m" d="M131.087,420.011l-1.051-53.474A24.61,24.61,0,0,1,154.16,341.45q.224,0,.449,0h0a24.609,24.609,0,0,1,24.646,24.483l.274,54.081-48.441,2.072" transform="translate(-130.032 -261.913)"></path><path class="m" d="M131.458,456.722h75.36c0-5.04-3.4-8.837-8.437-8.837l-66.922-.289Z" transform="translate(-130.402 -289.498)"></path><rect class="m" width="5.292" height="67.093" transform="translate(63.39 167.223)"></rect><rect class="m" width="5.292" height="67.093" transform="translate(7.029 167.223)"></rect><path class="j" d="M139.768,447.926c0-.1,14.018-.17,31.307-.17s31.315.074,31.315.17-14.018.178-31.315.178S139.768,448.022,139.768,447.926Z" transform="translate(-132.562 -289.54)"></path><path class="j" d="M133.178,459.926c0-.1,16.475-.17,36.792-.17s36.8.074,36.8.17-16.468.178-36.8.178S133.178,460.008,133.178,459.926Z" transform="translate(-130.849 -292.658)"></path><path class="j" d="M138.556,354.316c.1,0,.17,15.261.17,34.09s-.074,34.09-.17,34.09-.178-15.261-.178-34.09S138.452,354.316,138.556,354.316Z" transform="translate(-132.201 -265.258)"></path><path class="v" d="M192.468,407.018s42.409-.178,45.77,0c5.973.326,9.984,7,10.784,10.458s19.332,56.753,19.332,56.753l-14.4,9.311-19.317-43.586-9.725-16.912-52.89,9.244Z" transform="translate(-140.943 -278.933)"></path><path class="v" d="M230.321,426.109s7.831,0,12.057,6.261c2.487,3.7,1.613,10.258,1.665,15.224.067,6.765-1.695,59.21-1.695,59.21-4.988,3.545-10.562,3.96-16.653,1.576l-4.308-58.056,1.11-8.667-28.924.644s-5.181-9.622,2.006-17.289C196.5,424.029,230.321,426.109,230.321,426.109Z" transform="translate(-146.075 -283.561)"></path><path class="w" d="M248.778,426.986H249l.637.1a9.539,9.539,0,0,1,2.339.829,11.83,11.83,0,0,1,3.138,2.346,14.955,14.955,0,0,1,2.879,4.322,17.758,17.758,0,0,1,1.443,6.121,47.947,47.947,0,0,1-.2,7.224c-.229,2.531-.348,5.181-.444,7.942s-.192,5.618-.289,8.549c-.355,11.7-.674,22.3-.9,29.99-.126,3.826-.222,6.92-.3,9.089-.044,1.058-.074,1.887-.1,2.472a3.2,3.2,0,0,1-.037.644.858.858,0,0,1,0,.222,1.111,1.111,0,0,1,0-.222V503.5c.044-2.169.1-5.27.178-9.1.178-7.675.437-18.281.807-30,.1-2.924.192-5.78.289-8.541s.237-5.433.474-7.964a48.557,48.557,0,0,0,.229-7.172,17.681,17.681,0,0,0-1.384-6.047,15,15,0,0,0-2.79-4.285,11.909,11.909,0,0,0-3.064-2.361A11.25,11.25,0,0,0,248.778,426.986Z" transform="translate(-160.89 -284.142)"></path><path class="f" d="M253.937,534.816v1.066s18.155,7.076,18.377,10.51l-35.9.17.429-11.946A20.6,20.6,0,0,0,253.937,534.816Z" transform="translate(-157.678 -312.112)"></path><path class="a" d="M236.438,549.748l.1-2.872,34.372.881s1.6.688,1.421,1.821Z" transform="translate(-157.683 -315.298)"></path><path class="f" d="M295.63,494.856l.407.984s19.488-.1,20.96,3l-33.306,13.4-4-11.265A20.513,20.513,0,0,0,295.63,494.856Z" transform="translate(-168.923 -301.78)"></path><path class="a" d="M284.758,513.227l-.97-2.709,32.277-11.842s1.747.052,2,1.162Z" transform="translate(-169.988 -302.773)"></path><path class="j" d="M303.421,500.21c-.044,0-.215-.192-.355-.6a3.443,3.443,0,0,1-.126-1.68,3.573,3.573,0,0,1,.666-1.554c.266-.34.5-.481.533-.452a8.558,8.558,0,0,0-.814,2.065A8.3,8.3,0,0,0,303.421,500.21Z" transform="translate(-174.952 -302.057)"></path><path class="j" d="M300.9,500.62a3.864,3.864,0,0,1,.74-4.374,19.029,19.029,0,0,0-.681,2.132A18.736,18.736,0,0,0,300.9,500.62Z" transform="translate(-174.337 -302.141)"></path><path class="j" d="M307.2,500.1a2.362,2.362,0,0,1-.844-1.754,2.414,2.414,0,0,1,.377-1.91c.111.037-.133.851,0,1.858S307.3,500.04,307.2,500.1Z" transform="translate(-175.838 -302.19)"></path><path class="j" d="M304.1,494.855a2.243,2.243,0,0,1-.992-.9,7.01,7.01,0,0,1-.7-1.273c-.111-.252-.215-.511-.318-.785a2.293,2.293,0,0,1-.148-.466.675.675,0,0,1,.17-.585.526.526,0,0,1,.644-.081,1.212,1.212,0,0,1,.392.348,3.96,3.96,0,0,1,.451.74,4.266,4.266,0,0,1,.4,1.414,2.277,2.277,0,0,1-.141,1.325c-.059,0,0-.511-.126-1.288a4.843,4.843,0,0,0-.451-1.3,3.693,3.693,0,0,0-.437-.674c-.155-.222-.392-.348-.459-.237a.84.84,0,0,0,.059.651l.289.785a8.483,8.483,0,0,0,.6,1.258A7.237,7.237,0,0,0,304.1,494.855Z" transform="translate(-174.704 -300.699)"></path><path class="j" d="M304.97,494.83s0,.081-.133.192l-.074.081v-.126a4.405,4.405,0,0,1,.089-1.48,5.633,5.633,0,0,1,.377-1.125,5.9,5.9,0,0,1,.318-.592.992.992,0,0,1,.259-.311.579.579,0,0,1,.488-.118.517.517,0,0,1,.37.511,1.892,1.892,0,0,1-.074.459,5.036,5.036,0,0,1-.259.777,4.759,4.759,0,0,1-.74,1.155c-.518.592-.962.814-.984.777s.333-.34.74-.94a5.334,5.334,0,0,0,.622-1.132,5.9,5.9,0,0,0,.222-.74c.074-.259.059-.525,0-.5-.207-.074-.474.481-.644.8a5.489,5.489,0,0,0-.407,1.044,8.608,8.608,0,0,0-.274,1.436l-.1-.044C304.889,494.845,304.956,494.815,304.97,494.83Z" transform="translate(-175.399 -300.866)"></path><path class="j" d="M259.66,540.694c-.052,0-.081-.274,0-.7a3.505,3.505,0,0,1,.74-1.48,3.452,3.452,0,0,1,1.377-.97c.407-.155.681-.155.688-.111a8.644,8.644,0,0,0-1.776,1.332A8.358,8.358,0,0,0,259.66,540.694Z" transform="translate(-163.705 -312.839)"></path><path class="j" d="M257.248,539.7a3.13,3.13,0,0,1,.94-2.132,3.088,3.088,0,0,1,1.984-1.206,20.12,20.12,0,0,0-1.695,1.48A19.018,19.018,0,0,0,257.248,539.7Z" transform="translate(-163.091 -312.567)"></path><path class="j" d="M263.137,542.43a2.422,2.422,0,0,1,.2-1.939c.459-1.029,1.28-1.517,1.325-1.428a18.463,18.463,0,0,0-.97,1.591C263.285,541.586,263.248,542.43,263.137,542.43Z" transform="translate(-164.591 -313.265)"></path><path class="j" d="M263.412,536.316a2.226,2.226,0,0,1-.377-1.28,7.179,7.179,0,0,1,.074-1.48c.037-.274.089-.555.141-.836a2.978,2.978,0,0,1,.118-.474.689.689,0,0,1,.451-.414.533.533,0,0,1,.592.274,1.116,1.116,0,0,1,.148.5,3.831,3.831,0,0,1,0,.873,4.249,4.249,0,0,1-.4,1.414,2.408,2.408,0,0,1-.814,1.058c-.03-.03.281-.429.57-1.169a4.928,4.928,0,0,0,.3-1.332,4.2,4.2,0,0,0,0-.807c0-.266-.155-.5-.266-.444a.869.869,0,0,0-.3.585c-.052.3-.111.555-.163.822a9.56,9.56,0,0,0-.148,1.384C263.3,535.821,263.471,536.294,263.412,536.316Z" transform="translate(-164.592 -311.385)"></path><path class="j" d="M263.765,536.937a.708.708,0,0,1-.215.1h-.111l.052-.118a4.45,4.45,0,0,1,.866-1.243,6.109,6.109,0,0,1,.91-.74,6.326,6.326,0,0,1,.585-.333,1.248,1.248,0,0,1,.378-.133.607.607,0,0,1,.481.155.518.518,0,0,1,.044.629,1.622,1.622,0,0,1-.3.355,4.539,4.539,0,0,1-.629.526,4.627,4.627,0,0,1-1.236.607,2.222,2.222,0,0,1-1.236.141c0-.059.459-.111,1.147-.4a5.182,5.182,0,0,0,1.118-.636,4.969,4.969,0,0,0,.57-.5c.2-.178.326-.414.244-.444-.141-.17-.651.163-.97.348a7.079,7.079,0,0,0-.9.674,9.2,9.2,0,0,0-.977,1.081l-.059-.089C263.684,536.907,263.728,536.914,263.765,536.937Z" transform="translate(-164.679 -312.072)"></path><path class="v" d="M250.986,370.933l6.476,1.044,4.211,5.825-1.229,4.441-.74.252.155,1.665a1.834,1.834,0,0,1-.962,1.791h0l-3.353-5.81,1.384,5.921a2.961,2.961,0,0,1-2.257-.385c-1.428-.74-2.961-7.3-2.961-7.3l-2.22-1.4,2.22,7.312a2.465,2.465,0,0,1-1.91.681c-1.236-.067-3.76-6.7-3.76-6.7L212.322,383l-.074-4.359,8.186-13.552Z" transform="translate(-151.397 -268.056)"></path><path class="f" d="M162.084,284.894a11.613,11.613,0,0,1-7.127-8.452c-.311-1.6-.289-3.264-.74-4.818-.7-2.22-2.42-4.152-2.509-6.491-.052-1.547.637-3.027.74-4.574s-.252-2.961-.281-4.478a9.7,9.7,0,0,1,5.921-8.963l9.326-3.782,14.373,5.862s8.141,7.934,5.825,24.261Z" transform="translate(-135.664 -236.417)"></path><path class="m" d="M197.985,285.645a2.677,2.677,0,0,1,1.029-.822h-.081a1.306,1.306,0,0,1,.229-.059,1.094,1.094,0,0,1,.866,0h0a2.042,2.042,0,0,1,1.2.866,2.411,2.411,0,0,1-.059,2.5,1.843,1.843,0,0,1-3.427-.333A2.3,2.3,0,0,1,197.985,285.645Z" transform="translate(-147.585 -247.16)"></path><path class="v" d="M187.806,262.207c-.947-5.218-5.181-11.243-10.362-10.073L161.6,258.2a3.094,3.094,0,0,0-2.391,3.449l4.7,34.941a9.674,9.674,0,0,0,8.926,8.356h0a9.674,9.674,0,0,0,10.307-9,9.778,9.778,0,0,0,0-1.366c-.185-2.413-.311-4.219-.311-4.211s6.58-1.91,6.928-10.828C189.96,275.108,188.894,268,187.806,262.207Z" transform="translate(-137.606 -238.665)"></path><path class="j" d="M194.882,275.882a1.125,1.125,0,0,1-.955,1.258,1.074,1.074,0,0,1-1.266-.837l-.007-.036a1.125,1.125,0,0,1,.947-1.258,1.081,1.081,0,0,1,1.275.843Z" transform="translate(-146.303 -244.642)"></path><path class="j" d="M194.839,270.738c-.118.163-1.044-.363-2.22-.215s-2.021.851-2.169.74.037-.34.385-.666a3.087,3.087,0,0,1,1.717-.74,2.961,2.961,0,0,1,1.821.355C194.743,270.413,194.906,270.687,194.839,270.738Z" transform="translate(-145.719 -243.303)"></path><path class="j" d="M180.393,277.351a1.124,1.124,0,0,1-.947,1.258,1.081,1.081,0,0,1-1.275-.843l-.006-.03a1.133,1.133,0,0,1,.947-1.258,1.073,1.073,0,0,1,1.272.828C180.388,277.321,180.391,277.336,180.393,277.351Z" transform="translate(-142.538 -245.024)"></path><path class="j" d="M178.824,272.947c-.126.163-1.051-.37-2.257-.222s-2.021.859-2.169.74,0-.34.392-.666a3.117,3.117,0,0,1,1.71-.74,3.049,3.049,0,0,1,1.821.355C178.721,272.621,178.883,272.873,178.824,272.947Z" transform="translate(-141.546 -243.876)"></path><path class="j" d="M187.134,281.154a8.176,8.176,0,0,1,1.924-.585c.3-.067.585-.163.614-.385a1.579,1.579,0,0,0-.311-.888l-1.192-2.22a38.074,38.074,0,0,1-2.775-5.921,39.305,39.305,0,0,1,3.242,5.662c.4.792.792,1.539,1.155,2.265a1.8,1.8,0,0,1,.3,1.192.8.8,0,0,1-.451.511,2.309,2.309,0,0,1-.518.133A8.128,8.128,0,0,1,187.134,281.154Z" transform="translate(-144.416 -243.646)"></path><path class="w" d="M186.93,303.235a22.381,22.381,0,0,1-12.072-1.739s3.553,5.677,12.22,3.819Z" transform="translate(-141.681 -251.531)"></path><path class="w" d="M186.473,288.215a2.96,2.96,0,0,0-2.6-1.007,1.924,1.924,0,0,0-1.48,1.051,1.784,1.784,0,0,0,2.3,2.42,4.441,4.441,0,0,0,1.65-1.31,1.315,1.315,0,0,0,.326-.5.606.606,0,0,0-.118-.607" transform="translate(-143.593 -247.813)"></path><path class="j" d="M183.034,286.366c.2,0,.355,1.273,1.591,2.072s2.605.488,2.642.674c0,.074-.281.289-.873.377a3.286,3.286,0,0,1-2.22-.488,2.88,2.88,0,0,1-1.243-1.747C182.871,286.706,182.945,286.366,183.034,286.366Z" transform="translate(-143.773 -247.599)"></path><path class="j" d="M178.4,266.223c-.081.34-1.3.333-2.7.666s-2.494.866-2.724.592c-.1-.133.067-.466.488-.836a4.632,4.632,0,0,1,1.954-.955,4.546,4.546,0,0,1,2.176,0C178.145,265.875,178.441,266.06,178.4,266.223Z" transform="translate(-141.185 -242.192)"></path><path class="j" d="M193.7,265.139c-.178.3-1.044.118-2.043.222s-1.828.4-2.058.141c-.1-.133,0-.422.34-.74a2.874,2.874,0,0,1,1.606-.651,2.8,2.8,0,0,1,1.695.363C193.638,264.755,193.786,265,193.7,265.139Z" transform="translate(-145.503 -241.812)"></path><path class="j" d="M169.545,254.916a31.289,31.289,0,0,0-11.613,2.961,5.674,5.674,0,0,0-2.753,2.22,5.61,5.61,0,0,0-.385,3.086c.281,3.294,1.9,7.224,3.375,10.169l1.725,2.524c2.22-.7,3.819-6.7,3.471-9.429a6.49,6.49,0,0,0,3.353-5.988A7.194,7.194,0,0,0,169.545,254.916Z" transform="translate(-136.449 -239.426)"></path><path class="v" d="M163.088,280.608c-.259-1.873-2.6-2.072-4.145-.984-.844.6-1.436,1.7-1.177,3.7.7,5.307,5.877,3.508,5.869,3.353S163.4,282.8,163.088,280.608Z" transform="translate(-137.223 -245.675)"></path><path class="w" d="M162.249,285.554a1.96,1.96,0,0,1-.229.17.939.939,0,0,1-.688.1,2.311,2.311,0,0,1-1.325-1.917,3.037,3.037,0,0,1,.081-1.354,1.066,1.066,0,0,1,.6-.8.481.481,0,0,1,.585.178c.089.141.067.252.1.259s.1-.1,0-.318a.562.562,0,0,0-.252-.3.694.694,0,0,0-.525-.074,1.31,1.31,0,0,0-.792.933,3.125,3.125,0,0,0-.126,1.517,2.419,2.419,0,0,0,1.65,2.117.992.992,0,0,0,.822-.252C162.256,285.658,162.271,285.554,162.249,285.554Z" transform="translate(-137.724 -246.329)"></path><path class="m" d="M159.121,288.515a2.9,2.9,0,0,1,1.036-.822h-.081a1.175,1.175,0,0,1,.229-.059,1.093,1.093,0,0,1,.866,0h0a2.014,2.014,0,0,1,1.192.866,2.4,2.4,0,0,1-.059,2.494,2.007,2.007,0,0,1-1.917,1,2.028,2.028,0,0,1-1.48-1.325A2.289,2.289,0,0,1,159.121,288.515Z" transform="translate(-137.49 -247.906)"></path><path class="f" d="M153.546,250.469a8.66,8.66,0,0,1,6.41-4.6,14.336,14.336,0,0,1,2.383-.266,8.848,8.848,0,0,1-.34-3.234,9.365,9.365,0,0,1,5.181-7.4,11.621,11.621,0,0,1,8.778-.222,11.3,11.3,0,0,1,6.543,5.41c1.34,2.687,1.236,6.328-.7,8.548a14.941,14.941,0,0,1-7.7,3.516,10.724,10.724,0,0,1-7.461-1.066c-6.661,5.5-8.378,14.6-9.488,22.826-2.916-5.122-3.545-11.183-4.115-17.023C152.865,254.769,152.658,252.49,153.546,250.469Z" transform="translate(-135.97 -233.988)"></path><path class="j" d="M164.474,256.343c-.081-.074.289-.6.829-1.177s1.029-.977,1.11-.9-.3.592-.829,1.169S164.548,256.409,164.474,256.343Z" transform="translate(-138.979 -239.254)"></path><path class="j" d="M185.387,248.988c-.044-.052.525-.585,1.192-1.621a9.888,9.888,0,0,0,1.547-4.493,9.995,9.995,0,0,0-.74-4.692c-.488-1.132-.962-1.754-.91-1.8s.163.126.377.407a7.861,7.861,0,0,1,.777,1.28,9.214,9.214,0,0,1-.785,9.451,8.1,8.1,0,0,1-.984,1.132C185.565,248.892,185.409,249,185.387,248.988Z" transform="translate(-144.416 -234.609)"></path><path class="j" d="M180.858,244.511a5.376,5.376,0,0,1,.9-1.021,21.872,21.872,0,0,0,2.095-2.45,8.627,8.627,0,0,0,1.325-2.887c.192-.792.178-1.31.244-1.317a2.75,2.75,0,0,1,0,1.369,7.391,7.391,0,0,1-1.288,3.049,13.633,13.633,0,0,1-2.22,2.428A4.506,4.506,0,0,1,180.858,244.511Z" transform="translate(-143.24 -234.728)"></path><g class="i" transform="translate(25.1 9.014)"><path d="M164.843,246.166a9.8,9.8,0,0,0,4.67,8.2l-.1.155a5.381,5.381,0,0,1-4.574-8.356Z" transform="translate(-163.945 -246.166)"></path></g><path class="d" d="M156.518,261.986a9.1,9.1,0,0,1,1.784.873,9.472,9.472,0,0,1,1.762.925,3.709,3.709,0,0,1-1.932-.577A3.791,3.791,0,0,1,156.518,261.986Z" transform="translate(-136.915 -241.264)"></path><path class="d" d="M152.088,269.376a15.494,15.494,0,0,1,2.376.222,16.58,16.58,0,0,1,2.391.207,7.463,7.463,0,0,1-4.766-.429Z" transform="translate(-135.763 -243.184)"></path><path class="d" d="M160.722,248.3c.111,0-.281,1.48-.422,3.271s0,3.286-.126,3.3A10.44,10.44,0,0,1,160.722,248.3Z" transform="translate(-137.788 -237.706)"></path><path class="d" d="M163.688,260.939c0-.111.681-.067,1.48-.089a5.529,5.529,0,0,1,1.48,0,3.545,3.545,0,0,1-2.961.067Z" transform="translate(-138.778 -240.957)"></path><path class="d" d="M156.938,274.7a4.555,4.555,0,0,1,1.48,1.576,4.637,4.637,0,0,1,.925,1.954,43.562,43.562,0,0,1-2.405-3.53Z" transform="translate(-137.024 -244.567)"></path><path class="d" d="M175.388,249.281a13.786,13.786,0,0,1,.74-2.109c.525-1.4,1.169-3.131,1.887-5.033s1.31-3.656,1.821-5.062a13.406,13.406,0,0,1,.814-2.08,11.528,11.528,0,0,1-.555,2.161c-.4,1.325-1,3.131-1.725,5.107s-1.436,3.745-1.991,5.011A12.116,12.116,0,0,1,175.388,249.281Z" transform="translate(-141.818 -234.25)"></path><path class="d" d="M169.138,239.034a5.331,5.331,0,0,1,1.273-.918,26.072,26.072,0,0,1,7.053-2.9,5.711,5.711,0,0,1,1.562-.259c0,.118-2.317.681-5.048,1.806S169.2,239.13,169.138,239.034Z" transform="translate(-140.194 -234.239)"></path><path class="d" d="M189.7,244.716a6.977,6.977,0,0,1,2.22,5.684c-.118,0-.192-1.384-.807-2.961S189.607,244.79,189.7,244.716Z" transform="translate(-145.535 -236.776)"></path><path class="d" d="M176.1,258.059a11.523,11.523,0,0,0,2.124-.57,11.839,11.839,0,0,0,1.8-1.273A3.427,3.427,0,0,1,176.1,258.059Z" transform="translate(-142.003 -239.764)"></path><path class="d" d="M166.076,250.028a3.214,3.214,0,0,1,.592-2.035,3.32,3.32,0,0,1,1.48-1.48c0,.1-.6.74-1.162,1.695S166.187,250.05,166.076,250.028Z" transform="translate(-139.397 -237.24)"></path><path class="d" d="M198.024,265.869c-.067-.089.17-.363.4-.74s.385-.688.488-.674.118.452-.163.881S198.076,265.958,198.024,265.869Z" transform="translate(-147.698 -241.905)"></path><path class="j" d="M164.753,255.1c.044.044-.8.984-2.021,2.605a41.753,41.753,0,0,0-4.071,6.78A40.958,40.958,0,0,0,156,271.934c-.5,1.976-.681,3.227-.74,3.212a4.466,4.466,0,0,1,.067-.888c.059-.562.2-1.384.414-2.383a35.111,35.111,0,0,1,6.809-14.336c.644-.8,1.184-1.421,1.591-1.828A3.711,3.711,0,0,1,164.753,255.1Z" transform="translate(-136.587 -239.473)"></path><path class="j" d="M152.748,263.421a9.436,9.436,0,0,1,1.058-1.976,28.821,28.821,0,0,1,3.308-4.285,28.124,28.124,0,0,1,4.063-3.59,9.606,9.606,0,0,1,1.9-1.184,19.254,19.254,0,0,1-1.739,1.4,39,39,0,0,0-3.945,3.634,38.083,38.083,0,0,0-3.368,4.167A21.085,21.085,0,0,1,152.748,263.421Z" transform="translate(-135.935 -238.769)"></path><path class="j" d="M170.365,236.376s-.229.37-.57,1.058a9.01,9.01,0,0,0-.844,3.094,9.23,9.23,0,0,0,.785,4.648,9.625,9.625,0,0,0,3.871,4.234,10.864,10.864,0,0,0,5.566,1.525,11.391,11.391,0,0,0,4.648-.94,7.571,7.571,0,0,0,2.583-1.88c.5-.577.7-.97.74-.94s0,.1-.126.281a5.016,5.016,0,0,1-.488.74,7.309,7.309,0,0,1-2.583,2.035,11.48,11.48,0,0,1-4.766,1.044,11.012,11.012,0,0,1-5.758-1.547,9.885,9.885,0,0,1-4-4.441,9.365,9.365,0,0,1-.74-4.826,8.562,8.562,0,0,1,.984-3.138,6.719,6.719,0,0,1,.5-.74C170.276,236.45,170.35,236.368,170.365,236.376Z" transform="translate(-140.059 -234.608)"></path><path class="j" d="M165.488,243.726c.067,0-.067.8-.044,2.072a10.432,10.432,0,0,0,1.162,4.781,7.573,7.573,0,0,0,3.516,3.257,13.15,13.15,0,0,0,1.961.585,1.334,1.334,0,0,1-.562,0,5.393,5.393,0,0,1-1.48-.348,7.406,7.406,0,0,1-3.76-3.353,9.809,9.809,0,0,1-1.1-4.937,10.237,10.237,0,0,1,.163-1.525A1.587,1.587,0,0,1,165.488,243.726Z" transform="translate(-139.165 -236.518)"></path><g class="i" transform="translate(19.033 20.893)"><path d="M159.16,265.11a56.866,56.866,0,0,0-3.035,8.563,5.244,5.244,0,0,0-.281,2.961c.052.185.207.414.4.348s.163-.185.192-.311a128.628,128.628,0,0,1,4.574-14.455Z" transform="translate(-155.747 -262.216)"></path></g><g class="i" transform="translate(41.178 2.796)"><path d="M187.348,237.766c1.48,3.923,1.3,8.223-1.68,11.479a3.988,3.988,0,0,0,2.9-2.568A9.443,9.443,0,0,0,187.348,237.766Z" transform="translate(-185.668 -237.766)"></path></g><path class="j" d="M232.622,381.993q-20.553-.5-39.649.089l.141-.089,4.441-41.588-16.8-28.191-1.007-.947a16.737,16.737,0,0,1-10.576,1.784l-9.762-1.665h0a165.048,165.048,0,0,0-12.516,12.427c0,.289,10.821,53.038,10.821,53.038l6.454,6.335-18.259,12.849s.37,12.678,8.941,16.135,46.673.844,51.121.289c0,0,16.645-6.469,18.955-8.445S233.28,386.308,232.622,381.993Z" transform="translate(-134.157 -254.07)"></path><path class="m" d="M201.438,414.746a2.584,2.584,0,0,1,.4.044l1.118.17c.977.163,2.383.422,4.108.777,3.464.7,8.215,1.8,13.433,3.116l13.322,3.456,4.041,1.058,1.1.3a2.485,2.485,0,0,1,.377.126,1.439,1.439,0,0,1-.392-.059l-1.11-.229c-.97-.215-2.354-.533-4.071-.947-3.434-.829-8.141-2.043-13.374-3.36s-9.947-2.457-13.389-3.212c-1.725-.385-3.123-.681-4.086-.881l-1.11-.244A1.557,1.557,0,0,1,201.438,414.746Z" transform="translate(-148.588 -280.962)"></path><path class="m" d="M196.448,406.494a29.38,29.38,0,0,1,6.38.452,29.38,29.38,0,0,1-6.38-.452Z" transform="translate(-147.291 -278.801)"></path><path class="m" d="M196.188,396.275c.089-.067,1.147,1.347,2.738,2.813s3.064,2.428,3,2.516a10.889,10.889,0,0,1-3.242-2.265A11.022,11.022,0,0,1,196.188,396.275Z" transform="translate(-147.224 -276.161)"></path><path class="m" d="M194.947,362.3c-.044-.052.54-.585,1.332-1.576a15.6,15.6,0,0,0,3.323-9.126c.037-1.266-.067-2.05,0-2.058a1.884,1.884,0,0,1,.126.548,10.115,10.115,0,0,1,.118,1.48,14.059,14.059,0,0,1-3.382,9.274,10.569,10.569,0,0,1-1.066,1.081A1.857,1.857,0,0,1,194.947,362.3Z" transform="translate(-146.901 -264.015)"></path><path class="f" d="M198.794,313.08h0c4.752,2.961,9.444,10.51,10.621,18.555L212.05,344.1s1.991-1.073,3.22.444a4.864,4.864,0,0,1,1.051,3.76l5.47,3.819-8.741,6.358-5.98,7.357s5.129,15.069,5.98,16.549,2.539,4.041,2.539,4.041l-7.831-1.48s-5.285-3.8-5.077-10.155.836-30.671,0-33.846-11.1-29.65-11.1-29.65Z" transform="translate(-146.026 -254.078)"></path><path class="j" d="M213.676,372.062a1.889,1.889,0,0,1-.052-.37c0-.281-.052-.629-.081-1.058-.044-.918-.067-2.22,0-3.9.1-3.3.459-7.838.688-12.849a117.974,117.974,0,0,0-.067-12.841c-.126-1.643-.229-2.961-.348-3.878a8.511,8.511,0,0,0-.1-1.058,1.818,1.818,0,0,1,0-.37,1.308,1.308,0,0,1,.089.363l.163,1.051c.163.9.3,2.22.466,3.871a99.968,99.968,0,0,1,.163,12.878c-.229,5.025-.629,9.555-.785,12.841-.081,1.643-.1,2.961-.1,3.893v1.058A1.177,1.177,0,0,1,213.676,372.062Z" transform="translate(-151.723 -260.429)"></path><path class="f" d="M176.79,359.409l-3.7-14.129L157,311.426l-13.715,6.624a6.158,6.158,0,0,0-1.044.5h0a10.037,10.037,0,0,0-3.279,3.508,16.449,16.449,0,0,0-2.013,11.006l5.277,33.491a87.242,87.242,0,0,0,5.181,11.1l-8,24.091s20.405,10.2,27.022,10.169c5.573,0,10.443-.059,11.361-10.924S176.79,359.409,176.79,359.409Z" transform="translate(-131.77 -254.112)"></path><path class="j" d="M167.856,382.52c-.044,0,.2-.666.518-1.754a17.184,17.184,0,0,1,.674-1.887,5.134,5.134,0,0,1,1.48-2.021,4.036,4.036,0,0,1,2.3-.873,4.507,4.507,0,0,1,2,.37,3.691,3.691,0,0,1,1.147.74c.229.229.326.377.311.392a6.788,6.788,0,0,0-1.547-.91,4.607,4.607,0,0,0-1.887-.281,3.919,3.919,0,0,0-2.146.8,5.191,5.191,0,0,0-1.369,1.924c-.311.659-.525,1.3-.74,1.828A6.789,6.789,0,0,1,167.856,382.52Z" transform="translate(-139.86 -270.887)"></path><path class="j" d="M161.858,366.986a2.005,2.005,0,0,1,.474-.185,5.023,5.023,0,0,1,1.377-.155,5.722,5.722,0,0,1,5.694,5.749c0,.1,0,.2-.01.3a4.873,4.873,0,0,1-.244,1.369c-.1.3-.192.466-.215.459a11.511,11.511,0,0,0,.215-1.836,5.728,5.728,0,0,0-5.44-5.788A13.8,13.8,0,0,0,161.858,366.986Z" transform="translate(-138.302 -268.461)"></path><path class="j" d="M161.858,331.076a5.185,5.185,0,0,1,.318,1.014c.185.659.429,1.613.7,2.8.548,2.376,1.177,5.684,1.643,9.37s.666,7.061.74,9.5v2.879a6.33,6.33,0,0,1-.059,1.058,6.1,6.1,0,0,1-.074-1.058c0-.74-.074-1.71-.126-2.872-.118-2.428-.363-5.78-.822-9.459s-1.058-6.979-1.539-9.363c-.237-1.14-.437-2.095-.592-2.82A6.492,6.492,0,0,1,161.858,331.076Z" transform="translate(-138.302 -259.218)"></path><path class="j" d="M145.708,321.923a4.557,4.557,0,0,1,1.554-.17,10.993,10.993,0,0,1,6.965,2.561,4.574,4.574,0,0,1,1.066,1.132,16.5,16.5,0,0,0-4.441-2.687A16.7,16.7,0,0,0,145.708,321.923Z" transform="translate(-134.105 -256.793)"></path><path class="j" d="M151.968,396a2.244,2.244,0,0,1,.274.34l.74,1.014a11.549,11.549,0,0,0,3.479,2.887,12.123,12.123,0,0,0,6.528,1.2,16.157,16.157,0,0,0,7.631-2.879,18.727,18.727,0,0,0,1.6-1.258l-.052.133c0-5.425-.044-10.251-.059-13.766v-5.218a1.6,1.6,0,0,1,0-.385,1.856,1.856,0,0,1,0,.385,10.81,10.81,0,0,0,.044,1.11c0,1.007.052,2.4.089,4.1.044,3.523.1,8.349.17,13.766v.089l-.059.044a18.425,18.425,0,0,1-1.636,1.288,16.209,16.209,0,0,1-7.727,2.909,12.163,12.163,0,0,1-6.661-1.3,11.238,11.238,0,0,1-3.471-3.012c-.3-.451-.518-.822-.674-1.066A2.137,2.137,0,0,1,151.968,396Z" transform="translate(-135.732 -271.43)"></path><g class="i" transform="translate(16.754 118.908)"><path d="M181.844,399.383c-2.42,1.014-5.47,1.969-5.973,4.544a18.522,18.522,0,0,1-.348,2.576c-.681,1.961-3.153,2.524-5.225,2.716-3.493.318-7.105.459-10.443-.637s-6.387-3.649-7.187-7.068c3.042,1.88,4.441,4.026,8,4.611,1.976.333,5.669-.955,7.572-1.584s4.256-3.2,4.256-3.2c.17-.659,0-2.85-.155-2.183-.052.222,3.227-1.873,4.863-2.487,1.947-.74,4.641-2.028,4.641-2.028" transform="translate(-152.668 -394.646)"></path></g><g class="i" transform="translate(24.522 106.681)"><path d="M168.651,378.156c-.525,2.383-2.043,6.121-2.835,8.43a3.681,3.681,0,0,1-.562,1.147,1.3,1.3,0,0,1-1.125.511,1.31,1.31,0,0,1-.947-1.48,3.7,3.7,0,0,1,.785-1.717l4.685-6.92" transform="translate(-163.164 -378.126)"></path></g><path class="j" d="M153.588,416.647a6.709,6.709,0,0,1,.629-1.155c.429-.74,1.058-1.754,1.821-2.961l.059-.1h.118c1.554.57,3.434,1.214,5.477,1.843,2.79.866,5.359,1.517,7.224,1.969l2.22.525a3.551,3.551,0,0,1,.807.229,4.223,4.223,0,0,1-.829-.1c-.533-.081-1.3-.222-2.22-.414-1.88-.392-4.441-1.014-7.268-1.88-2.05-.629-3.93-1.3-5.477-1.9l.17-.059c-.785,1.221-1.48,2.22-1.917,2.923A7.594,7.594,0,0,1,153.588,416.647Z" transform="translate(-136.153 -280.361)"></path><path class="j" d="M176.5,424.714a3428.224,3428.224,0,0,0,2.087-5.588A12.95,12.95,0,0,1,176.5,424.714Z" transform="translate(-142.107 -282.1)"></path><path class="j" d="M153.628,418.775c0-.052.888.466,2.324,1.192a38.505,38.505,0,0,0,5.8,2.368,42.161,42.161,0,0,0,6.106,1.443c1.591.252,2.583.34,2.583.4a2.6,2.6,0,0,1-.7,0,18.118,18.118,0,0,1-1.91-.163,34.658,34.658,0,0,1-6.18-1.347,32.576,32.576,0,0,1-5.817-2.487,17.922,17.922,0,0,1-1.643-.992A2.7,2.7,0,0,1,153.628,418.775Z" transform="translate(-136.164 -282.008)"></path><g class="i" transform="translate(17.123 137.056)"><path d="M169.177,424.214a.9.9,0,0,1-.422,1.155,2.477,2.477,0,0,1-1.332.215,23.74,23.74,0,0,1-13.663-4.988c-.4-.3-.807-.873-.466-1.243s.792-.1,1.162.1a37.861,37.861,0,0,0,15.158,4.966" transform="translate(-153.166 -419.167)"></path></g><path class="v" d="M179.458,375.947l30.471-6.587,6.365-1.584,5.025,3.035a2.736,2.736,0,0,1,1.31,1.991l.437,3.257-.614.533.8,1.48a1.856,1.856,0,0,1-.185,2.035h0l-5.137-3.856,3.353,4.707a2.916,2.916,0,0,1-2.22.526c-1.591-.1-5.566-5.558-5.566-5.558l-2.605-.407,5.484,5.921s.244.5-.925.918-7.246-4.263-7.246-4.263L179.6,392.03" transform="translate(-142.876 -268.755)"></path><path class="w" d="M179.6,391.976a.468.468,0,0,1,.126-.074l.385-.2,1.48-.74,5.788-2.872L208.1,377.9a.133.133,0,0,1,.155,0c1.236.933,2.546,1.88,3.938,2.768a17.92,17.92,0,0,0,2.176,1.229c.37.141.792.348,1.1.192a2.043,2.043,0,0,0,.518-.289c.155-.111.229-.3.2-.363v.037l-5.484-5.921a.179.179,0,0,1,0-.244.17.17,0,0,1,.141-.044l2.605.407a.194.194,0,0,1,.111.067,40.592,40.592,0,0,0,3.234,3.878,7.251,7.251,0,0,0,1.969,1.554,3.042,3.042,0,0,0,2.339-.422v.222l-.992-1.391-2.361-3.316a.171.171,0,0,1,.036-.238l.009-.006a.171.171,0,0,1,.2,0l4.16,3.123.511.385.252.192.133.1.059.044h-.237a1.694,1.694,0,0,0,.333-1.073,2.3,2.3,0,0,0-.4-1.1l-.592-1.1a.171.171,0,0,1,0-.215l.614-.525-.059.148c-.133-1.007-.266-2-.4-2.961a2.678,2.678,0,0,0-1.436-2.22l-4.848-2.961h.118l-3.886,1.007c-1.3.318-2.568.644-3.819.9l-7.12,1.525L189.746,373.8l-7.579,1.591-2.013.407-.518.1h-.178l.17-.052.518-.118,2-.459,7.564-1.687,11.642-2.553,7.113-1.554c1.251-.259,2.516-.585,3.819-.91l3.974-.984a.133.133,0,0,1,.118,0l4.863,2.924a3.033,3.033,0,0,1,1.118,1.029,3.17,3.17,0,0,1,.474,1.48c.133.984.266,1.976.407,2.961a.17.17,0,0,1-.059.148l-.614.533v-.207l.6,1.1a2.75,2.75,0,0,1,.444,1.251,2.039,2.039,0,0,1-.407,1.3v.037h-.244l-.067-.052-.126-.1-.252-.192L222,379.4l-4.16-3.123.252-.237,2.361,3.316c.34.474.673.955.992,1.391h0a.163.163,0,0,1,0,.207,2.7,2.7,0,0,1-1.31.548,5.242,5.242,0,0,1-.681.052h-.34a3.206,3.206,0,0,1-.363-.081,7.165,7.165,0,0,1-2.109-1.636,39.96,39.96,0,0,1-3.257-3.915l.111.067-2.605-.407.155-.289c1.887,2.043,3.7,4.026,5.477,5.921h0a.673.673,0,0,1-.281.74,2.121,2.121,0,0,1-.607.333.81.81,0,0,1-.37.081,1.315,1.315,0,0,1-.355-.052,3.535,3.535,0,0,1-.629-.229,16.906,16.906,0,0,1-2.22-1.251c-1.4-.9-2.709-1.85-3.952-2.8h.163L187.5,388.12l-5.825,2.8-1.539.74-.4.185Z" transform="translate(-142.876 -268.701)"></path><path class="w" d="M232.514,382.741a12.017,12.017,0,0,1-1.236-1.554c-.74-.984-1.71-2.354-2.775-3.886a3.337,3.337,0,0,0-1.843-1.613c-.74-.207-1.48-.333-2.072-.481a9.854,9.854,0,0,1-1.91-.511,11.67,11.67,0,0,1,1.961.266c.607.118,1.31.207,2.117.422a3.564,3.564,0,0,1,2.043,1.739c1.066,1.517,2.013,2.909,2.687,3.93A10.178,10.178,0,0,1,232.514,382.741Z" transform="translate(-154.108 -270.554)"></path><path class="w" d="M234.011,377.6a12.569,12.569,0,0,1-1.184-1.332,36.767,36.767,0,0,0-2.961-3.086l-.9-.822-.429-.385-.215-.192s-.074-.074-.1-.074h-.059c-.681-.081-1.362-.067-1.9-.089a9.781,9.781,0,0,1-1.784-.081,8.435,8.435,0,0,1,1.784-.163,14.577,14.577,0,0,1,1.954,0h.081l.118.052a.637.637,0,0,1,.126.1l.215.185.437.377.91.822a26.171,26.171,0,0,1,2.916,3.19A6.838,6.838,0,0,1,234.011,377.6Z" transform="translate(-154.575 -269.682)"></path><path class="a" d="M275.3,382.642l10.673-29.472a3.849,3.849,0,0,0-3.56-5.314H250.877a3.85,3.85,0,0,0-3.649,2.613L237.14,380.192l-17.548.059c-.955,0-1.784,1.28-1.784,2.22H236.6Z" transform="translate(-152.842 -263.579)"></path><path class="j" d="M275.244,382.567H259.235l-18.207-.037c-6.994-.037-14.8.044-23.262,0h-.178v-.178a2.808,2.808,0,0,1,.348-1.243,2.553,2.553,0,0,1,.888-.955,1.48,1.48,0,0,1,.666-.215h6.972L237.1,379.9l-.178.126,4.567-13.47c1.029-3.02,2.035-6.01,3.035-8.948q.741-2.22,1.48-4.382l.74-2.161c.133-.363.229-.74.385-1.081a4.436,4.436,0,0,1,.629-1.007,4.1,4.1,0,0,1,3.109-1.414h31.5a3.944,3.944,0,0,1,1.8.429,4.026,4.026,0,0,1,2.124,2.783,3.857,3.857,0,0,1-.037,1.747c-.163.555-.37,1.066-.555,1.584-.377,1.029-.74,2.035-1.1,3.02L277.738,375.8c-.807,2.176-1.428,3.871-1.865,5.033-.207.563-.37,1-.488,1.3s-.17.429-.17.429.044-.163.148-.459l.466-1.332c.414-1.177,1.029-2.887,1.806-5.085,1.576-4.441,3.856-10.769,6.661-18.622.355-.977.74-1.984,1.081-3.012.185-.511.392-1.036.54-1.547a3.686,3.686,0,0,0,0-1.613,3.764,3.764,0,0,0-1.976-2.568c-1.014-.555-2.257-.348-3.486-.385H251.96a8.274,8.274,0,0,0-2.161.148,3.7,3.7,0,0,0-1.769,1.147,3.6,3.6,0,0,0-.57.9c-.133.326-.244.74-.37,1.058l-.74,2.161q-.739,2.176-1.48,4.382-1.48,4.441-3.035,8.941c-1.562,4.618-3.1,9.148-4.574,13.478l-.037.126H219.49a1.04,1.04,0,0,0-.5.163,2.413,2.413,0,0,0-1.066,1.887l-.178-.178c8.452,0,16.283-.037,23.24,0l18.148.126,11.842.111,3.153.037h.822Z" transform="translate(-152.785 -263.503)"></path><path class="j" d="M258.547,347.986a1.194,1.194,0,0,1-.081.355l-.326,1.014c-.318.925-.74,2.176-1.258,3.7-1.081,3.116-2.6,7.4-4.293,12.131s-3.249,9-4.4,12.094l-1.377,3.649-.385.984a2.01,2.01,0,0,1-.163.333,1.1,1.1,0,0,1,.089-.363l.318-1.007c.318-.933.74-2.176,1.258-3.7,1.081-3.109,2.6-7.4,4.293-12.131s3.249-9,4.4-12.086L258,349.311c.155-.392.281-.74.392-.984A1.474,1.474,0,0,1,258.547,347.986Z" transform="translate(-160.238 -263.613)"></path><path class="m" d="M207.995,400.019H307.35a2.686,2.686,0,0,0,2.687-2.687h0a2.693,2.693,0,0,0-2.687-2.687H207.995a2.686,2.686,0,0,0-2.687,2.687h0a2.68,2.68,0,0,0,2.672,2.687Z" transform="translate(-149.594 -275.738)"></path><rect class="m" width="8.667" height="111.042" transform="translate(104.622 123.275)"></rect><path class="m" d="M296.057,548.25H237.1c.385,0,25.386-6.624,25.386-6.624h8.667Z" transform="translate(-157.855 -313.934)"></path><path class="j" d="M208.588,401.536c0-.1,22.463-.17,50.173-.17s50.181.074,50.181.17-22.463.178-50.181.178S208.588,401.632,208.588,401.536Z" transform="translate(-150.446 -277.485)"></path></g><g transform="translate(323.445 347.133)"><path class="f" d="M420.809,433.2H516.8a19.96,19.96,0,0,1,19.961,19.958h0A19.96,19.96,0,0,1,516.8,473.111H420.809a19.96,19.96,0,0,1-19.961-19.958h0A19.96,19.96,0,0,1,420.809,433.2Z" transform="translate(-400.848 -433.196)"></path><text class="x" transform="translate(40.855 24.433)"><tspan x="0" y="0">MANAGE</tspan></text></g><g transform="translate(431.348 356.207)"><path class="b" d="M554.1,481.325a11.577,11.577,0,0,1,1.288,3.989h2.391l10.036-.17-.074.178s1.636-7.7,1.932-9.984c.252-1.887,1.414-6.4,0-8.393a2.087,2.087,0,0,0-2.3-.74,1.623,1.623,0,0,0-1.147,1.258s-.118-2.664-2.035-2.709-1.984,1.48-1.984,1.48-.526-3.049-2.657-3.02a2.043,2.043,0,0,0-1.762,1.48v-5.758a2.22,2.22,0,0,0-2.072-2.22,2.154,2.154,0,0,0-2.22,2.086v.038l-.222,13.322-3.257-4.174a2,2,0,0,0-3.138.385,3.207,3.207,0,0,0,.622,3.027C548.439,472.754,554.1,481.325,554.1,481.325Z" transform="translate(-546.662 -448.382)"></path><path class="j" d="M554.075,481.252a2.669,2.669,0,0,1-.163-.215l-.437-.637-1.673-2.494-2.635-3.952-1.65-2.472a4.958,4.958,0,0,1-.74-1.48,2.752,2.752,0,0,1,0-1.739h0a1.436,1.436,0,0,1,.74-.777,2.526,2.526,0,0,1,1.044-.266,2.018,2.018,0,0,1,1.088.259,1.928,1.928,0,0,1,.237.163l.207.215.341.444,2.909,3.7-.17.059c.044-3.738.089-7.838.141-12.2v-.822a4.181,4.181,0,0,1,.059-.844,2.265,2.265,0,0,1,4.441.141,5.161,5.161,0,0,1,.044.888v5.314h-.229a2.222,2.222,0,0,1,.992-1.273,2.272,2.272,0,0,1,.644-.252,1,1,0,0,1,.363,0,1.762,1.762,0,0,1,.34.044,2.221,2.221,0,0,1,1.184.681,4.972,4.972,0,0,1,1.125,2.383h-.229a1.665,1.665,0,0,1,.984-1.369,2.541,2.541,0,0,1,.836-.185,1.611,1.611,0,0,1,.422,0h.215l.207.059a2.058,2.058,0,0,1,1.184,1.147,4.493,4.493,0,0,1,.392,1.576h-.222a1.754,1.754,0,0,1,1.081-1.288,2.118,2.118,0,0,1,2.361.481,3.025,3.025,0,0,1,.459.688,5.026,5.026,0,0,1,.407,1.547,23.521,23.521,0,0,1-.57,6.025c-.266,1.924-.651,3.753-.992,5.492l-1.029,4.951-.163-.052.074-.178.081.118-10.029.148.052-.059h0v.052h-2.487v-.044a11.635,11.635,0,0,0-.8-2.961c-.133-.333-.252-.577-.333-.74a2.225,2.225,0,0,1-.111-.252,8.481,8.481,0,0,1,.488.97,11.658,11.658,0,0,1,.851,3.012l-.052-.044h2.391l-.052.059h0v-.052h.052l10.036-.207h.126l-.052.118c0,.059-.044.111-.067.178l-.163-.052c.318-1.554.651-3.212,1.007-4.951s.74-3.56.977-5.484a23.7,23.7,0,0,0,.555-5.965,5.127,5.127,0,0,0-.385-1.48,3,3,0,0,0-.422-.629,2.036,2.036,0,0,0-.629-.422,1.936,1.936,0,0,0-1.48,0,1.534,1.534,0,0,0-.94,1.132l-.163.74-.059-.792a4.194,4.194,0,0,0-.378-1.48,1.8,1.8,0,0,0-1.051-1.021,2.3,2.3,0,0,0-1.48.089,1.414,1.414,0,0,0-.851,1.169l-.074.74-.155-.74a4.75,4.75,0,0,0-1.066-2.265,1.761,1.761,0,0,0-2.22-.4,2.01,2.01,0,0,0-.888,1.147l-.222.7v-6.121a5.266,5.266,0,0,0-.037-.844,2.126,2.126,0,0,0-.3-.74,2.006,2.006,0,0,0-2.752-.687l-.068.043a2.052,2.052,0,0,0-.881,1.273,3.962,3.962,0,0,0-.059.8v.822c-.059,4.359-.118,8.46-.17,12.2v.274l-.178-.215c-1.007-1.3-1.969-2.546-2.894-3.7a2.887,2.887,0,0,0-.74-.785,1.85,1.85,0,0,0-.992-.237,2.318,2.318,0,0,0-.977.252,1.21,1.21,0,0,0-.637.666h0a2.605,2.605,0,0,0,0,1.628,4.9,4.9,0,0,0,.7,1.436l1.628,2.487,2.613,3.974c.7,1.088,1.251,1.932,1.636,2.509l.414.659Z" transform="translate(-546.636 -448.309)"></path><rect class="b" width="16.016" height="3.575" rx="1.787" transform="translate(6.995 36.777)"></rect><path class="j" d="M570.315,498.632a1.427,1.427,0,0,0,.355-.067,1.656,1.656,0,0,0,.873-.518,1.8,1.8,0,0,0,.363-.644,2.086,2.086,0,0,0,.052-.866,1.665,1.665,0,0,0-1.414-1.384H557.755a1.606,1.606,0,0,0-1.614,1.6c0,.02,0,.04,0,.06a1.573,1.573,0,0,0,.17.807,1.645,1.645,0,0,0,1.288.881h7.409l3.878.037h1.428a2.37,2.37,0,0,1-.37,0h-1.058l-3.878.037h-7.431a1.9,1.9,0,0,1,.178-3.8c5,0,9.518,0,12.812.052a1.79,1.79,0,0,1,1.517,1.525,2.208,2.208,0,0,1-.067.925,1.857,1.857,0,0,1-.407.666,1.725,1.725,0,0,1-.925.511A1.284,1.284,0,0,1,570.315,498.632Z" transform="translate(-549.029 -458.273)"></path><path class="j" d="M561.526,472.247a28.435,28.435,0,0,1,0-5.181A28.435,28.435,0,0,1,561.526,472.247Z" transform="translate(-550.475 -451.072)"></path><path class="j" d="M567.526,472.5a10.129,10.129,0,0,1,0-3.086A10.782,10.782,0,0,1,567.526,472.5Z" transform="translate(-552.034 -451.682)"></path><path class="j" d="M573.018,474.255a10.726,10.726,0,0,1,0-3.079A10.039,10.039,0,0,1,573.018,474.255Z" transform="translate(-553.463 -452.14)"></path><path class="j" d="M552.883,455.468a15.586,15.586,0,0,1-2.45-1.118,16.113,16.113,0,0,1-2.346-1.325,15.487,15.487,0,0,1,2.45,1.118A16.112,16.112,0,0,1,552.883,455.468Z" transform="translate(-547.013 -447.423)"></path><path class="j" d="M557.193,452.28a27.583,27.583,0,0,1-.644-3.4,26.8,26.8,0,0,1-.422-3.427,24.88,24.88,0,0,1,.651,3.39A24.45,24.45,0,0,1,557.193,452.28Z" transform="translate(-549.103 -445.456)"></path><path class="j" d="M561.187,453.487a16.765,16.765,0,0,1,1.48-2.361,16.96,16.96,0,0,1,1.7-2.22,28.778,28.778,0,0,1-3.183,4.581Z" transform="translate(-550.418 -446.353)"></path></g></g></svg>